<?xml version="1.0" standalone="no"?>
<!DOCTYPE svg PUBLIC "-//W3C//DTD SVG 1.1//EN" "http://www.w3.org/Graphics/SVG/1.1/DTD/svg11.dtd" >
<svg xmlns="http://www.w3.org/2000/svg" xmlns:xlink="http://www.w3.org/1999/xlink" version="1.1">
<metadata></metadata>
<defs>
<font id="rotoplasbold" horiz-adv-x="1230" >
<font-face units-per-em="2048" ascent="1561" descent="-487" />
<missing-glyph horiz-adv-x="450" />
<glyph horiz-adv-x="0" />
<glyph unicode="&#xd;" horiz-adv-x="681" />
<glyph unicode=" "  horiz-adv-x="450" />
<glyph unicode="&#x09;" horiz-adv-x="450" />
<glyph unicode="&#xa0;" horiz-adv-x="450" />
<glyph unicode="!" horiz-adv-x="688" d="M160 166q0 47 14 96q14 51 74 62l149 24q57 11 86 -26q45 -63 45 -158q0 -104 -57 -160q-59 -27 -135 -27q-176 0 -176 189zM193 561v776q0 72 71 72h144q71 0 71 -72v-776q0 -72 -71 -72h-144q-72 0 -71 72z" />
<glyph unicode="&#x22;" horiz-adv-x="956" d="M61 1331q0 86 13.5 124t64.5 44l178 25q55 6 72 -29t17 -117q0 -193 -64 -397q-18 -57 -80 -57h-59q-66 0 -82 57q-59 172 -60 350zM551 1331q0 86 13.5 124t64.5 44l178 25q55 6 71.5 -29t16.5 -117q0 -193 -64 -397q-18 -57 -79 -57h-60q-66 0 -82 57q-59 172 -59 350z " />
<glyph unicode="#" horiz-adv-x="1445" d="M41 420v96q0 72 72 72h166l63 233h-102q-72 0 -72 72v96q0 72 72 72h168l73 270q14 55 76 66l137 20q39 6 57.5 -15.5t8.5 -60.5l-76 -280h252l74 270q14 55 75 66l140 20q39 6 57 -15.5t8 -60.5l-76 -280h119q72 0 72 -72v-96q0 -72 -72 -72h-184l-66 -233h123 q72 0 72 -72v-96q0 -72 -72 -72h-188l-78 -287q-14 -61 -80 -61h-127q-39 0 -55 21.5t-6 58.5l71 268h-254l-77 -287q-14 -61 -80 -61h-129q-39 0 -55.5 20.5t-6.5 59.5l74 268h-102q-72 0 -72 72zM555 588h254l63 233h-254z" />
<glyph unicode="$" horiz-adv-x="1263" d="M123 1008q0 147 91 258.5t278 148.5v90q0 68 65 78l145 21q76 10 76 -68v-113q154 -18 266 -80q57 -31 33 -96l-41 -104q-25 -61 -92 -43q-158 43 -282 43q-233 0 -234 -123q0 -55 53.5 -95t132 -62.5t171 -59.5t171 -81t132 -130t53.5 -205q0 -166 -100.5 -264 t-262.5 -129v-107q0 -72 -71 -71h-144q-72 0 -71 71v101q-184 23 -316 102q-57 35 -20 98l63 105q33 55 96 31q154 -57 297 -58q223 0 224 109q0 61 -74 105t-178.5 79t-209 82t-178 140t-73.5 227z" />
<glyph unicode="%" horiz-adv-x="2107" d="M92 1059q0 170 103.5 270.5t279.5 100.5q178 0 285.5 -100.5t107.5 -270.5q0 -168 -106.5 -268.5t-284.5 -100.5q-176 0 -280.5 99.5t-104.5 269.5zM348 1067q0 -154 135 -154q55 0 95 17q37 43 36 121q0 155 -143 155q-57 0 -90 -18q-33 -39 -33 -121zM457.5 -16.5 q-13.5 24.5 9.5 61.5l842 1337q31 45 82 52l198 22q45 4 60.5 -19.5t-9.5 -62.5l-854 -1368q-29 -47 -86 -47h-186q-43 0 -56.5 24.5zM1239 348q0 170 103.5 270.5t279.5 100.5q178 0 285.5 -100.5t107.5 -270.5q0 -168 -106.5 -268t-284.5 -100q-176 0 -280.5 99 t-104.5 269zM1495 356q0 -154 135 -153q55 0 94 16q37 43 37 121q0 156 -143 156q-57 0 -90 -19q-33 -39 -33 -121z" />
<glyph unicode="&#x26;" horiz-adv-x="1488" d="M92 406q0 125 55.5 224t143.5 161q-84 121 -84 249q0 178 136 284t378 106q211 0 356 -84q55 -35 25 -99l-51 -96q-31 -55 -93 -41q-125 33 -231 33q-215 0 -215 -127q2 -59 62.5 -126t234.5 -220q45 -39 68 -60l143 -127q27 63 27 121l-35 90q-25 59 28 97l78 55 q53 39 99 0q102 -94 102 -268q0 -152 -78 -279q14 -10 29 -18q27 -8 84 -9q72 0 71 -71l2 -107q0 -59 -43 -84q-51 -31 -118 -30q-104 0 -238 106q-180 -106 -410 -106q-236 0 -381 111.5t-145 314.5zM395 465q0 -102 73 -158.5t191 -56.5q86 0 156 31l-252 227 q-39 35 -123 115q-45 -76 -45 -158z" />
<glyph unicode="'" horiz-adv-x="466" d="M61 1331q0 86 13.5 124t64.5 44l178 25q55 6 72 -29t17 -117q0 -193 -64 -397q-18 -57 -80 -57h-59q-66 0 -82 57q-59 172 -60 350z" />
<glyph unicode="(" horiz-adv-x="702" d="M123 571q0 492 246 875q29 45 82 51l159 21q45 6 59.5 -17.5t-7.5 -62.5q-244 -388 -244 -867q0 -469 248 -854q25 -37 11.5 -61.5t-56.5 -24.5h-156q-57 0 -86 45q-256 393 -256 895z" />
<glyph unicode=")" horiz-adv-x="702" d="M25.5 -344q-13.5 25 11.5 61q246 387 246 854q0 461 -230 844q-23 33 -10.5 58.5t51.5 31.5l129 19q57 8 90 -41q266 -410 266.5 -911.5t-255.5 -895.5q-29 -45 -86 -45h-156q-43 0 -56.5 25z" />
<glyph unicode="*" horiz-adv-x="731" d="M74 950q-41 70 35 97l135 47l-135 47q-76 27 -35 96l18 31q41 68 101 18l114 -92l-24 137q-6 35 10 56.5t53 21.5h39q37 0 53.5 -21.5t10.5 -56.5l-25 -137l115 92q59 49 100 -18l18 -31q41 -70 -34 -96l-136 -47l136 -47q76 -27 34 -97l-18 -30q-41 -68 -100 -19 l-115 92l25 -137q6 -35 -10.5 -56.5t-53.5 -21.5h-39q-37 0 -53.5 21.5t-9.5 56.5l24 137l-114 -92q-61 -51 -101 19z" />
<glyph unicode="+" horiz-adv-x="1097" d="M57 668v96q0 72 72 72h299v301q0 72 72 71h98q72 0 72 -71v-301h299q72 0 71 -72v-96q0 -72 -71 -72h-299v-299q0 -72 -72 -72h-98q-72 0 -72 72v299h-299q-72 0 -72 72z" />
<glyph unicode="," horiz-adv-x="595" d="M106 -115q72 150 44 359q-10 72 57 84l135 20q57 11 80 -20q51 -70 51 -183q0 -92 -48 -199.5t-167 -199.5q-53 -43 -102 6l-37 35q-41 41 -13 98z" />
<glyph unicode="-" horiz-adv-x="776" d="M57 573v97q0 72 72 71h518q72 1 72 -71v-97q0 -72 -72 -71h-518q-72 0 -72 71z" />
<glyph unicode="." horiz-adv-x="614" d="M123 166q0 47 14 96q14 51 74 62l149 24q57 11 86 -26q45 -63 46 -158q0 -104 -58 -160q-59 -27 -135 -27q-176 0 -176 189z" />
<glyph unicode="/" horiz-adv-x="1009" d="M47 -287l604 1725q18 55 76 61l172 21q41 4 59.5 -17.5t4.5 -60.5l-615 -1753q-20 -57 -82 -58h-162q-39 0 -54 22.5t-3 59.5z" />
<glyph unicode="0" horiz-adv-x="1435" d="M123 704.5q0 333.5 151.5 529.5t444.5 196t443.5 -196t150.5 -529.5t-151.5 -529t-444.5 -195.5t-443.5 195.5t-150.5 529zM420 704.5q0 -460.5 299 -460.5q297 0 297 460.5t-297 460.5q-299 0 -299 -460.5z" />
<glyph unicode="1" horiz-adv-x="757" d="M-51 1229v55q0 68 65 78l330 47h148q71 0 71 -72v-1265q0 -72 -71 -72h-146q-72 0 -72 72v1085h-254q-72 0 -71 72z" />
<glyph unicode="2" horiz-adv-x="1290" d="M145 1069q0 166 131.5 263.5t362.5 97.5q258 0 371.5 -113t113.5 -268q0 -43 -7 -86t-27.5 -88.5t-36 -79t-53 -82.5t-54 -74t-68 -79t-64.5 -69.5t-71.5 -74l-66.5 -66.5l-74 -74h494q72 0 71 -71v-133q0 -72 -71 -72h-848q-61 0 -80 59l-18 56q-18 55 24 96l197 190 q37 37 114.5 115t112.5 114t89 96t77.5 99t43 86t19.5 88q0 70 -51 118t-174 48q-96 0 -160 -22q-10 -80 -10 -185q0 -72 -72 -71h-102q-61 0 -84 49q-29 63 -29 133z" />
<glyph unicode="3" horiz-adv-x="1224" d="M119 1096q0 152 121.5 243t343.5 91q244 0 363.5 -108t119.5 -273q0 -223 -209 -332q244 -98 244 -332q0 -184 -142.5 -294.5t-384.5 -110.5q-246 0 -428 104q-57 33 -20 96l55 92q33 57 97 29q137 -57 276 -57q117 0 183.5 41t66.5 116q0 90 -86 137.5t-203 47.5 q-43 0 -43 63v117q0 63 49 63q125 0 186.5 49.5t61.5 129.5q0 158 -209 157q-88 0 -155 -22q-6 -47 -11 -125q0 -72 -71 -72h-107q-61 0 -76 37q-23 53 -22 113z" />
<glyph unicode="4" horiz-adv-x="1259" d="M57 508q-25 53 11 98l630 762q33 43 84 45l162 10q74 6 74 -67v-795h129q72 0 72 -72v-110q0 -72 -72 -72h-129v-235q0 -72 -72 -72h-143q-72 0 -72 72v235h-518q-59 0 -84 53zM352 561h379v453z" />
<glyph unicode="5" d="M137 188l60 93q35 51 96 24q127 -61 268 -61q115 0 182.5 45t67.5 125q0 96 -109.5 145t-281.5 49h-96q-51 0 -88 39l-23 25q-33 39 -33 90v575q0 72 72 72h747q70 0 74 -59q6 -61 6 -133q0 -90 -12 -166q-8 -63 -78 -64h-98q-70 0 -74 70q-4 61 -8 98h-342v-313 q29 2 84 2q106 0 198.5 -20.5t176.5 -65.5t133 -131t49 -205q0 -221 -152.5 -331.5t-384.5 -110.5q-238 0 -415 110q-61 35 -19 98z" />
<glyph unicode="6" horiz-adv-x="1343" d="M123 666q0 352 169 558t472 206q188 0 308 -85t120 -239q0 -61 -18 -111q-18 -47 -84 -47h-107q-68 0 -72 72q-4 80 -14 121q-63 25 -156 24q-139 0 -215 -47q-84 -102 -104 -354q147 94 352 94t326 -116.5t121 -307.5q0 -219 -150.5 -336.5t-372.5 -117.5 q-287 0 -431 185t-144 501zM430 553q27 -154 107.5 -231.5t191.5 -77.5q82 0 138.5 46t56.5 126t-64.5 133t-181.5 53q-125 0 -248 -49z" />
<glyph unicode="7" horiz-adv-x="1243" d="M82 1296q0 37 3 57.5t21.5 38t53.5 17.5h856q61 0 82 -55l43 -105q20 -47 0 -94l-471 -1100q-23 -55 -82 -55h-156q-39 0 -55.5 23.5t0.5 60.5l459 1071h-471q-4 -47 -9 -137q0 -72 -71 -72h-95q-66 0 -79 62q-29 125 -29 288z" />
<glyph unicode="8" horiz-adv-x="1331" d="M123 344q0 117 72.5 210t187.5 140q-207 131 -207 336q0 72 28.5 140.5t86 127t157 94t226.5 38.5q229 0 355 -104.5t126 -252.5q0 -102 -57.5 -184t-157.5 -129q268 -147 268 -383q0 -193 -145 -295t-395 -102q-254 0 -399.5 97t-145.5 267zM420 408q0 -76 71.5 -120 t190.5 -44q102 0 165.5 33.5t63.5 91.5q0 33 -19.5 60.5t-66.5 55t-80.5 43t-109.5 45.5q-8 4 -28.5 12.5t-28.5 12.5q-72 -33 -115 -84t-43 -106zM475 1047q0 -43 42 -81t87 -58.5t141 -59.5l9 -4q45 27 74.5 73t29.5 99q0 61 -51 105t-141 44q-86 0 -138.5 -33.5 t-52.5 -84.5z" />
<glyph unicode="9" horiz-adv-x="1343" d="M123 958q0 203 138 337.5t376 134.5q272 0 428 -188.5t156 -524.5q0 -346 -168 -541.5t-482 -195.5q-190 0 -344 63q-59 27 -34 94l38 96q25 66 93 43q111 -33 211 -32q174 0 270 89t115 283q-135 -86 -330 -86q-213 0 -340 119t-127 309zM420 977q0 -84 63.5 -137.5 t190.5 -53.5q119 0 241 50q-23 160 -96 244.5t-190 84.5q-92 0 -150.5 -54t-58.5 -134z" />
<glyph unicode=":" horiz-adv-x="614" d="M123 166q0 47 14 96q14 51 74 62l149 24q57 11 86 -26q45 -63 46 -158q0 -104 -58 -160q-59 -27 -135 -27q-176 0 -176 189zM123 870q0 43 12 97q16 51 78 61l147 23q59 10 86 -27q45 -63 46 -158q0 -102 -58 -157q-59 -27 -135 -27q-176 0 -176 188z" />
<glyph unicode=";" horiz-adv-x="595" d="M102 870q0 45 15 95q14 53 76 63l149 23q59 10 84 -27q47 -63 47 -158q0 -100 -59 -157q-59 -27 -133 -27q-178 0 -179 188zM106 -115q72 150 44 359q-10 72 57 84l135 20q57 11 80 -20q51 -70 51 -183q0 -92 -48 -199.5t-167 -199.5q-53 -43 -102 6l-37 35 q-41 41 -13 98z" />
<glyph unicode="&#x3c;" horiz-adv-x="1132" d="M92 637v121q0 57 53 84l773 360q68 31 96 -35l39 -86q29 -66 -35 -96l-633 -287l633 -288q63 -31 35 -97l-39 -86q-29 -66 -96 -34l-773 360q-53 27 -53 84z" />
<glyph unicode="=" horiz-adv-x="1097" d="M57 453v96q0 72 72 72h840q71 0 71 -72v-96q0 -72 -71 -72h-840q-72 0 -72 72zM57 883v96q0 72 72 72h840q71 0 71 -72v-96q0 -72 -71 -72h-840q-72 0 -72 72z" />
<glyph unicode="&#x3e;" horiz-adv-x="1132" d="M80 313q-29 66 35 97l633 288l-633 287q-63 31 -35 96l39 86q29 66 96 35l772 -360q53 -27 53 -84v-121q0 -57 -53 -84l-772 -360q-68 -31 -96 34z" />
<glyph unicode="?" horiz-adv-x="1128" d="M102 1116q0 139 125 226.5t328 87.5q211 0 331 -87.5t120 -250.5q0 -78 -31 -146.5t-62.5 -105.5t-89.5 -92q-8 -8 -26.5 -27t-24.5 -25t-20.5 -21.5t-19.5 -21.5t-15 -19t-13.5 -19.5t-9.5 -17.5t-8 -20.5t-4 -19.5t-2 -20q0 -47 -47 -48h-193q-47 0 -47 52 q0 227 236 405q33 27 47 39t28.5 35.5t14.5 48.5q0 53 -48 74.5t-147 21.5q-90 0 -133 -18q0 -2 -3 -44t-5 -67q-4 -72 -72 -71h-106q-63 0 -84 51q-18 45 -19 100zM362 166q0 43 13 94q14 53 76 64l147 24q59 11 88 -26q45 -68 45 -158q0 -102 -59 -160q-59 -27 -133 -27 q-176 0 -177 189z" />
<glyph unicode="@" horiz-adv-x="2142" d="M92 430q0 440 281.5 720t738.5 280q418 0 678 -247t260 -608q0 -242 -126 -397t-337 -155q-205 0 -305 129q-98 -129 -284.5 -129t-283 124.5t-96.5 317.5q0 217 127 361.5t365 144.5q168 0 330 -49q57 -18 57 -80v-359q0 -197 105 -196q82 0 116.5 82t34.5 198 q0 285 -184.5 441.5t-468.5 156.5q-330 0 -520.5 -202.5t-190.5 -518.5q0 -317 209 -502.5t541 -185.5q260 0 485 119q63 31 96 -27l43 -75q35 -57 -20 -99q-254 -182 -625 -182q-469 0 -747.5 255t-278.5 683zM915 477q0 -88 35 -139t103 -51q98 0 157 90v319 q-51 10 -96 11q-98 0 -145 -25q-53 -68 -54 -205z" />
<glyph unicode="A" horiz-adv-x="1460" d="M51 82l473 1272q23 57 80 59l254 12h8q55 0 74 -55l469 -1288q14 -39 -1 -60.5t-56 -21.5h-187q-61 0 -82 57l-104 281h-518l-103 -281q-20 -57 -82 -57h-167q-41 0 -56.5 21.5t-1.5 60.5zM563 614h316l-158 428z" />
<glyph unicode="B" horiz-adv-x="1368" d="M195 70v1261q0 70 67 76q170 23 324 23q287 0 430 -106.5t143 -268.5q0 -174 -164 -291q250 -92 250 -352q0 -209 -154.5 -320.5t-445.5 -111.5q-168 0 -383 14q-68 6 -67 76zM494 260q80 -10 176 -10q270 0 270 174q0 156 -244 156h-202v-320zM494 829h258 q43 20 73.5 69.5t30.5 105.5q0 72 -57 113.5t-166 41.5q-70 0 -139 -4v-326z" />
<glyph unicode="C" horiz-adv-x="1359" d="M123 707q0 326 166 524.5t473 198.5q233 0 360 -96.5t127 -254.5q0 -70 -30 -145q-23 -47 -84 -47h-103q-68 0 -71 71q0 88 -15 160q-84 25 -180 25q-141 0 -238 -51q-41 -51 -71.5 -151.5t-30.5 -213.5q0 -213 93 -337t292 -124q137 0 281 56q20 8 36 8q38 0 58 -41 l51 -101q11 -22 11 -40q0 -33 -36 -56q-186 -112 -436 -112h-4q-307 0 -478 194.5t-171 532.5z" />
<glyph unicode="D" horiz-adv-x="1531" d="M195 78v1253q0 70 67 76q192 23 385 23q383 0 572.5 -197t189.5 -522q0 -334 -192.5 -532.5t-581.5 -198.5q-141 0 -373 22q-68 10 -67 76zM494 281q106 -14 204 -15q176 0 295 72q45 49 78 152.5t33 224.5q0 190 -109 310q-107 118 -331 118h-7q-4 0 -163 -6v-856z" />
<glyph unicode="E" horiz-adv-x="1277" d="M195 72v1265q0 72 71 72h795q72 0 72 -72v-133q0 -71 -70 -71h-2h-567v-295h471q72 0 71 -72v-115q0 -71 -69 -71h-2h-471v-304h600q72 0 71 -71v-133q0 -72 -71 -72h-828q-72 0 -71 72z" />
<glyph unicode="F" horiz-adv-x="1183" d="M195 72v1265q0 72 71 72h774q72 0 72 -72v-133q0 -71 -70 -71h-2h-546v-359h450q72 0 72 -72v-112q0 -72 -72 -72h-450v-446q0 -72 -72 -72h-156q-72 0 -71 72z" />
<glyph unicode="G" horiz-adv-x="1470" d="M123 702q0 328 171 528t488 200q246 0 387.5 -89.5t141.5 -261.5q0 -72 -31 -143q-23 -49 -84 -49h-102q-68 0 -72 71q0 94 -14 160q-92 25 -234 25q-137 0 -239 -47q-47 -51 -79 -159t-32 -239q0 -432 391 -432q113 0 215 21v209h-192q-72 0 -72 71v88q0 72 72 72h417 q72 0 72 -72v-471q0 -57 -45 -86q-197 -118 -466 -118h-5q-328 0 -508 194.5t-180 527.5z" />
<glyph unicode="H" horiz-adv-x="1570" d="M195 72v1265q0 72 71 72h156q72 0 72 -72v-508h585v508q0 72 72 72h154q72 0 71 -72v-1265q0 -72 -71 -72h-154q-72 0 -72 72v481h-585v-481q0 -72 -72 -72h-156q-72 0 -71 72z" />
<glyph unicode="I" horiz-adv-x="688" d="M195 72v1265q0 72 71 72h156q72 0 72 -72v-1265q0 -72 -72 -72h-156q-72 0 -71 72z" />
<glyph unicode="J" horiz-adv-x="716" d="M-143 -272l16 108q10 62 65 62q9 0 19 -2q99 -15 161 -15q41 0 66 6q41 68 41 215v1235q0 72 72 72h154q71 0 71 -72v-1319q0 -193 -116.5 -291t-311.5 -98q-96 0 -180 15q-59 10 -59 65q0 9 2 19z" />
<glyph unicode="K" horiz-adv-x="1456" d="M195 72v1265q0 72 71 72h156q72 0 72 -72v-544h176l397 571q33 45 86 45h195q29 0 38 -24.5t-12 -57.5l-461 -659l217 -271q63 -78 111 -116q20 -4 82 -9q72 -4 72 -71v-107q0 -59 -43 -84q-59 -30 -115 -30h-4q-86 0 -147.5 39.5t-120.5 113.5l-297 383h-174v-444 q0 -72 -72 -72h-156q-72 0 -71 72z" />
<glyph unicode="L" horiz-adv-x="1196" d="M195 72v1265q0 72 71 72h156q72 0 72 -72v-1069h579q72 0 72 -71v-125q0 -72 -72 -72h-807q-72 0 -71 72z" />
<glyph unicode="M" horiz-adv-x="1855" d="M113 76l159 1267q8 66 74 70l186 10h8q56 0 76 -53l318 -831l303 815q23 57 80 59l192 12h7q63 0 71 -65l156 -1284q1 -9 1 -17q0 -59 -67 -59h-164q-66 0 -75 68l-97 755l-264 -684q-23 -57 -84 -57h-141q-61 0 -84 55l-266 684l-90 -753q-10 -68 -76 -68h-158 q-66 0 -66 58q0 8 1 18z" />
<glyph unicode="N" horiz-adv-x="1546" d="M195 72v1267q0 68 69 74l164 12h9q52 0 79 -43l547 -823v778q0 72 72 72h145q72 0 72 -72v-1265q0 -72 -72 -72h-162q-55 0 -86 45l-547 807v-780q0 -72 -71 -72h-148q-72 0 -71 72z" />
<glyph unicode="O" horiz-adv-x="1550" d="M123 713q0 326 169 521.5t482 195.5q311 0 482 -197t171 -522q0 -332 -171 -531.5t-482 -199.5q-313 0 -482 199.5t-169 533.5zM426 707q0 -440 369 -441q119 0 221 56q45 57 76.5 160.5t31.5 217.5q0 219 -86.5 331t-281.5 112q-127 0 -221 -56q-109 -162 -109 -380z " />
<glyph unicode="P" horiz-adv-x="1345" d="M195 72v1259q0 66 67 76q202 23 356 23q301 0 453 -143.5t152 -385.5q0 -254 -155 -398.5t-445 -144.5q-55 0 -129 7v-293q0 -72 -72 -72h-156q-72 0 -71 72zM494 657q88 -12 163 -12q131 0 203 41q59 78 60 207q0 250 -299 250q-66 0 -127 -6v-480z" />
<glyph unicode="Q" horiz-adv-x="1570" d="M123 713q0 326 170 521.5t481 195.5q313 0 484.5 -197t171.5 -522q0 -410 -248 -605q188 -133 293 -186h131q68 0 73 -67l11 -103q1 -7 1 -13q0 -51 -44 -75q-74 -33 -148 -33q-172 0 -315 115l-301 242q-51 -6 -107 -6q-313 0 -483 199.5t-170 533.5zM426 707 q0 -207 94 -324t285 -117q90 0 176 29q143 154 143 405q0 209 -91 326t-277 117q-127 0 -221 -56q-109 -156 -109 -380z" />
<glyph unicode="R" horiz-adv-x="1406" d="M195 72v1265q0 70 69 76q195 14 322 14q283 0 441.5 -119.5t158.5 -332.5q0 -238 -209 -385l119 -199q39 -70 94 -110q23 -4 84 -9q72 -4 72 -73v-103q-1 -61 -46 -86q-59 -30 -127 -30h-4q-172 0 -258 153l-186 328h-231v-389q0 -72 -72 -72h-156q-72 0 -71 72zM494 711 h258q131 78 131 233q0 213 -260 213q-88 0 -129 -4v-442z" />
<glyph unicode="S" horiz-adv-x="1284" d="M145 991q0 199 152.5 319t400.5 120q199 0 365 -58q57 -18 57 -84q0 -166 -16 -278q-6 -63 -76 -64h-96q-68 0 -72 72q-2 47 -14 108q-55 16 -139 17q-123 0 -189.5 -38t-66.5 -106q0 -57 52 -98t132 -64.5t171 -58.5t171 -75.5t132 -121.5t52 -190q0 -184 -140 -297.5 t-366 -113.5q-276 0 -477 131q-34 23 -34 54q0 20 14 44l63 104q22 38 59 38q18 0 39 -9q168 -76 314 -76q225 0 225 109q0 47 -53 84t-132 60.5t-171 62.5t-171 84t-132.5 129t-53.5 196z" />
<glyph unicode="T" horiz-adv-x="1259" d="M41 1204v133q0 72 72 72h1034q72 0 72 -72v-133q0 -71 -70 -71h-2h-369v-1061q0 -72 -71 -72h-154q-72 0 -72 72v1061h-368q-72 0 -72 71z" />
<glyph unicode="U" horiz-adv-x="1548" d="M184 541v796q0 72 72 72h154q71 0 71 -72v-737q0 -176 76 -255t225 -79q143 0 213 81t70 253v737q0 72 72 72h155q72 0 72 -72v-796q0 -279 -164 -420t-428 -141q-262 0 -425 142t-163 419z" />
<glyph unicode="V" horiz-adv-x="1394" d="M49 1329q-14 37 2.5 58.5t54.5 23.5l191 6h8q55 0 74 -55l334 -893l331 893q19 55 74 55h8l162 -6q39 -2 55.5 -23.5t2.5 -58.5l-469 -1272q-20 -57 -82 -57h-197q-61 0 -82 57z" />
<glyph unicode="W" horiz-adv-x="1935" d="M72 1331q-4 15 -4 28q0 49 63 52l158 6h7q59 0 75 -61l204 -828l230 740q18 57 80 61l168 6h7q57 0 75 -59l227 -760l209 840q15 61 73 61h9l151 -6q64 -3 64 -52q0 -12 -4 -28l-326 -1270q-14 -61 -80 -61h-180q-63 0 -82 59l-231 775l-236 -775q-18 -59 -80 -59h-180 q-66 0 -80 61z" />
<glyph unicode="X" horiz-adv-x="1306" d="M64 24q-5 9 -4 20q0 18 14 42l389 635l-387 604q-23 35 -10.5 59.5t55.5 26.5l192 6h5q54 0 83 -45l277 -428l248 426q30 47 82 47h4l174 -6q41 -2 54 -25.5t-7 -60.5l-389 -639l387 -600q14 -23 14 -42q-1 -12 -5 -20q-14 -24 -56 -24h-201q-57 0 -86 47l-266 416 l-244 -414q-31 -49 -86 -49h-180q-43 0 -57 24z" />
<glyph unicode="Y" horiz-adv-x="1325" d="M52.5 1385.5q13.5 23.5 53.5 25.5l187 6h4q52 0 82 -47l299 -516l289 514q27 49 78 49h8l166 -6q41 -2 54 -25.5t-7 -60.5l-455 -788v-465q0 -72 -72 -72h-153q-72 0 -72 72v465l-455 788q-20 37 -6.5 60.5z" />
<glyph unicode="Z" horiz-adv-x="1310" d="M123 1294q0 39 3 59.5t21.5 38t55.5 17.5h905q59 0 82 -55l49 -121q7 -20 7 -38q0 -32 -21 -60l-676 -856h633q72 0 71 -72v-135q0 -72 -71 -72h-899q-61 0 -82 57l-43 121q-6 18 -6 35q0 32 22 61l684 856h-455q-4 -43 -8 -112q-4 -72 -73 -72h-95q-63 0 -80 62 q-24 114 -24 273v13z" />
<glyph unicode="[" horiz-adv-x="796" d="M195 -299v1739q0 72 71 71h439q72 0 71 -71v-97q0 -72 -71 -71h-222v-1403h222q72 0 71 -72v-96q1 -72 -71 -72h-439q-72 0 -71 72z" />
<glyph unicode="\" horiz-adv-x="999" d="M47 1415q-27 76 53 86l150 21q68 9 88 -52l614 -1757q12 -37 -3 -59.5t-54 -22.5h-164q-61 0 -82 58z" />
<glyph unicode="]" horiz-adv-x="794" d="M20 -203q0 72 72 72h219v1403h-219q-72 0 -72 71v97q0 72 72 71h436q72 0 72 -71v-1739q0 -72 -72 -72h-436q-72 0 -72 72v96z" />
<glyph unicode="_" horiz-adv-x="1140" d="M57 -92q0 72 72 72h883q71 0 71 -72v-96q0 -72 -71 -72h-883q-72 0 -72 72v96z" />
<glyph unicode="`" horiz-adv-x="1177" d="M266 1389v16q0 47 47 72q57 33 160 45q66 8 109 -23l284 -203q55 -39 29 -90l-14 -26q-27 -51 -90 -29l-467 160q-57 20 -58 78z" />
<glyph unicode="a" horiz-adv-x="1191" d="M92 262q0 162 151.5 256t444.5 94h25v6q0 98 -39 138.5t-139 40.5q-74 0 -117 -19q-4 -25 -6 -41q-6 -69 -70 -69h-2h-104q-68 0 -84 49q-8 27 -9 59q0 125 121 205t316 80q203 0 311 -95.5t108 -283.5v-274q0 -88 13 -129q20 -4 49 -7q70 -6 69 -73v-101q0 -61 -47 -84 q-68 -34 -147 -34h-4q-145 0 -197 131q-135 -131 -325 -131q-145 0 -231.5 76.5t-86.5 205.5zM387 328q0 -92 133 -92q90 0 193 45v157q-10 2 -31 2q-184 0 -281 -51q-14 -32 -14 -61z" />
<glyph unicode="b" horiz-adv-x="1257" d="M154 137v1286q0 68 65 78l148 21q35 4 55 -14.5t20 -53.5v-493q127 100 293 100q190 0 310 -135t120 -385q0 -262 -143 -411.5t-426 -149.5q-233 0 -393 73q-49 23 -49 84zM442 276q72 -32 179 -32h6q115 0 176 45q67 83 67 229q0 133 -61 206t-178 73q-88 0 -189 -39 v-482z" />
<glyph unicode="c" horiz-adv-x="1093" d="M92 520q0 244 133 392.5t377 148.5q178 0 293 -85t115 -216q0 -43 -13 -80q-16 -53 -84 -53h-98q-70 0 -74 71q-4 59 -8 78q-55 20 -125 21q-96 0 -162 -35q-57 -76 -57 -227q0 -291 266 -291q104 0 209 35q18 6 34 6q41 0 60 -45l27 -64q10 -22 10 -40q0 -33 -32 -56 q-152 -100 -357 -100q-240 0 -377 145t-137 395z" />
<glyph unicode="d" horiz-adv-x="1302" d="M92 504q0 258 130 407.5t356 149.5q150 0 245 -78v440q0 68 66 78l145 21q9 1 16 1q60 0 60 -69v-1046q0 -86 10 -129q14 -2 51 -7q70 -6 70 -73v-101q0 -61 -47 -84q-68 -34 -147 -34h-5q-143 0 -194 122q-132 -122 -321 -122h-3q-186 0 -309 139t-123 385zM389 524 q0 -135 62.5 -207.5t185.5 -72.5q82 0 186 37v487q-92 29 -202 29q-106 0 -175 -47q-57 -76 -57 -226z" />
<glyph unicode="e" horiz-adv-x="1122" d="M92 518q0 244 133 393.5t377 149.5q201 0 314.5 -113.5t113.5 -298.5q0 -68 -18 -143q-14 -57 -80 -62l-533 -14q39 -186 256 -186q104 0 209 35q18 6 34 6q41 0 60 -45l27 -64q10 -22 10 -40q0 -33 -32 -56q-152 -100 -353 -100q-242 0 -380 145t-138 393zM393 602 l357 16q2 14 2 44q0 135 -158 135q-82 0 -148 -35q-41 -57 -53 -160z" />
<glyph unicode="f" horiz-adv-x="878" d="M31 838v69q0 63 61 80l123 31q-8 74 -8 149q0 178 118.5 271.5t309.5 93.5q80 0 166 -16q59 -10 59 -64q0 -8 -2 -18l-16 -109q-10 -61 -63 -61q-10 0 -21 2q-121 18 -228 24q-36 -50 -36 -144v-5q0 -55 6 -121h237q72 0 72 -72v-110q0 -72 -72 -72h-233v-694 q0 -72 -72 -72h-143q-72 0 -72 72v694h-115q-72 0 -71 72z" />
<glyph unicode="g" horiz-adv-x="1093" d="M51 -242q0 43 15 86q16 46 69 46q8 0 17 -1l81 -8q63 -6 70 -67q2 -10 5 -30t5 -30q92 -16 213 -16q178 0 246 26q18 37 19 72q0 94 -152 94h-162q-168 2 -243.5 63.5t-75.5 162.5q0 125 116 223q-172 100 -172 309q0 166 116 269.5t319 103.5q113 0 198 -31l15 57 l-17 105q-1 7 -1 14q0 57 61 68l108 18q12 2 23 2q47 0 67 -37q29 -43 29 -104q0 -145 -158 -197q119 -102 119 -274q0 -164 -110.5 -265.5t-321.5 -101.5q-59 0 -121 11q-22 -41 -22 -96q0 -30 2 -40q78 -6 288 -6q180 0 278.5 -78t98.5 -219q0 -186 -136 -289.5 t-419 -103.5q-238 0 -352.5 74t-114.5 190zM381 688q0 -158 168 -158q66 0 117 23q37 51 36 135q1 158 -161 158q-70 0 -119 -27q-41 -45 -41 -131z" />
<glyph unicode="h" horiz-adv-x="1323" d="M154 72v1351q0 68 65 78l148 21q35 4 55 -14.5t20 -53.5v-500q133 106 308 107q166 0 274.5 -97.5t108.5 -277.5v-278q0 -88 12 -129q16 -2 47 -7q70 -6 70 -73v-101q0 -61 -45 -86q-70 -32 -145 -32h-5q-221 0 -221 270v305q0 131 -50.5 186.5t-160.5 55.5 q-100 0 -193 -35v-690q0 -72 -71 -72h-146q-72 0 -71 72z" />
<glyph unicode="i" horiz-adv-x="626" d="M113 1350q0 35 12 82q14 53 76 63l137 21q13 2 24 2q42 0 64 -29q43 -59 43 -143q0 -98 -55 -148q-55 -24 -123 -24h-6q-172 0 -172 176zM147 250v719q0 71 70 71h2h143h2q70 0 70 -71v-561q0 -88 12 -129q20 -4 50 -7q70 -6 69 -73v-101q0 -61 -47 -84q-68 -34 -147 -34 h-4q-219 0 -220 270z" />
<glyph unicode="j" horiz-adv-x="636" d="M66 -330q70 119 110 246v1053q0 71 70 71h2h143h2q70 0 70 -71v-584q0 -70 5 -221.5t5 -212.5q0 -119 -66.5 -239t-164.5 -189q-22 -17 -46 -17q-26 0 -53 21l-57 43q-33 25 -33 57q0 20 13 43zM135 1341q0 33 10 89q14 53 76 63l150 23q14 2 25 2q42 0 61 -27 q47 -63 47 -154q0 -98 -60 -151q-57 -25 -131 -25q-178 0 -178 180z" />
<glyph unicode="k" horiz-adv-x="1243" d="M154 72v1351q0 68 65 78l148 21q35 4 55 -14.5t20 -53.5v-811h197q98 106 154 174v146q0 68 65 77l143 21q11 2 21 2q51 0 70 -43q20 -49 20 -111v-7q0 -56 -30 -112q-32 -60 -111 -149l-115 -123l98 -156q29 -49 68 -83q23 -4 88 -9q72 -4 72 -71v-103q0 -59 -43 -86 q-47 -30 -115 -30h-4q-154 0 -252 153l-162 256h-164v-317q0 -72 -71 -72h-146q-72 0 -71 72z" />
<glyph unicode="l" horiz-adv-x="634" d="M154 250v1173q0 68 65 78l148 21q35 4 55 -14.5t20 -53.5v-1046q0 -86 11 -129q18 -6 51 -7q70 0 69 -73v-101q0 -61 -47 -84q-68 -34 -147 -34h-4q-221 0 -221 270z" />
<glyph unicode="m" horiz-adv-x="1982" d="M111 850q-15 25 -15 46q0 30 29 52l94 78q28 25 56 25q20 0 38 -13q66 -47 93 -118q129 141 331 141q209 0 318 -141q145 141 348 141q170 0 279.5 -97.5t109.5 -277.5v-278q0 -86 10 -129q18 -6 49 -7q70 0 70 -73v-101q0 -61 -45 -84q-72 -34 -150 -34h-4 q-217 0 -217 270v319q0 123 -50 175.5t-159 52.5q-104 0 -180 -39q6 -23 6 -74v-612q0 -72 -71 -72h-144q-72 0 -71 72v499q0 123 -48.5 174.5t-160.5 51.5q-106 0 -189 -37q6 -37 6 -82v-606q0 -72 -71 -72h-144q-72 0 -71 72v553q0 135 -47 225z" />
<glyph unicode="n" horiz-adv-x="1327" d="M111 850q-15 25 -15 46q0 30 29 52l94 78q28 25 56 25q20 0 38 -13q66 -43 93 -118q141 141 344 141q166 0 275.5 -97.5t109.5 -277.5v-278q0 -76 12 -129q18 -6 49 -7q70 0 70 -73v-101q0 -61 -47 -84q-68 -34 -147 -34h-5q-104 0 -162.5 66.5t-58.5 203.5v305 q0 131 -49 186.5t-160 55.5q-104 0 -199 -37q6 -43 6 -96v-592q0 -72 -71 -72h-144q-72 0 -71 72v553q0 135 -47 225z" />
<glyph unicode="o" d="M92 526q0 244 136 389.5t388 145.5q250 0 386.5 -146.5t136.5 -390.5q0 -248 -136.5 -396t-386.5 -148q-252 0 -388 148t-136 398zM389 518q0 -274 234 -274q94 0 161 35q57 86 58 243q-1 275 -234 275q-92 0 -159 -35q-59 -78 -60 -244z" />
<glyph unicode="p" horiz-adv-x="1265" d="M111 850q-15 25 -15 46q0 29 29 52l94 78q28 24 55 24q21 0 41 -14q61 -39 88 -110q145 135 338 135q186 0 309.5 -139.5t123.5 -384.5q0 -260 -127 -408.5t-353 -148.5q-158 0 -250 49v-443q0 -71 -69 -71h-2h-144q-72 0 -71 71v1039q0 135 -47 225zM440 760 q4 -29 4 -96v-402q88 -18 166 -18q145 0 209 45q57 72 58 227q0 281 -250 281q-72 0 -187 -37z" />
<glyph unicode="q" horiz-adv-x="1259" d="M92 494q0 266 144.5 416.5t427.5 150.5q233 0 393 -74q49 -23 49 -84v-1319q0 -71 -70 -71h-2h-145q-72 0 -72 71v496q-131 -100 -299 -100q-190 0 -308 133t-118 381zM389 518q0 -129 61.5 -201.5t178.5 -72.5q88 0 188 39v481q-73 33 -184 33q-96 0 -168 -39 q-76 -84 -76 -240z" />
<glyph unicode="r" horiz-adv-x="854" d="M111 850q-15 25 -15 46q0 30 29 52l94 78q33 28 59 28q11 0 21 -5q82 -47 115 -150q104 84 174.5 121t138.5 37q35 0 66 -10q41 -14 41 -60q0 -13 -3 -29l-28 -141q-12 -63 -78 -63h-109q-84 -16 -172 -56v-34v-592q0 -72 -71 -72h-144q-72 0 -71 72v553q0 135 -47 225z " />
<glyph unicode="s" horiz-adv-x="1001" d="M94 727q0 154 124 244t337 90q180 0 303 -62q51 -25 51 -79q0 -74 -16 -189q-8 -63 -78 -63h-76q-68 0 -73 63q-2 27 -11 60q-43 14 -116 14q-158 0 -158 -84q0 -39 54 -66.5t132 -50t156 -54.5t132 -97.5t54 -159.5q0 -145 -114.5 -229t-307.5 -84q-199 0 -360 88 q-36 22 -36 58q0 17 9 38l39 90q19 44 58 44q17 0 39 -9q131 -53 256 -53q131 0 131 65q0 27 -39 48.5t-98.5 35.5t-127 42t-127 60.5t-98.5 95t-39 144.5z" />
<glyph unicode="t" horiz-adv-x="931" d="M31 838v69q0 63 61 80l127 33l31 199q8 63 69 71l109 17q35 6 56.5 -11.5t21.5 -54.5v-221h260q72 0 72 -72v-110q0 -72 -72 -72h-260v-305q0 -125 39 -171t112 -46q51 0 103 20q23 10 42 10q37 0 54 -41l29 -61q9 -21 9 -39q0 -33 -30 -57q-117 -96 -274 -96 q-170 0 -270.5 101t-100.5 310v375h-117q-72 0 -71 72z" />
<glyph unicode="u" horiz-adv-x="1314" d="M154 354v615q0 71 69 71h2h146h2q69 0 69 -71v-484q0 -131 49.5 -186t155.5 -55q98 0 191 35v690q0 71 69 71h2h144q72 0 71 -71v-561q0 -88 13 -129q16 -2 47 -7q70 -6 69 -73v-101q0 -61 -45 -86q-70 -32 -144 -32h-5q-152 0 -199 126q-140 -126 -322 -126h-3 q-166 0 -273.5 97t-107.5 277z" />
<glyph unicode="v" horiz-adv-x="1150" d="M47 936q-7 20 -7 35q0 44 58 51l164 20q7 1 14 1q52 0 72 -54l254 -704l76 168q100 233 110 258v34q0 117 -12 216q-1 9 -1 16q0 55 63 63l137 21q11 2 21 2q46 0 67 -39q27 -53 27 -119q0 -188 -195 -565l-156 -289q-27 -51 -84 -51h-202q-61 0 -82 57z" />
<glyph unicode="w" horiz-adv-x="1693" d="M45 936q-5 17 -5 31q0 47 60 55l162 20q9 1 17 1q53 0 69 -56l207 -659l55 125q76 168 105 258v32q0 118 -13 218q-1 9 -1 16q0 55 63 63l137 21q11 2 21 1q46 0 67 -38q27 -53 27 -119q0 -39 -8 -78l172 -514l30 70q98 229 121 328v34q0 117 -12 216q-1 9 -1 16 q0 55 62 63l138 21q11 2 21 1q46 0 67 -38q26 -51 26 -114q0 -159 -190 -588l-117 -267q-23 -55 -84 -55h-201q-63 0 -82 59l-118 353l-144 -357q-20 -55 -82 -55h-200q-61 0 -80 59z" />
<glyph unicode="x" horiz-adv-x="1101" d="M64.5 991.5q11.5 26.5 52.5 30.5l184 22q7 1 13 1q48 0 77 -41l227 -328l101 149v138q0 68 65 77l144 21q10 2 20 2q49 0 66 -45q16 -39 16 -84q0 -113 -117 -262l-159 -193l270 -393q16 -24 16 -43q0 -11 -4 -19q-14 -24 -57 -24h-199q-57 0 -88 45l-155 219l-152 -219 q-31 -45 -86 -45h-168q-45 0 -57 26q-4 8 -4 18q0 20 18 44l297 395l-309 449q-23 33 -11.5 59.5z" />
<glyph unicode="y" horiz-adv-x="1153" d="M47 936q-7 20 -7 35q0 44 58 51l172 20q7 1 14 1q50 0 70 -54l242 -713l76 166q20 45 45.5 103.5t42 95.5t31.5 70v32q0 118 -13 218q-1 9 -1 16q0 55 63 63l137 21q11 2 21 2q46 0 67 -39q27 -53 27 -119q0 -182 -195 -565l-283 -535q-68 -135 -159.5 -200.5 t-245.5 -100.5q-11 -2 -21 -2q-45 0 -69 45l-33 62q-10 20 -10 38q0 34 37 58q109 78 209 178q31 41 67 117z" />
<glyph unicode="z" horiz-adv-x="1058" d="M94 975q4 65 74 65h2h668q61 0 82 -55l38 -98q7 -20 7 -38q0 -32 -21 -61l-395 -471l104 -32q102 -31 133 -33q35 8 68 29q20 9 38 9q33 0 58 -32l31 -41q22 -27 22 -55q0 -22 -14 -43q-88 -139 -223 -139q-117 0 -281 92l-100 49l-94 -111q-25 -31 -54 -31q-22 0 -47 19 l-77 57q-34 26 -34 55q0 23 21 48l535 639h-293q-8 -35 -10 -60q-6 -69 -70 -69h-2h-72q-66 0 -77 63q-18 109 -18 198q0 24 1 46z" />
<glyph unicode="{" horiz-adv-x="837" d="M92 516v111q0 57 62 80q190 63 190 284q0 33 -5 115t-5 119q0 307 289 307q59 0 135 -14q59 -14 59 -80v-92q0 -70 -72 -74q-82 -4 -110 -8q-10 -51 -10 -125q0 -35 2 -92.5t2 -83.5q0 -319 -258 -392q258 -72 258 -391q0 -27 -2 -84t-2 -92q0 -76 10 -127q29 -4 110 -8 q72 -4 72 -74v-90q0 -68 -59 -80q-59 -14 -135 -14q-289 0 -289 307q0 37 5 119t5 115q0 221 -190 284q-61 23 -62 80z" />
<glyph unicode="|" horiz-adv-x="677" d="M195 -299v1722q0 68 65 78l148 21q35 4 55 -14.5t20 -53.5v-1753q0 -72 -71 -72h-146q-72 0 -71 72z" />
<glyph unicode="}" horiz-adv-x="837" d="M20 -205q0 70 72 74q82 4 111 8q10 51 10 127q0 35 -2 92.5t-2 83.5q0 319 258 391q-258 72 -258 392q0 27 2 84t2 92q0 74 -10 125q-29 4 -111 8q-72 4 -72 74v92q0 66 60 80q76 14 135 14q289 0 289 -307q0 -37 -6 -119t-6 -115q0 -223 192 -284q61 -23 61 -80v-111 q0 -57 -61 -80q-193 -61 -192 -284q0 -33 6 -115t6 -119q0 -307 -289 -307q-76 0 -135 14q-59 12 -60 80v90z" />
<glyph unicode="&#xa1;" horiz-adv-x="688" d="M160 870q0 47 14 97q14 51 74 61l149 25q57 10 86 -27q45 -63 45 -158q0 -104 -57 -159q-59 -27 -135 -27q-176 0 -176 188zM203 -299v776q0 72 71 72h144q71 0 71 -72v-776q0 -72 -71 -72h-144q-72 0 -71 72z" />
<glyph unicode="&#xa2;" horiz-adv-x="1077" d="M92 520q0 193 87 330t251 186v101q0 68 66 77l145 21q76 10 76 -68v-112q106 -14 205 -60q59 -27 34 -94l-32 -82q-25 -61 -90 -45q-84 23 -181 23q-125 0 -207 -35q-57 -76 -57 -227q0 -291 266 -291q104 0 209 35q68 23 94 -39l27 -64q27 -61 -22 -96 q-106 -72 -246 -92v-101q0 -72 -72 -71h-143q-72 0 -72 71v117q-162 47 -250 182.5t-88 333.5z" />
<glyph unicode="&#xa3;" horiz-adv-x="1304" d="M113 655v70q0 66 61 80l78 20q-29 100 -29 183q0 193 145.5 307.5t383.5 114.5q207 0 354 -87q55 -31 31 -94l-41 -104q-25 -63 -92 -43q-125 41 -242 41q-236 0 -236 -176q0 -53 21 -129h364q72 0 72 -72v-111q0 -72 -72 -71h-303q8 -47 8 -113q0 -61 -8 -111l150 -36 q156 -39 215 -39q10 4 76 37q59 37 98 -21l57 -86q35 -49 6 -98q-86 -137 -235 -137q-109 0 -293 73l-160 64q-31 -59 -80 -111q-45 -47 -100 -8l-121 84q-61 41 -16 100q109 147 108 328q0 29 -4 74h-125q-72 0 -71 71z" />
<glyph unicode="&#xa8;" horiz-adv-x="1177" d="M158 1350q0 31 10 82q14 53 76 63l139 21q61 10 88 -27q41 -59 41 -143q0 -98 -55 -148q-59 -25 -127 -24q-172 0 -172 176zM666 1350q0 37 12 80q14 55 74 65l139 21q61 10 88 -27q41 -59 41 -143q0 -96 -53 -148q-59 -25 -129 -24q-172 0 -172 176z" />
<glyph unicode="&#xa9;" horiz-adv-x="1636" d="M92 707q0 299 213 511t514 212q299 0 512 -212t213 -511q0 -301 -213 -514t-512 -213q-301 0 -514 211.5t-213 515.5zM203 707q0 -262 180 -443.5t436 -181.5q254 0 434.5 181t180.5 444q0 258 -180.5 439t-434.5 181q-256 0 -436 -181t-180 -439zM434 709 q0 188 102.5 301.5t290.5 113.5q137 0 226.5 -63.5t89.5 -159.5q0 -25 -6 -47q-14 -55 -82 -55h-51q-68 0 -72 59q0 35 -6 57q-39 16 -92 17q-76 0 -121 -29q-43 -61 -43 -184q0 -236 202 -236q68 0 142 23q66 23 92 -37l6 -14q29 -63 -25 -97q-111 -68 -251 -67 q-186 0 -294 112.5t-108 305.5z" />
<glyph unicode="&#xaa;" horiz-adv-x="952" d="M92 813q0 131 116 205t343 74h16v12q0 133 -127 133q-66 0 -133 -27q-63 -29 -100 21l-19 22q-46 62 15 101q117 76 276 76q152 0 235 -73t83 -214v-234q0 -66 10 -98q20 -4 37 -4q51 0 51 -53v-70q0 -43 -35 -59q-57 -27 -123 -27q-113 0 -151 96q-102 -96 -248 -96 q-113 0 -179.5 58.5t-66.5 156.5zM328 864q0 -76 98 -76q72 0 141 35v135h-20q-141 0 -209 -40q-10 -27 -10 -54z" />
<glyph unicode="&#xab;" horiz-adv-x="1169" d="M92 479v86q0 45 27 90l153 238q29 45 82 51l158 21q43 6 60 -17.5t-3 -62.5l-180 -363l176 -356q18 -39 4 -61.5t-55 -22.5h-139q-57 0 -86 47l-170 260q-27 41 -27 90zM621 479v86q0 45 26 90l154 238q29 45 82 51l157 21q43 6 60.5 -17.5t-2.5 -62.5l-180 -363 l176 -356q18 -39 3.5 -61.5t-55.5 -22.5h-139q-57 0 -86 47l-170 260q-27 41 -26 90z" />
<glyph unicode="&#xad;" horiz-adv-x="776" d="M57 573v97q0 72 72 71h518q72 1 72 -71v-97q0 -72 -72 -71h-518q-72 0 -72 71z" />
<glyph unicode="&#xae;" horiz-adv-x="1636" d="M92 707q0 299 213 511t514 212q299 0 512 -212t213 -511q0 -301 -213 -514t-512 -213q-301 0 -514 211.5t-213 515.5zM203 707q0 -262 180 -443.5t436 -181.5q254 0 434.5 181t180.5 444q0 258 -180.5 439t-434.5 181q-256 0 -436 -181t-180 -439zM483 383v659 q0 70 72 74q115 8 195 8q184 0 288.5 -69.5t104.5 -194.5q0 -129 -111 -219l31 -61q23 -45 49 -72q16 -4 41 -4q61 -4 61 -72v-43q0 -66 -47 -84q-39 -14 -77 -14q-123 0 -187 123l-57 116h-141v-147q0 -72 -72 -72h-78q-72 0 -72 72zM709 719h143q55 41 55 112 q0 101 -125 101q-33 0 -73 -4v-209z" />
<glyph unicode="&#xb0;" horiz-adv-x="843" d="M92 1100q0 137 95.5 233.5t234.5 96.5q137 0 233.5 -96.5t96.5 -233.5t-96.5 -233.5t-233.5 -96.5q-139 0 -234.5 96.5t-95.5 233.5zM297 1099.5q0 -57.5 37 -97t90 -39.5q51 0 88 39.5t37 97t-37 97.5t-88 40q-53 0 -90 -40t-37 -97.5z" />
<glyph unicode="&#xb2;" horiz-adv-x="823" d="M102 1598.5q0 27.5 27 48.5q113 80 274 79q156 0 231 -68.5t75 -164.5q0 -92 -64.5 -179t-202.5 -216h217q72 0 72 -72v-41q0 -72 -72 -72h-462q-63 0 -78 45l-10 33q-14 47 26 86l58 53q25 23 62.5 58t59 55.5t51 48t46 47t32 42t22.5 42t7 37.5q0 74 -102 74 q-57 0 -119 -29q-59 -29 -92 6l-33 35q-25 25 -25 52.5z" />
<glyph unicode="&#xb3;" horiz-adv-x="784" d="M106 1042l23 37q31 51 98 29q60 -25 123 -25q106 0 107 70q0 72 -105 72q-35 0 -48 11t-13 38v76q0 27 10 38t39 11q49 0 72.5 20.5t23.5 50.5q0 66 -98 66q-51 0 -96 -18q-51 -18 -84 14l-39 39q-47 47 4 86q106 72 248 72q135 0 218 -60.5t83 -161.5q0 -125 -113 -188 q133 -57 133 -189q0 -115 -93 -175t-230 -60q-129 0 -240 49q-66 31 -23 98z" />
<glyph unicode="&#xb4;" horiz-adv-x="1177" d="M276 1206q-27 51 29 90l285 203q42 31 108 23q102 -12 160 -45q47 -20 47 -72v-16q0 -57 -57 -78l-467 -160q-63 -23 -90 29z" />
<glyph unicode="&#xb7;" horiz-adv-x="614" d="M123 674q0 47 14 96q14 51 74 61l149 25q57 10 86 -27q45 -63 46 -157q0 -104 -58 -160q-59 -27 -135 -27q-176 0 -176 189z" />
<glyph unicode="&#xb8;" horiz-adv-x="1177" d="M354 -408l6 37q12 72 86 56q86 -16 181 -17q14 23 14 47q0 53 -94 70q-41 6 -56.5 20.5t-15.5 47.5v161h197v-123q72 0 122 -46t50 -124q0 -94 -77 -161.5t-228 -67.5q-68 0 -131 14q-68 14 -54 86z" />
<glyph unicode="&#xb9;" horiz-adv-x="522" d="M-31 1559v30q0 66 64 78l200 39h101q72 0 72 -72v-649q0 -72 -72 -72h-86q-72 0 -72 72v502h-135q-72 0 -72 72z" />
<glyph unicode="&#xba;" horiz-adv-x="987" d="M92 1020q0 188 103.5 299t298.5 111q193 0 297 -112t104 -300q0 -193 -104.5 -306.5t-296.5 -113.5q-195 0 -298.5 113.5t-103.5 308.5zM328 1014q0 -223 170 -223q74 0 123 28q39 68 38 197q0 221 -172 221q-70 0 -118 -29q-41 -63 -41 -194z" />
<glyph unicode="&#xbb;" horiz-adv-x="1220" d="M67.5 104.5q-14.5 22.5 4.5 61.5l176 356l-168 340q-37 76 45 88l125 21q57 8 92 -41l176 -275q27 -45 27 -90v-86q0 -49 -27 -90l-170 -260q-29 -47 -86 -47h-139q-41 0 -55.5 22.5zM651.5 104.5q-14.5 22.5 3.5 61.5l176 356l-167 340q-37 76 45 88l125 21q57 8 92 -41 l176 -275q27 -45 26 -90v-86q0 -49 -26 -90l-170 -260q-29 -47 -86 -47h-139q-41 0 -55.5 22.5z" />
<glyph unicode="&#xbf;" horiz-adv-x="1128" d="M123 -53q0 78 31.5 147.5t60.5 102t90 94.5l14 14q74 74 102 112t28 85t47 47h192q47 0 47 -51q0 -219 -235 -406q-33 -27 -47.5 -39t-28.5 -35.5t-14 -48.5q0 -53 48 -74.5t146 -21.5q90 0 133 18q0 2 3 44t5 67q4 72 72 72h107q63 0 84 -51q18 -46 18 -101 q0 -139 -125 -226t-328 -87q-211 0 -330.5 87t-119.5 251zM399 870q0 49 15 95q14 53 75 63l148 25q59 10 88 -27q43 -63 43 -158q0 -104 -57 -159q-59 -27 -133 -27q-178 0 -179 188z" />
<glyph unicode="&#xc0;" horiz-adv-x="1460" d="M51 82l473 1272q23 57 80 59l254 12q61 4 82 -55l469 -1288q14 -39 -1 -60.5t-56 -21.5h-187q-61 0 -82 57l-104 281h-518l-103 -281q-20 -57 -82 -57h-167q-41 0 -56.5 21.5t-1.5 60.5zM414 1757v17q0 46 47 71q57 33 160 45q66 8 108 -22l285 -203q55 -39 28 -90 l-14 -27q-27 -51 -90 -28l-467 159q-57 20 -57 78zM563 614h316l-158 428z" />
<glyph unicode="&#xc1;" horiz-adv-x="1460" d="M51 82l473 1272q23 57 80 59l254 12q61 4 82 -55l469 -1288q14 -39 -1 -60.5t-56 -21.5h-187q-61 0 -82 57l-104 281h-518l-103 -281q-20 -57 -82 -57h-167q-41 0 -56.5 21.5t-1.5 60.5zM446 1575q-27 51 29 90l285 203q42 30 108 22q102 -12 160 -45q47 -20 47 -71v-17 q0 -57 -57 -78l-467 -159q-63 -23 -90 28zM563 614h316l-158 428z" />
<glyph unicode="&#xc2;" horiz-adv-x="1460" d="M51 82l473 1272q23 57 80 59l254 12q61 4 82 -55l469 -1288q14 -39 -1 -60.5t-56 -21.5h-187q-61 0 -82 57l-104 281h-518l-103 -281q-20 -57 -82 -57h-167q-41 0 -56.5 21.5t-1.5 60.5zM352 1571q-35 57 17 100l237 195q37 31 88 30h84q49 1 88 -32l236 -193 q53 -43 16 -100l-4 -8q-35 -57 -98 -27l-279 127l-280 -127q-63 -31 -99 27zM563 614h316l-158 428z" />
<glyph unicode="&#xc3;" horiz-adv-x="1460" d="M51 82l473 1272q23 57 80 59l254 12q61 4 82 -55l469 -1288q14 -39 -1 -60.5t-56 -21.5h-187q-61 0 -82 57l-104 281h-518l-103 -281q-20 -57 -82 -57h-167q-41 0 -56.5 21.5t-1.5 60.5zM313 1669q134 225 265 225q66 0 147 -47l178 -96l127 102q51 43 100 2l13 -10 q51 -41 20 -98q-131 -227 -264 -227q-66 0 -147 47l-181 96l-125 -100q-51 -43 -100 -2l-12 10q-51 41 -21 98zM563 614h316l-158 428z" />
<glyph unicode="&#xc6;" horiz-adv-x="2064" d="M63.5 24.5q-14.5 24.5 6.5 61.5l714 1274q27 49 86 49h977q72 0 72 -72v-133q0 -72 -72 -71h-569v-295h473q72 0 72 -72v-115q0 -72 -72 -71h-473v-304h602q72 0 72 -71v-133q0 -72 -72 -72h-827q-72 0 -72 72v288h-440l-174 -311q-27 -49 -86 -49h-162q-41 0 -55.5 24.5 zM692 629h289v514z" />
<glyph unicode="&#xc7;" horiz-adv-x="1359" d="M123 707q0 326 166 524.5t473 198.5q233 0 360 -96.5t127 -254.5q0 -70 -30 -145q-23 -47 -84 -47h-103q-68 0 -71 71q0 88 -15 160q-84 25 -180 25q-141 0 -238 -51q-41 -51 -71.5 -151.5t-30.5 -213.5q0 -213 93 -337t292 -124q137 0 281 56q66 25 94 -33l51 -101 q31 -61 -25 -96q-162 -96 -368 -110v-91q72 0 122 -46t50 -124q0 -94 -77 -161.5t-228 -67.5q-68 0 -131 14q-68 14 -54 86l6 37q12 72 86 56q86 -16 181 -17q14 23 14 47q0 53 -94 70q-41 6 -56.5 20.5t-15.5 47.5v137q-250 39 -387 227.5t-137 489.5z" />
<glyph unicode="&#xc8;" horiz-adv-x="1277" d="M195 72v1265q0 72 71 72h795q72 0 72 -72v-133q0 -72 -72 -71h-567v-295h471q72 0 71 -72v-115q0 -72 -71 -71h-471v-304h600q72 0 71 -71v-133q0 -72 -71 -72h-828q-72 0 -71 72zM381 1757v17q0 46 47 71q57 33 160 45q66 8 108 -22l285 -203q55 -39 29 -90l-15 -27 q-27 -51 -90 -28l-467 159q-57 20 -57 78z" />
<glyph unicode="&#xc9;" horiz-adv-x="1277" d="M195 72v1265q0 72 71 72h795q72 0 72 -72v-133q0 -72 -72 -71h-567v-295h471q72 0 71 -72v-115q0 -72 -71 -71h-471v-304h600q72 0 71 -71v-133q0 -72 -71 -72h-828q-72 0 -71 72zM414 1575q-27 51 28 90l285 203q43 30 109 22q102 -12 159 -45q47 -20 47 -71v-17 q0 -57 -57 -78l-467 -159q-63 -23 -90 28z" />
<glyph unicode="&#xca;" horiz-adv-x="1277" d="M195 72v1265q0 72 71 72h795q72 0 72 -72v-133q0 -72 -72 -71h-567v-295h471q72 0 71 -72v-115q0 -72 -71 -71h-471v-304h600q72 0 71 -71v-133q0 -72 -71 -72h-828q-72 0 -71 72zM287 1571q-35 57 16 100l238 195q37 31 88 30h84q49 1 88 -32l235 -193q53 -43 17 -100 l-4 -8q-35 -57 -99 -27l-278 127l-281 -127q-63 -31 -98 27z" />
<glyph unicode="&#xcb;" horiz-adv-x="1277" d="M195 72v1265q0 72 71 72h795q72 0 72 -72v-133q0 -72 -72 -71h-567v-295h471q72 0 71 -72v-115q0 -72 -71 -71h-471v-304h600q72 0 71 -71v-133q0 -72 -71 -72h-828q-72 0 -71 72zM240 1718q0 31 10 82q14 53 76 64l139 20q61 11 88 -26q41 -59 41 -144q0 -98 -55 -147 q-59 -25 -127 -25q-172 0 -172 176zM748 1718q0 37 12 80q14 55 74 66l139 20q61 11 88 -26q41 -59 41 -144q0 -96 -53 -147q-59 -25 -129 -25q-172 0 -172 176z" />
<glyph unicode="&#xcd;" horiz-adv-x="688" d="M102 1573q-29 49 23 92l246 199q45 38 92 24q49 -12 94 -39q43 -27 43 -80v-16q0 -53 -53 -78l-336 -151q-59 -29 -92 22zM195 72v1265q0 72 71 72h156q72 0 72 -72v-1265q0 -72 -72 -72h-156q-72 0 -71 72z" />
<glyph unicode="&#xcf;" horiz-adv-x="688" d="M-37 1718q0 35 12 82q14 55 74 66l115 18q61 11 86 -26q37 -57 37 -144q0 -96 -51 -147q-51 -25 -115 -25q-158 0 -158 176zM195 72v1265q0 72 71 72h156q72 0 72 -72v-1265q0 -72 -72 -72h-156q-72 0 -71 72zM399 1718q0 33 11 80q12 57 73 68l115 18q61 11 86 -26 q39 -61 39 -144q0 -94 -53 -147q-51 -25 -113 -25q-158 0 -158 176z" />
<glyph unicode="&#xd1;" horiz-adv-x="1546" d="M195 72v1267q0 68 69 74l164 12q59 4 88 -43l547 -823v778q0 72 72 72h145q72 0 72 -72v-1265q0 -72 -72 -72h-162q-55 0 -86 45l-547 807v-780q0 -72 -71 -72h-148q-72 0 -71 72zM395 1669q133 225 264 225q66 0 148 -47l178 -96l127 102q51 43 100 2l13 -10 q51 -41 20 -98q-131 -227 -264 -227q-66 0 -147 47l-181 96l-125 -100q-51 -43 -100 -2l-12 10q-51 41 -21 98z" />
<glyph unicode="&#xd3;" horiz-adv-x="1552" d="M123 713q0 326 169 521.5t482 195.5q311 0 482 -197t171 -522q0 -332 -171 -531.5t-482 -199.5q-313 0 -482 199.5t-169 533.5zM426 707q0 -440 369 -441q119 0 221 56q45 57 76.5 160.5t31.5 217.5q0 219 -86.5 331t-281.5 112q-127 0 -221 -56q-109 -162 -109 -380z M494 1575q-27 51 28 90l285 203q42 30 108 22q102 -12 160 -45q47 -20 47 -71v-17q0 -57 -57 -78l-467 -159q-63 -23 -90 28z" />
<glyph unicode="&#xd4;" horiz-adv-x="1552" d="M123 713q0 326 169 521.5t482 195.5q311 0 482 -197t171 -522q0 -332 -171 -531.5t-482 -199.5q-313 0 -482 199.5t-169 533.5zM399 1571q-35 57 17 100l237 195q37 31 88 30h84q49 1 88 -32l236 -193q53 -43 16 -100l-4 -8q-35 -57 -98 -27l-279 127l-280 -127 q-63 -31 -98 27zM426 707q0 -440 369 -441q119 0 221 56q45 57 76.5 160.5t31.5 217.5q0 219 -86.5 331t-281.5 112q-127 0 -221 -56q-109 -162 -109 -380z" />
<glyph unicode="&#xd5;" horiz-adv-x="1552" d="M123 713q0 326 169 521.5t482 195.5q311 0 482 -197t171 -522q0 -332 -171 -531.5t-482 -199.5q-313 0 -482 199.5t-169 533.5zM360 1669q134 225 265 225q66 0 147 -47l178 -96l127 102q51 43 101 2l12 -10q51 -41 20 -98q-131 -227 -264 -227q-66 0 -147 47l-181 96 l-124 -100q-51 -43 -101 -2l-12 10q-51 41 -21 98zM426 707q0 -440 369 -441q119 0 221 56q45 57 76.5 160.5t31.5 217.5q0 219 -86.5 331t-281.5 112q-127 0 -221 -56q-109 -162 -109 -380z" />
<glyph unicode="&#xd6;" horiz-adv-x="1550" d="M123 713q0 326 169 521.5t482 195.5q311 0 482 -197t171 -522q0 -332 -171 -531.5t-482 -199.5q-313 0 -482 199.5t-169 533.5zM352 1718q0 31 10 82q14 53 76 64l140 20q61 11 88 -26q41 -59 41 -144q0 -98 -56 -147q-59 -25 -127 -25q-172 0 -172 176zM426 707 q0 -440 369 -441q119 0 221 56q45 57 76.5 160.5t31.5 217.5q0 219 -86.5 331t-281.5 112q-127 0 -221 -56q-109 -162 -109 -380zM860 1718q0 37 12 80q14 55 74 66l139 20q62 11 89 -26q41 -59 40 -144q0 -96 -53 -147q-59 -25 -129 -25q-172 0 -172 176z" />
<glyph unicode="&#xd7;" horiz-adv-x="1079" d="M113 373q-51 49 0 100l252 244l-252 241q-51 49 0 101l69 69q51 51 101 0l256 -245l256 245q51 51 102 0l70 -69q49 -51 -2 -103l-252 -239l252 -242q51 -53 2 -102l-70 -70q-51 -51 -102 0l-256 246l-256 -246q-49 -49 -101 0z" />
<glyph unicode="&#xda;" horiz-adv-x="1548" d="M184 541v796q0 72 72 72h154q71 0 71 -72v-737q0 -176 76 -255t225 -79q143 0 213 81t70 253v737q0 72 72 72h155q72 0 72 -72v-796q0 -279 -164 -420t-428 -141q-262 0 -425 142t-163 419zM514 1575q-27 51 29 90l284 203q43 30 109 22q102 -12 160 -45q47 -20 47 -71 v-17q0 -57 -58 -78l-467 -159q-63 -23 -90 28z" />
<glyph unicode="&#xdc;" horiz-adv-x="1548" d="M184 541v796q0 72 72 72h154q71 0 71 -72v-737q0 -176 76 -255t225 -79q143 0 213 81t70 253v737q0 72 72 72h155q72 0 72 -72v-796q0 -279 -164 -420t-428 -141q-262 0 -425 142t-163 419zM354 1718q0 31 11 82q14 53 75 64l140 20q61 11 88 -26q41 -59 41 -144 q0 -98 -56 -147q-59 -25 -127 -25q-172 0 -172 176zM862 1718q0 37 12 80q14 55 74 66l139 20q62 11 89 -26q41 -59 41 -144q0 -96 -54 -147q-59 -25 -129 -25q-172 0 -172 176z" />
<glyph unicode="&#xe0;" horiz-adv-x="1191" d="M92 262q0 162 151.5 256t444.5 94h25v6q0 98 -39 138.5t-139 40.5q-74 0 -117 -19q-4 -25 -6 -41q-6 -70 -72 -69h-104q-68 0 -84 49q-8 27 -9 59q0 125 121 205t316 80q203 0 311 -95.5t108 -283.5v-274q0 -88 13 -129q20 -4 49 -7q70 -6 69 -73v-101q0 -61 -47 -84 q-70 -35 -151 -34q-145 0 -197 131q-135 -131 -325 -131q-145 0 -231.5 76.5t-86.5 205.5zM276 1389v16q1 47 48 72q57 33 159 45q66 8 109 -23l285 -203q55 -39 28 -90l-14 -26q-27 -51 -90 -29l-467 160q-57 20 -58 78zM387 328q0 -92 133 -92q90 0 193 45v157 q-10 2 -31 2q-184 0 -281 -51q-14 -32 -14 -61z" />
<glyph unicode="&#xe1;" horiz-adv-x="1191" d="M92 262q0 162 151.5 256t444.5 94h25v6q0 98 -39 138.5t-139 40.5q-74 0 -117 -19q-4 -25 -6 -41q-6 -70 -72 -69h-104q-68 0 -84 49q-8 27 -9 59q0 125 121 205t316 80q203 0 311 -95.5t108 -283.5v-274q0 -88 13 -129q20 -4 49 -7q70 -6 69 -73v-101q0 -61 -47 -84 q-70 -35 -151 -34q-145 0 -197 131q-135 -131 -325 -131q-145 0 -231.5 76.5t-86.5 205.5zM309 1206q-27 51 29 90l285 203q42 31 108 23q102 -12 160 -45q47 -20 47 -72v-16q0 -57 -57 -78l-467 -160q-63 -23 -90 29zM387 328q0 -92 133 -92q90 0 193 45v157q-10 2 -31 2 q-184 0 -281 -51q-14 -32 -14 -61z" />
<glyph unicode="&#xe2;" horiz-adv-x="1191" d="M92 262q0 162 151.5 256t444.5 94h25v6q0 98 -39 138.5t-139 40.5q-74 0 -117 -19q-4 -25 -6 -41q-6 -70 -72 -69h-104q-68 0 -84 49q-8 27 -9 59q0 125 121 205t316 80q203 0 311 -95.5t108 -283.5v-274q0 -88 13 -129q20 -4 49 -7q70 -6 69 -73v-101q0 -61 -47 -84 q-70 -35 -151 -34q-145 0 -197 131q-135 -131 -325 -131q-145 0 -231.5 76.5t-86.5 205.5zM215 1202q-35 57 16 101l238 194q37 31 88 31h84q49 0 88 -33l236 -192q53 -43 16 -101l-4 -8q-35 -57 -98 -27l-279 127l-281 -127q-63 -31 -98 27zM387 328q0 -92 133 -92 q90 0 193 45v157q-10 2 -31 2q-184 0 -281 -51q-14 -32 -14 -61z" />
<glyph unicode="&#xe3;" horiz-adv-x="1191" d="M92 262q0 162 151.5 256t444.5 94h25v6q0 98 -39 138.5t-139 40.5q-74 0 -117 -19q-4 -25 -6 -41q-6 -70 -72 -69h-104q-68 0 -84 49q-8 27 -9 59q0 125 121 205t316 80q203 0 311 -95.5t108 -283.5v-274q0 -88 13 -129q20 -4 49 -7q70 -6 69 -73v-101q0 -61 -47 -84 q-70 -35 -151 -34q-145 0 -197 131q-135 -131 -325 -131q-145 0 -231.5 76.5t-86.5 205.5zM176 1300q133 226 264 226q66 0 148 -47l178 -97l127 103q51 43 100 2l13 -10q51 -41 20 -99q-131 -227 -264 -227q-66 0 -148 47l-180 96l-125 -100q-51 -43 -100 -2l-12 10 q-51 41 -21 98zM387 328q0 -92 133 -92q90 0 193 45v157q-10 2 -31 2q-184 0 -281 -51q-14 -32 -14 -61z" />
<glyph unicode="&#xe6;" horiz-adv-x="1734" d="M92 262q0 162 151.5 255t444.5 95h25v6q0 98 -39 138.5t-139 40.5q-88 0 -138 -19q-8 -61 -6 -110h-217q-35 47 -35 108q0 123 126.5 204t316.5 81q217 0 315 -119q119 119 317 119q201 0 314.5 -113.5t113.5 -298.5q0 -63 -18 -143q-14 -61 -80 -62l-536 -10 q39 -190 262 -190q102 0 207 35q68 23 94 -39l28 -64q27 -61 -24 -96q-152 -106 -352 -100q-264 6 -392 174q-94 -90 -186 -132t-223 -42q-143 0 -236.5 77.5t-93.5 204.5zM387 330q0 -47 35 -76t94 -29q119 0 229 72q-22 67 -28 141h-35q-188 0 -281 -49q-14 -33 -14 -59z M1006 606l356 15q2 14 2 41q0 135 -162 135q-92 0 -145 -35q-41 -59 -51 -156z" />
<glyph unicode="&#xe7;" horiz-adv-x="1093" d="M92 520q0 244 133 392.5t377 148.5q178 0 293 -85t115 -216q0 -43 -13 -80q-16 -53 -84 -53h-98q-70 0 -74 71q-4 59 -8 78q-55 20 -125 21q-96 0 -162 -35q-57 -76 -57 -227q0 -291 266 -291q104 0 209 35q68 23 94 -39l27 -64q27 -61 -22 -96q-106 -72 -258 -94v-95 q72 0 122 -46t50 -124q0 -94 -77 -161.5t-229 -67.5q-66 0 -131 14q-68 14 -53 86l6 37q12 72 86 56q86 -16 180 -17q14 23 15 47q0 53 -94 70q-41 6 -56.5 20.5t-15.5 47.5v133q-197 29 -306.5 170t-109.5 364z" />
<glyph unicode="&#xe8;" horiz-adv-x="1122" d="M92 518q0 244 133 393.5t377 149.5q201 0 314.5 -113.5t113.5 -298.5q0 -68 -18 -143q-14 -57 -80 -62l-533 -14q39 -186 256 -186q104 0 209 35q68 23 94 -39l27 -64q27 -61 -22 -96q-152 -100 -353 -100q-242 0 -380 145t-138 393zM264 1389v16q0 47 47 72 q57 33 160 45q66 8 109 -23l284 -203q55 -39 29 -90l-14 -26q-27 -51 -91 -29l-466 160q-57 20 -58 78zM393 602l357 16q2 14 2 44q0 135 -158 135q-82 0 -148 -35q-41 -57 -53 -160z" />
<glyph unicode="&#xe9;" horiz-adv-x="1122" d="M92 518q0 244 133 393.5t377 149.5q201 0 314.5 -113.5t113.5 -298.5q0 -68 -18 -143q-14 -57 -80 -62l-533 -14q39 -186 256 -186q104 0 209 35q68 23 94 -39l27 -64q27 -61 -22 -96q-152 -100 -353 -100q-242 0 -380 145t-138 393zM297 1206q-27 51 29 90l284 203 q43 31 109 23q102 -12 160 -45q47 -20 47 -72v-16q0 -57 -58 -78l-467 -160q-63 -23 -90 29zM393 602l357 16q2 14 2 44q0 135 -158 135q-82 0 -148 -35q-41 -57 -53 -160z" />
<glyph unicode="&#xea;" horiz-adv-x="1122" d="M92 518q0 244 133 393.5t377 149.5q201 0 314.5 -113.5t113.5 -298.5q0 -68 -18 -143q-14 -57 -80 -62l-533 -14q39 -186 256 -186q104 0 209 35q68 23 94 -39l27 -64q27 -61 -22 -96q-152 -100 -353 -100q-242 0 -380 145t-138 393zM209 1202q-35 57 16 101l238 194 q37 31 88 31h84q49 0 88 -33l235 -192q53 -43 17 -101l-4 -8q-35 -57 -99 -27l-278 127l-281 -127q-63 -31 -98 27zM393 602l357 16q2 14 2 44q0 135 -158 135q-82 0 -148 -35q-41 -57 -53 -160z" />
<glyph unicode="&#xeb;" horiz-adv-x="1122" d="M92 518q0 244 133 393.5t377 149.5q201 0 314.5 -113.5t113.5 -298.5q0 -68 -18 -143q-14 -57 -80 -62l-533 -14q39 -186 256 -186q104 0 209 35q68 23 94 -39l27 -64q27 -61 -22 -96q-152 -100 -353 -100q-242 0 -380 145t-138 393zM162 1350q0 31 10 82q14 53 76 63 l139 21q61 10 88 -27q41 -59 41 -143q0 -98 -55 -148q-59 -25 -127 -24q-172 0 -172 176zM393 602l357 16q2 14 2 44q0 135 -158 135q-82 0 -148 -35q-41 -57 -53 -160zM670 1350q0 37 12 80q14 55 74 65l139 21q61 10 88 -27q41 -59 41 -143q0 -96 -53 -148 q-59 -25 -129 -24q-172 0 -172 176z" />
<glyph unicode="&#xed;" horiz-adv-x="626" d="M68 1204q-29 49 22 92l246 199q45 39 92 25q49 -12 94 -39q43 -27 43 -80v-17q0 -53 -53 -77l-336 -152q-59 -29 -92 23zM147 250v719q0 72 72 71h143q72 1 72 -71v-561q0 -88 12 -129q20 -4 50 -7q70 -6 69 -73v-101q0 -61 -47 -84q-70 -35 -149 -34q-221 0 -222 270z " />
<glyph unicode="&#xef;" horiz-adv-x="626" d="M-72 1350q0 35 13 82q14 55 73 65l115 19q61 10 86 -27q37 -59 37 -143q0 -96 -51 -148q-51 -25 -115 -24q-158 0 -158 176zM147 250v719q0 72 72 71h143q72 1 72 -71v-561q0 -88 12 -129q20 -4 50 -7q70 -6 69 -73v-101q0 -61 -47 -84q-70 -35 -149 -34q-221 0 -222 270 zM365 1350q0 33 10 80q12 57 74 67l114 19q61 10 86 -27q39 -61 39 -143q0 -94 -53 -148q-51 -25 -113 -24q-158 0 -157 176z" />
<glyph unicode="&#xf1;" horiz-adv-x="1327" d="M111 850q-35 59 14 98l94 78q49 43 94 12q66 -43 93 -118q141 141 344 141q166 0 275.5 -97.5t109.5 -277.5v-278q0 -76 12 -129q18 -6 49 -7q70 0 70 -73v-101q0 -61 -47 -84q-70 -35 -152 -34q-104 0 -162.5 66.5t-58.5 203.5v305q0 131 -49 186.5t-160 55.5 q-104 0 -199 -37q6 -43 6 -96v-592q0 -72 -71 -72h-144q-72 0 -71 72v553q0 135 -47 225zM238 1300q133 226 264 226q66 0 147 -47l178 -97l127 103q51 43 101 2l12 -10q51 -41 20 -99q-131 -227 -264 -227q-66 0 -147 47l-180 96l-125 -100q-51 -43 -101 -2l-12 10 q-51 41 -20 98z" />
<glyph unicode="&#xf3;" d="M92 526q0 244 136 389.5t388 145.5q250 0 386.5 -146.5t136.5 -390.5q0 -248 -136.5 -396t-386.5 -148q-252 0 -388 148t-136 398zM328 1206q-27 51 28 90l285 203q43 31 109 23q102 -12 159 -45q47 -20 47 -72v-16q0 -57 -57 -78l-467 -160q-63 -23 -90 29zM389 518 q0 -274 234 -274q94 0 161 35q57 86 58 243q-1 275 -234 275q-92 0 -159 -35q-59 -78 -60 -244z" />
<glyph unicode="&#xf4;" d="M92 526q0 244 136 389.5t388 145.5q250 0 386.5 -146.5t136.5 -390.5q0 -248 -136.5 -396t-386.5 -148q-252 0 -388 148t-136 398zM233 1202q-35 57 17 101l237 194q37 31 88 31h84q50 0 89 -33l235 -192q53 -43 16 -101l-4 -8q-35 -57 -98 -27l-279 127l-280 -127 q-63 -31 -98 27zM389 518q0 -274 234 -274q94 0 161 35q57 86 58 243q-1 275 -234 275q-92 0 -159 -35q-59 -78 -60 -244z" />
<glyph unicode="&#xf5;" d="M92 526q0 244 136 389.5t388 145.5q250 0 386.5 -146.5t136.5 -390.5q0 -248 -136.5 -396t-386.5 -148q-252 0 -388 148t-136 398zM195 1300q133 226 264 226q66 0 147 -47l178 -97l127 103q51 43 101 2l12 -10q51 -41 20 -99q-131 -227 -264 -227q-66 0 -147 47l-180 96 l-125 -100q-51 -43 -101 -2l-12 10q-51 41 -20 98zM389 518q0 -274 234 -274q94 0 161 35q57 86 58 243q-1 275 -234 275q-92 0 -159 -35q-59 -78 -60 -244z" />
<glyph unicode="&#xf6;" d="M92 526q0 244 136 389.5t388 145.5q250 0 386.5 -146.5t136.5 -390.5q0 -248 -136.5 -396t-386.5 -148q-252 0 -388 148t-136 398zM193 1350q0 31 10 82q14 53 76 63l139 21q61 10 88 -27q41 -59 41 -143q0 -98 -55 -148q-59 -25 -127 -24q-172 0 -172 176zM389 518 q0 -274 234 -274q94 0 161 35q57 86 58 243q-1 275 -234 275q-92 0 -159 -35q-59 -78 -60 -244zM700 1350q0 37 13 80q14 55 73 65l140 21q61 10 88 -27q41 -59 41 -143q0 -96 -54 -148q-59 -25 -129 -24q-172 0 -172 176z" />
<glyph unicode="&#xf7;" horiz-adv-x="1097" d="M57 668v96q0 72 72 72h840q71 0 71 -72v-96q0 -72 -71 -72h-840q-72 0 -72 72zM365 223q0 47 14 96q14 51 74 62l149 25q57 10 86 -27q45 -63 45 -158q0 -104 -57 -160q-59 -27 -133 -26q-178 0 -178 188zM365 1190q0 47 14 96q14 51 74 62l149 24q57 11 86 -26 q45 -63 45 -158q0 -104 -57 -160q-59 -27 -133 -27q-178 0 -178 189z" />
<glyph unicode="&#xfa;" horiz-adv-x="1314" d="M154 354v615q0 72 71 71h146q71 1 71 -71v-484q0 -131 49.5 -186t155.5 -55q98 0 191 35v690q0 72 71 71h144q72 0 71 -71v-561q0 -88 13 -129q16 -2 47 -7q70 -6 69 -73v-101q0 -61 -45 -86q-72 -33 -149 -32q-152 0 -199 126q-141 -127 -325 -126q-166 0 -273.5 97 t-107.5 277zM340 1206q-27 51 29 90l284 203q43 31 109 23q102 -12 160 -45q47 -20 47 -72v-16q0 -57 -58 -78l-467 -160q-63 -23 -90 29z" />
<glyph unicode="&#xfc;" horiz-adv-x="1314" d="M154 354v615q0 72 71 71h146q71 1 71 -71v-484q0 -131 49.5 -186t155.5 -55q98 0 191 35v690q0 72 71 71h144q72 0 71 -71v-561q0 -88 13 -129q16 -2 47 -7q70 -6 69 -73v-101q0 -61 -45 -86q-72 -33 -149 -32q-152 0 -199 126q-141 -127 -325 -126q-166 0 -273.5 97 t-107.5 277zM229 1350q0 31 11 82q14 53 75 63l140 21q61 10 88 -27q41 -59 41 -143q0 -98 -56 -148q-59 -25 -127 -24q-172 0 -172 176zM737 1350q0 37 13 80q14 55 73 65l140 21q61 10 88 -27q41 -59 41 -143q0 -96 -54 -148q-59 -25 -129 -24q-172 0 -172 176z" />
<glyph unicode="&#x152;" horiz-adv-x="2138" d="M123 707q0 332 174 527.5t510 195.5q113 0 252 -21h862q72 0 72 -72v-133q0 -72 -72 -71h-569v-295h473q72 0 71 -72v-115q0 -72 -71 -71h-473v-304h602q72 0 71 -71v-133q1 -72 -71 -72h-895q-139 -20 -256 -20q-344 0 -512 195.5t-168 531.5zM426 690q0 -424 399 -424 q102 0 230 23v829q-104 25 -244 25q-182 0 -276 -56q-109 -161 -109 -397z" />
<glyph unicode="&#x153;" horiz-adv-x="1871" d="M92 526q0 244 136 389.5t386 145.5q233 0 373 -129q139 129 363 129q203 0 316.5 -113.5t113.5 -298.5q0 -63 -19 -143q-14 -57 -80 -62l-534 -14q39 -186 258 -186q106 0 207 35q68 23 94 -39l29 -64q29 -59 -23 -96q-152 -100 -352 -100q-233 0 -379 153 q-137 -154 -367 -153q-250 0 -386 148t-136 398zM389 518q0 -274 234 -274q94 0 161 35q57 86 58 243q-1 275 -234 275q-92 0 -159 -35q-59 -78 -60 -244zM1141 602l356 16q2 14 2 44q0 135 -156 135q-86 0 -149 -35q-43 -57 -53 -160z" />
<glyph unicode="&#x2c6;" horiz-adv-x="1177" d="M205 1202q-35 57 16 101l238 194q37 31 88 31h84q49 0 88 -33l235 -192q53 -43 17 -101l-4 -8q-35 -57 -99 -27l-278 127l-281 -127q-63 -31 -98 27z" />
<glyph unicode="&#x2dc;" horiz-adv-x="1177" d="M166 1300q133 226 264 226q66 0 148 -47l178 -97l127 103q51 43 100 2l12 -10q51 -41 21 -99q-131 -227 -264 -227q-66 0 -148 47l-180 96l-125 -100q-51 -43 -100 -2l-13 10q-51 41 -20 98z" />
<glyph unicode="&#x2000;" horiz-adv-x="948" />
<glyph unicode="&#x2001;" horiz-adv-x="1896" />
<glyph unicode="&#x2002;" horiz-adv-x="948" />
<glyph unicode="&#x2003;" horiz-adv-x="1896" />
<glyph unicode="&#x2004;" horiz-adv-x="632" />
<glyph unicode="&#x2005;" horiz-adv-x="474" />
<glyph unicode="&#x2006;" horiz-adv-x="316" />
<glyph unicode="&#x2007;" horiz-adv-x="316" />
<glyph unicode="&#x2008;" horiz-adv-x="237" />
<glyph unicode="&#x2009;" horiz-adv-x="379" />
<glyph unicode="&#x200a;" horiz-adv-x="105" />
<glyph unicode="&#x2010;" horiz-adv-x="776" d="M57 573v97q0 72 72 71h518q72 1 72 -71v-97q0 -72 -72 -71h-518q-72 0 -72 71z" />
<glyph unicode="&#x2011;" horiz-adv-x="776" d="M57 573v97q0 72 72 71h518q72 1 72 -71v-97q0 -72 -72 -71h-518q-72 0 -72 71z" />
<glyph unicode="&#x2012;" horiz-adv-x="776" d="M57 573v97q0 72 72 71h518q72 1 72 -71v-97q0 -72 -72 -71h-518q-72 0 -72 71z" />
<glyph unicode="&#x2013;" horiz-adv-x="1140" d="M57 573v97q0 72 72 71h883q71 1 71 -71v-97q0 -72 -71 -71h-883q-72 0 -72 71z" />
<glyph unicode="&#x2014;" horiz-adv-x="1875" d="M57 573v97q0 72 72 71h1618q72 1 72 -71v-97q0 -72 -72 -71h-1618q-72 0 -72 71z" />
<glyph unicode="&#x2018;" horiz-adv-x="593" d="M123 1094q0 92 48 199.5t167 199.5q53 43 102 -6l35 -35q41 -39 12 -98q-74 -150 -41 -359q10 -72 -57 -84l-137 -20q-57 -11 -80 20q-49 68 -49 183z" />
<glyph unicode="&#x2019;" horiz-adv-x="595" d="M106 1061q72 150 44 358q-10 72 57 84l135 21q57 10 80 -21q51 -70 51 -182q0 -92 -48 -199.5t-167 -199.5q-53 -43 -102 6l-37 35q-41 41 -13 98z" />
<glyph unicode="&#x201c;" horiz-adv-x="1085" d="M123 1094q0 92 48 199.5t167 199.5q53 43 102 -6l35 -35q41 -39 12 -98q-74 -150 -41 -359q10 -72 -57 -84l-137 -20q-57 -11 -80 20q-49 68 -49 183zM614 1094q0 92 47.5 199.5t165.5 199.5q53 43 103 -6l37 -35q41 -39 12 -98q-74 -154 -41 -359q10 -72 -57 -84 l-138 -20q-56 -11 -79 20q-49 68 -50 183z" />
<glyph unicode="&#x201d;" horiz-adv-x="1085" d="M106 1061q72 150 44 358q-10 72 57 84l135 21q57 10 80 -21q51 -70 51 -182q0 -92 -48 -199.5t-167 -199.5q-53 -43 -102 6l-37 35q-41 41 -13 98zM598 1061q72 150 43 358q-10 72 57 84l136 21q56 10 79 -21q49 -68 50 -182q0 -92 -47.5 -199.5t-165.5 -199.5 q-53 -43 -103 6l-37 35q-41 41 -12 98z" />
<glyph unicode="&#x2022;" horiz-adv-x="1042" d="M61 717q0 63 42.5 102t103.5 39q74 0 143.5 -54t69.5 -87t-69.5 -87.5t-143.5 -54.5q-61 0 -103.5 38t-42.5 104zM379 401q0 74 54 143.5t87 69.5t87.5 -69.5t54.5 -143.5q0 -61 -38 -103t-104 -42q-63 0 -102 42t-39 103zM379 1030q0 61 37.5 103.5t103.5 42.5 q63 0 102.5 -42t39.5 -104q0 -74 -54.5 -143.5t-87.5 -69.5t-87 69.5t-54 143.5zM623 717q0 33 70.5 87t142.5 54q61 0 103 -38t42 -103q0 -63 -42 -102.5t-103 -39.5q-72 0 -142.5 54.5t-70.5 87.5z" />
<glyph unicode="&#x2026;" horiz-adv-x="1689" d="M123 166q0 43 12 94q14 53 76 64l147 24q61 11 86 -26q45 -63 45 -158q0 -104 -55 -160q-61 -27 -135 -27q-176 0 -176 189zM662 166q0 43 12 94q12 53 74 64l149 24q57 11 86 -26q45 -63 45 -158q0 -104 -57 -160q-61 -27 -135 -27q-174 0 -174 189zM1200 166 q0 43 12 94q12 53 74 64l150 24q57 11 86 -26q45 -63 45 -158q0 -102 -58 -160q-61 -27 -135 -27q-174 0 -174 189z" />
<glyph unicode="&#x202f;" horiz-adv-x="379" />
<glyph unicode="&#x2039;" horiz-adv-x="641" d="M92 479v86q0 45 27 90l153 238q29 45 82 51l158 21q43 6 60 -17.5t-3 -62.5l-180 -363l176 -356q18 -39 4 -61.5t-55 -22.5h-139q-57 0 -86 47l-170 260q-27 41 -27 90z" />
<glyph unicode="&#x203a;" horiz-adv-x="636" d="M67.5 104.5q-14.5 22.5 4.5 61.5l176 356l-168 340q-37 76 45 88l125 21q57 8 92 -41l176 -275q27 -45 27 -90v-86q0 -49 -27 -90l-170 -260q-29 -47 -86 -47h-139q-41 0 -55.5 22.5z" />
<glyph unicode="&#x205f;" horiz-adv-x="474" />
<glyph unicode="&#x20ac;" horiz-adv-x="1406" d="M106 492v73q0 72 72 72h62q-2 23 -2 70q0 35 2 51h-62q-72 0 -72 71v80q0 72 72 72h94q59 211 212 330t390 119q217 0 381 -103q55 -33 25 -96l-45 -92q-31 -57 -94 -37q-119 41 -267 41q-150 0 -221 -47q-39 -45 -61 -115h373q72 0 71 -72v-80q0 -72 -71 -71h-416 q-2 -18 -2 -58q0 -43 2 -63h416q72 0 71 -72v-73q0 -72 -71 -72h-359q88 -154 301 -154q131 0 260 53q66 29 97 -32l49 -99q32 -63 -25 -96q-178 -113 -420 -112q-227 0 -379.5 114.5t-214.5 325.5h-96q-72 0 -72 72z" />
<glyph unicode="&#x2122;" horiz-adv-x="1574" d="M23 1288v49q0 72 71 72h463q72 0 72 -72v-49q0 -72 -72 -71h-129v-373q0 -72 -72 -72h-61q-72 0 -72 72v373h-129q-72 0 -71 71zM707 848l65 498q8 63 72 69l88 8q63 6 86 -53l108 -272l99 256q20 55 78 61l96 8q70 6 78 -63l65 -512q10 -76 -65 -76h-64q-66 0 -76 68 l-28 243l-80 -217q-20 -57 -82 -57h-47q-61 0 -82 57l-78 213l-27 -239q-6 -68 -75 -68h-64q-35 0 -53.5 20.5t-13.5 55.5z" />
<glyph unicode="&#x25fc;" horiz-adv-x="1064" d="M0 0v1065h1065v-1065h-1065z" />
<glyph unicode="&#xfb01;" horiz-adv-x="1304" d="M31 838v69q0 63 61 80l123 31q-8 74 -8 149q0 365 522 365q178 0 344 -35q70 -12 57 -84l-16 -108q-12 -72 -86 -60q-264 45 -467 45q-67 -49 -67 -184q0 -31 6 -86h323l213 14q74 6 74 -67v-559q0 -76 12 -129q18 -6 52 -7q70 0 69 -73v-101q0 -61 -47 -84 q-70 -35 -152 -34q-221 0 -221 270v516h-319v-694q0 -72 -72 -72h-143q-72 0 -72 72v694h-115q-72 0 -71 72z" />
<glyph unicode="&#xfb02;" horiz-adv-x="1335" d="M31 838v69q0 63 61 80l123 31q-8 74 -8 149q0 365 522 365q135 0 268 -21l70 11q76 10 76 -68v-1046q0 -86 10 -129q18 -6 51 -7q70 0 70 -73v-101q0 -61 -47 -84q-70 -35 -152 -34q-219 0 -219 270v1020q-154 20 -295 20q-68 -49 -67 -184q0 -31 6 -86h151q72 0 72 -72 v-110q0 -72 -72 -72h-147v-694q0 -72 -72 -72h-143q-72 0 -72 72v694h-115q-72 0 -71 72z" />
<glyph unicode="&#xfb03;" horiz-adv-x="1910" d="M31 838v69q0 63 61 80l123 31q-8 74 -8 149q0 365 522 365q174 0 342 -33q106 33 264 33q178 0 344 -35q70 -12 58 -84l-17 -108q-12 -72 -86 -60q-264 45 -467 45q-67 -49 -67 -184q0 -31 6 -86h324l212 14q74 6 74 -67v-559q0 -76 13 -129q18 -6 51 -7q70 0 69 -73 v-101q0 -61 -47 -84q-70 -35 -151 -34q-221 0 -221 270v516h-320v-694q0 -72 -72 -72h-143q-72 0 -72 72v694h-319v-694q0 -72 -72 -72h-143q-72 0 -72 72v694h-115q-72 0 -71 72zM494 1106q0 -31 6 -86h319q-6 80 -6 147q0 61 14 107q-145 16 -266 16q-67 -49 -67 -184z " />
<glyph unicode="&#xfb04;" horiz-adv-x="1941" d="M31 838v69q0 63 61 80l123 31q-8 74 -8 149q0 365 522 365q174 0 342 -33q106 33 264 33q137 0 271 -21l67 11q76 10 76 -68v-1046q0 -86 10 -129q18 -6 51 -7q70 0 70 -73v-101q0 -61 -47 -84q-70 -35 -152 -34q-219 0 -219 270v1022q-158 18 -295 18q-68 -49 -67 -184 q0 -31 6 -86h151q72 0 72 -72v-110q0 -72 -72 -72h-147v-694q0 -72 -72 -72h-143q-72 0 -72 72v694h-319v-694q0 -72 -72 -72h-143q-72 0 -72 72v694h-115q-72 0 -71 72zM494 1106q0 -31 6 -86h319q-6 80 -6 147q0 61 14 107q-145 16 -266 16q-67 -49 -67 -184z" />
</font>
</defs>
</svg>
