<?xml version="1.0" encoding="utf-8"?>
<!-- Generator: Adobe Illustrator 25.4.1, SVG Export Plug-In . SVG Version: 6.00 Build 0)  -->
<svg version="1.1" id="Layer_1" xmlns="http://www.w3.org/2000/svg" xmlns:xlink="http://www.w3.org/1999/xlink" x="0px" y="0px"
	 viewBox="0 0 1920 662" style="enable-background:new 0 0 1920 662;" xml:space="preserve">
<style type="text/css">
	.st0{fill:#062A78;}
	.st1{fill:url(#SVGID_1_);}
	.st2{fill:url(#SVGID_00000083086302583034927890000008356383009660549287_);}
</style>
<g>
	<rect y="0.1" class="st0" width="1920" height="661.9"/>
	
		<linearGradient id="SVGID_1_" gradientUnits="userSpaceOnUse" x1="300.3495" y1="966.5546" x2="2010.457" y2="966.5546" gradientTransform="matrix(-0.86 -0.51 -0.51 0.86 3045.5376 301.7349)">
		<stop  offset="0.35" style="stop-color:#285C4D"/>
		<stop  offset="0.59" style="stop-color:#285C4D;stop-opacity:0.49"/>
		<stop  offset="0.8" style="stop-color:#285C4D;stop-opacity:0.13"/>
		<stop  offset="0.91" style="stop-color:#285C4D;stop-opacity:0"/>
	</linearGradient>
	<path class="st1" d="M1332.4,444.7c57.1-153.2,22.5-325.4-86.1-444.7H881.7c-40.1,82.3-15.9,181.5,57.7,235.9
		c141.3,100.4,217.7,261.9,214.8,426.1h153.2C1297.4,590,1305.2,515.2,1332.4,444.7z"/>
	
		<linearGradient id="SVGID_00000088851751300708985770000001744385868129655179_" gradientUnits="userSpaceOnUse" x1="-715.3441" y1="-26.8846" x2="730.4127" y2="-26.8846" gradientTransform="matrix(-1 -9.000000e-02 -9.000000e-02 1 1502.7332 409.0401)">
		<stop  offset="0.29" style="stop-color:#74A187"/>
		<stop  offset="0.36" style="stop-color:#74A187;stop-opacity:0.97"/>
		<stop  offset="0.45" style="stop-color:#74A187;stop-opacity:0.87"/>
		<stop  offset="0.54" style="stop-color:#74A187;stop-opacity:0.71"/>
		<stop  offset="0.64" style="stop-color:#74A187;stop-opacity:0.49"/>
		<stop  offset="0.75" style="stop-color:#74A187;stop-opacity:0.21"/>
		<stop  offset="0.82" style="stop-color:#74A187;stop-opacity:0"/>
	</linearGradient>
	<path style="fill:url(#SVGID_00000088851751300708985770000001744385868129655179_);" d="M1172.5,395.7
		c-17.7-203.9-177.9-373-388.8-394.6C679.5-9.5,586.5,66.5,576,170.7c-9.9,97.5,56,186.4,152.1,205.3
		c168.2,29.5,304.9,139.7,373.8,286H1290C1223.1,590.7,1180.1,497.2,1172.5,395.7z"/>
</g>
</svg>
