<?xml version="1.0" standalone="no"?>
<!DOCTYPE svg PUBLIC "-//W3C//DTD SVG 1.1//EN" "http://www.w3.org/Graphics/SVG/1.1/DTD/svg11.dtd" >
<svg xmlns="http://www.w3.org/2000/svg" xmlns:xlink="http://www.w3.org/1999/xlink" version="1.1">
<metadata></metadata>
<defs>
<font id="rotoplas_regularregular" horiz-adv-x="1208" >
<font-face units-per-em="2048" ascent="1581" descent="-467" />
<missing-glyph horiz-adv-x="573" />
<glyph horiz-adv-x="0" />
<glyph unicode="&#xd;" horiz-adv-x="681" />
<glyph unicode=" "  horiz-adv-x="573" />
<glyph unicode="&#x09;" horiz-adv-x="573" />
<glyph unicode="&#xa0;" horiz-adv-x="573" />
<glyph unicode="!" horiz-adv-x="614" d="M168 121q0 43 16 88q10 37 56 43l106 14q39 7 64 -20q37 -53 36 -121q0 -80 -43 -129q-43 -16 -110 -16q-57 4 -91 39.5t-34 101.5zM209 494v843q0 51 51 52h92q51 -1 51 -52v-843q0 -51 -51 -52h-92q-51 0 -51 52z" />
<glyph unicode="&#x22;" horiz-adv-x="784" d="M66 1329q0 49 9 74t46 31l135 18q41 6 51 -21.5t10 -103.5q0 -158 -51 -330q-12 -43 -57 -43h-37q-45 0 -59 41q-47 158 -47 334zM469 1329q0 49 9 74t46 31l133 18q29 4 43.5 -11.5t16.5 -33.5t2 -61v-19q0 -164 -49 -330q-12 -43 -58 -43h-37q-45 0 -59 41 q-47 158 -47 334z" />
<glyph unicode="#" horiz-adv-x="1398" d="M45 428v64q0 51 51 51h211l86 309h-164q-51 0 -51 51v66q0 51 51 51h211l88 319q12 41 56 47l92 13q29 4 42 -10.5t5 -42.5l-90 -326h307l88 319q12 41 55 47l93 13q29 4 42 -10.5t5 -42.5l-90 -326h170q51 0 51 -51v-66q0 -51 -51 -51h-218l-86 -309h172q51 0 52 -51 v-64q0 -51 -52 -51h-219l-92 -334q-12 -43 -57 -43h-88q-59 0 -43 57l88 320h-307l-95 -334q-12 -43 -57 -43h-86q-59 0 -43 57l88 320h-164q-51 0 -51 51zM498 543h309l86 309h-307z" />
<glyph unicode="$" horiz-adv-x="1191" d="M129 1018q0 143 95 247.5t276 133.5v102q0 49 47 55l92 15q55 10 55 -47v-117q160 -12 275 -72q41 -20 24 -67l-24 -66q-14 -45 -64 -33q-141 43 -268 43q-141 0 -220 -48t-79 -138q0 -61 40 -107.5t103.5 -75t141 -55t155.5 -59.5t141.5 -76t103.5 -116.5t40 -169.5 q0 -160 -102.5 -255.5t-266.5 -121.5v-113q0 -51 -51 -51h-92q-51 0 -51 51v105q-203 18 -348 112q-37 27 -15 70l37 67q23 41 70 23q174 -76 327 -76q283 0 283 178q0 84 -74.5 139.5t-181 91.5t-213 80t-181.5 132t-75 219z" />
<glyph unicode="%" horiz-adv-x="1970" d="M109 1050.5q0 161.5 93 260t255 98.5q166 0 263 -98.5t97 -260t-96 -259t-260 -97.5t-258 97.5t-94 259zM293 1059q0 -92 44 -146.5t130 -54.5q74 0 131 31q37 63 37 153q0 92 -49 147.5t-133 55.5q-78 0 -127 -33q-33 -57 -33 -153zM426 -23.5q-10 17.5 6 43.5l881 1362 q23 35 59 37l129 15q33 4 43 -12.5t-6 -45.5l-887 -1384q-20 -33 -63 -33h-121q-31 0 -41 17.5zM1153 338q0 162 93 260t255 98q166 0 263.5 -98t97.5 -260t-97.5 -260t-261.5 -98q-162 0 -256 97t-94 261zM1335 346q0 -92 45 -147.5t129 -55.5q78 0 131 33q39 59 39 154 q0 92 -48 146t-134 54q-84 0 -129 -32q-33 -53 -33 -152z" />
<glyph unicode="&#x26;" horiz-adv-x="1425" d="M109 399q0 246 202 385q-88 131 -88 263q0 168 127 265t342 97q195 0 332 -80q41 -25 16 -69l-32 -64q-20 -43 -68 -27q-125 43 -239.5 43t-191.5 -46t-77 -134q0 -49 19.5 -95t77 -109.5t95.5 -100.5t138 -131l242 -236q76 115 77 242l-51 117q-18 43 21 69l61 43 q41 27 72 -2q88 -84 88 -241q0 -197 -123 -355q35 -33 63 -49q25 -4 101 -8q53 0 53 -49l2 -64q0 -43 -33 -59q-49 -25 -104 -24q-109 0 -234 114q-174 -115 -395 -114q-219 0 -356 109.5t-137 309.5zM315 432q0 -125 88.5 -193.5t227.5 -68.5q127 0 225 57l-287 277 q-102 96 -163 162q-91 -105 -91 -234z" />
<glyph unicode="'" horiz-adv-x="382" d="M66 1329q0 49 9 74t46 31l135 18q41 6 51 -21.5t10 -103.5q0 -158 -51 -330q-12 -43 -57 -43h-37q-45 0 -59 41q-47 158 -47 334z" />
<glyph unicode="(" horiz-adv-x="634" d="M129 561q0 498 268 891q18 29 58 35l108 14q33 4 43 -13.5t-8 -43.5q-264 -394 -264 -883q0 -479 268 -868q18 -27 9 -44.5t-40 -17.5h-108q-39 0 -62 33q-272 399 -272 897z" />
<glyph unicode=")" horiz-adv-x="634" d="M23 -351.5q-9 17.5 10 44.5q268 389 268 868q0 475 -256 866q-35 55 29 66l88 12q41 6 65 -26q279 -408 279 -918q0 -498 -273 -897q-22 -33 -61 -33h-109q-31 0 -40 17.5z" />
<glyph unicode="*" horiz-adv-x="688" d="M74 979q-27 51 22 70l152 57l-152 57q-49 18 -22 70l18 31q27 49 70 14l135 -98l-21 153q-6 55 48 56h38q53 0 48 -56l-21 -151l135 98q45 35 72 -14l18 -33q29 -49 -24 -70l-152 -57l152 -57q53 -20 24 -70l-20 -33q-29 -49 -70 -16l-135 98l21 -151q6 -55 -48 -56h-38 q-53 0 -48 56l21 153l-135 -98q-43 -35 -70 14z" />
<glyph unicode="+" horiz-adv-x="1089" d="M61 674v63q0 51 52 51h348v334q0 51 51 52h70q51 0 51 -52v-334h344q51 0 51 -51v-63q0 -51 -51 -51h-344v-332q0 -51 -51 -51h-70q-51 0 -51 51v332h-348q-51 0 -52 51z" />
<glyph unicode="," horiz-adv-x="514" d="M94 -133q74 139 51 321q-6 51 41 60l103 16q41 6 57 -12q39 -53 39 -139q0 -80 -54.5 -175.5t-140.5 -162.5q-37 -29 -71 6l-17 14q-33 31 -8 72z" />
<glyph unicode="-" horiz-adv-x="759" d="M61 582v65q0 51 52 51h534q51 0 51 -51v-65q0 -51 -51 -52h-534q-51 0 -52 52z" />
<glyph unicode="." horiz-adv-x="536" d="M129 121q0 43 16 88q10 37 56 43l106 14q39 7 64 -20q37 -53 37 -121q0 -80 -43 -129q-43 -16 -111 -16q-57 4 -91 39.5t-34 101.5z" />
<glyph unicode="/" horiz-adv-x="942" d="M49 -309l631 1753q14 39 55 45l113 14q29 4 41 -12t4 -43l-639 -1776q-16 -41 -57 -41h-107q-29 0 -39 16.5t-2 43.5z" />
<glyph unicode="0" horiz-adv-x="1382" d="M129 705q0 322 145.5 513t419.5 191q281 0 420 -189.5t139 -521.5q0 -340 -148.5 -529t-418.5 -189q-279 0 -418 192.5t-139 532.5zM332 698q0 -535 360 -534q176 0 267.5 140t91.5 388q-1 535 -361 535q-178 0 -268 -144.5t-90 -384.5z" />
<glyph unicode="1" horiz-adv-x="706" d="M-12 1260v36q0 47 47 54l295 39h96q51 -1 51 -52v-1286q0 -51 -51 -51h-94q-51 0 -51 51v1157h-242q-51 0 -51 52z" />
<glyph unicode="2" horiz-adv-x="1245" d="M154 78q-12 39 16 67l264 267q25 27 92.5 95t93 96t77 84t73 88t49 77t37.5 84t10 76q0 92 -67.5 153.5t-210.5 61.5q-121 0 -209 -37q-18 -92 -19 -211q0 -51 -51 -51h-63q-43 0 -60 35q-31 57 -30 131q0 147 121.5 231t336.5 84q231 0 343 -108.5t112 -258.5 q0 -53 -13.5 -107t-45 -109.5t-58 -98.5t-79 -102.5t-80 -90t-89 -93t-79.5 -81.5l-168 -170h608q51 0 51 -51v-88q0 -51 -51 -51h-842q-47 0 -59 43z" />
<glyph unicode="3" horiz-adv-x="1181" d="M125 1112q0 135 117.5 216t322.5 81q127 0 220.5 -33t141.5 -89t69.5 -116.5t21.5 -126.5q0 -238 -236 -335q270 -90 271 -338q0 -180 -138.5 -285.5t-363.5 -105.5q-244 0 -408 100q-41 27 -14 72l33 55q23 41 69 20q142 -63 308 -63q150 0 230.5 57.5t80.5 157.5 q0 111 -97.5 174t-256.5 63q-39 0 -39 52v65q0 51 39 51q145 0 232 63.5t87 174.5q0 86 -59.5 145.5t-208.5 59.5q-119 0 -207 -37q-18 -72 -18 -162q-4 -51 -54 -51h-63q-47 0 -60 31q-20 45 -20 104z" />
<glyph unicode="4" horiz-adv-x="1216" d="M55 475q-18 39 8 72l674 813q25 31 60 33l104 10q53 6 53 -47v-842h138q51 0 51 -51v-72q0 -51 -51 -51h-138v-289q0 -51 -51 -51h-92q-51 0 -51 51v289h-598q-41 0 -60 37zM260 514h500v602z" />
<glyph unicode="5" horiz-adv-x="1175" d="M129 156l37 55q25 41 70 18q135 -66 294 -65q145 0 229.5 62.5t84.5 172.5q0 123 -127 190.5t-348 67.5q-25 0 -51.5 -2t-37 -2t-22.5 6.5t-27 20.5l-30 35q-20 23 -21 59v563q0 51 51 52h727q49 0 54 -41q4 -66 4 -103q0 -98 -19 -184q-8 -43 -57 -43h-61q-49 0 -54 49 q0 68 -8 150h-442v-400q61 4 92 4q260 0 420 -102.5t160 -317.5q0 -205 -142.5 -313t-363.5 -108q-229 0 -398 104q-41 27 -14 72z" />
<glyph unicode="6" horiz-adv-x="1284" d="M129 653q0 340 158.5 548t435.5 208q176 0 284.5 -77t108.5 -214q0 -63 -26 -110q-20 -31 -62 -31h-63q-49 0 -50 51q-4 100 -22 160q-66 39 -182 39q-141 0 -244 -68q-121 -164 -133 -442q172 117 379 117t324.5 -113t117.5 -301q-2 -207 -141.5 -323.5t-347.5 -116.5 q-266 0 -401.5 182t-135.5 491zM336 563q20 -193 109 -296t239 -103q117 0 191.5 65.5t76.5 182.5q0 113 -76.5 177t-213.5 64q-178 0 -326 -90z" />
<glyph unicode="7" horiz-adv-x="1157" d="M92 1270q0 68 10.5 93.5t47.5 25.5h835q41 0 59 -39l33 -72q14 -35 0 -70l-502 -1169q-14 -39 -59 -39h-100q-29 0 -40 16.5t-1 42.5l495 1158h-573q-8 -72 -12 -189q-4 -51 -54 -51h-59q-47 0 -55 45q-25 127 -25 248z" />
<glyph unicode="8" horiz-adv-x="1277" d="M129 338q0 125 80 218t211 146q-231 129 -232 334q0 152 125 262.5t342 110.5q209 0 328 -101.5t119 -248.5q0 -111 -66.5 -196t-177.5 -132q291 -135 291 -375q0 -174 -142.5 -275t-363.5 -101q-231 0 -372.5 94t-141.5 264zM332 375q0 -100 87 -155.5t234 -55.5 q129 0 211 54t82 134q0 90 -82 148.5t-235 113.5q-8 4 -22.5 8.5t-20.5 8.5q-113 -37 -183.5 -104.5t-70.5 -151.5zM393 1044q0 -86 81 -141t233 -108q80 31 136 93t56 140q0 88 -66.5 143.5t-181.5 55.5q-117 0 -187.5 -53.5t-70.5 -129.5z" />
<glyph unicode="9" horiz-adv-x="1284" d="M129 958q2 193 133 322t348 129q264 0 404.5 -188.5t140.5 -501.5q0 -340 -157.5 -539.5t-456.5 -199.5q-182 0 -324 63q-47 18 -27 66l27 61q20 45 66 31q104 -37 235 -37q412 0 434 495q-151 -112 -368 -112q-205 0 -330 111.5t-125 299.5zM332 969q0 -109 76.5 -175.5 t220.5 -66.5q170 0 319 90q-18 190 -104 300t-238 110q-127 0 -200.5 -76t-73.5 -182z" />
<glyph unicode=":" horiz-adv-x="536" d="M129 121q0 43 16 88q10 37 56 43l106 14q39 7 64 -20q37 -53 37 -121q0 -80 -43 -129q-43 -16 -111 -16q-57 4 -91 39.5t-34 101.5zM129 768q0 41 16 86q10 37 56 43l106 14q39 7 64 -20q37 -53 37 -121q0 -82 -43 -127q-43 -18 -111 -18q-57 4 -91 39.5t-34 103.5z" />
<glyph unicode=";" horiz-adv-x="514" d="M94 -133q74 139 51 321q-6 51 41 60l103 16q41 6 57 -12q39 -53 39 -139q0 -80 -54.5 -175.5t-140.5 -162.5q-37 -29 -71 6l-17 14q-33 31 -8 72zM106 768q0 35 15 86q10 37 55 43l109 14q41 7 61 -20q39 -51 39 -121q0 -78 -45 -127q-43 -18 -109 -18q-59 4 -92 39.5 t-33 103.5z" />
<glyph unicode="&#x3c;" horiz-adv-x="1001" d="M82 655v84q0 41 37 60l706 344q45 23 68 -23l29 -59q23 -45 -25 -70l-608 -293l608 -295q47 -25 25 -69l-29 -60q-23 -45 -68 -22l-706 344q-37 18 -37 59z" />
<glyph unicode="=" horiz-adv-x="1089" d="M61 469v66q0 51 52 51h864q51 0 51 -51v-66q0 -51 -51 -51h-864q-51 0 -52 51zM61 877v65q0 51 52 51h864q51 0 51 -51v-65q0 -51 -51 -52h-864q-51 0 -52 52z" />
<glyph unicode="&#x3e;" horiz-adv-x="1001" d="M80 336q-23 45 22 67l609 295l-609 293q-45 23 -22 68l26 59q25 47 70 25l707 -344q37 -18 37 -60v-84q0 -41 -37 -59l-707 -344q-45 -23 -70 24z" />
<glyph unicode="?" horiz-adv-x="1046" d="M109 1133q0 131 110.5 203.5t286.5 72.5q188 0 300 -80t112 -237q0 -76 -29 -142.5t-61.5 -105.5t-94.5 -99q-55 -55 -77.5 -79.5t-47 -72.5t-24.5 -99.5t-52 -51.5h-92q-51 0 -51 54q0 94 33 170.5t71.5 117.5t120.5 115q39 35 55.5 52.5t34 51t17.5 70.5 q0 154 -250 154q-86 0 -152 -21q-10 -106 -10 -157.5t-51 -51.5h-70q-45 0 -59 37q-20 47 -20 99zM356 121q0 47 15 88q10 37 55 43l109 14q41 7 61 -20q39 -51 39 -121q0 -78 -45 -129q-43 -16 -109 -16q-57 4 -91 39.5t-34 101.5z" />
<glyph unicode="@" horiz-adv-x="2091" d="M109 436q0 424 275 698.5t706 274.5q395 0 643.5 -233.5t248.5 -593.5q0 -242 -116.5 -402t-317.5 -160q-193 0 -270 146q-102 -145 -287 -146q-174 0 -265 125t-91 322q0 211 115.5 350t343.5 139q160 0 295 -51q39 -14 38 -59v-412q0 -227 134 -227q74 0 126 57.5 t72.5 137t20.5 176.5q0 303 -193.5 476t-501.5 173q-348 0 -561 -223.5t-213 -561.5q0 -336 223.5 -541.5t575.5 -205.5q281 0 524 135q45 25 70 -18l29 -50q25 -43 -15 -69q-249 -180 -616 -180q-451 0 -722 255t-271 668zM838 479q0 -117 47 -195.5t139 -78.5 q143 0 209 147v398q-74 23 -152 22q-104 0 -172 -37q-72 -86 -71 -256z" />
<glyph unicode="A" horiz-adv-x="1370" d="M49 59l502 1291q14 39 55 41l152 10h8q39 0 53 -37l502 -1305q10 -27 -1 -43t-40 -16h-119q-45 0 -59 41l-141 367h-564l-141 -367q-14 -41 -59 -41h-107q-29 0 -40 16.5t-1 42.5zM469 594h420l-211 543z" />
<glyph unicode="B" horiz-adv-x="1325" d="M229 49v1288q0 47 50 54q147 18 299 18q256 0 390 -100.5t134 -266.5q0 -180 -176 -303q272 -86 272 -350q0 -199 -150.5 -304t-431.5 -105q-152 0 -337 16q-49 4 -50 53zM434 176q106 -12 201 -12q354 0 354 233q0 104 -81 159.5t-208 55.5h-266v-436zM434 786h309 q61 31 106.5 90.5t45.5 137.5q0 96 -78 153.5t-219 57.5q-86 0 -164 -6v-433z" />
<glyph unicode="C" horiz-adv-x="1341" d="M129 692q0 326 162 521.5t463 195.5q209 0 330.5 -84t121.5 -229q0 -63 -30 -133q-16 -35 -62 -35h-61q-51 0 -52 51q-4 129 -22 199q-91 34 -222 34h-7q-168 0 -279 -71q-57 -70 -95 -191t-38 -254q0 -240 108.5 -379t344.5 -139q152 0 313 74q15 8 27 8q25 0 40 -31 l33 -63q9 -17 9 -31q0 -23 -25 -39q-173 -116 -418 -116h-4q-305 0 -471 188t-166 524z" />
<glyph unicode="D" horiz-adv-x="1515" d="M229 57v1274q0 47 47 53q170 25 367 25q371 0 557 -192.5t186 -522.5q0 -338 -191 -526t-558 -188q-162 0 -361 24q-47 6 -47 53zM434 195q125 -16 256 -17q225 0 365 101q123 145 123 419q0 242 -135.5 381.5t-397.5 139.5q-72 0 -211 -15v-1009z" />
<glyph unicode="E" horiz-adv-x="1251" d="M229 51v1286q0 51 52 52h755q51 -1 51 -52v-84q0 -51 -51 -51h-602v-416h504q51 0 51 -51v-76q0 -51 -51 -51h-504v-420h635q51 0 51 -51v-86q0 -51 -51 -51h-788q-51 0 -52 51z" />
<glyph unicode="F" horiz-adv-x="1153" d="M229 51v1286q0 51 52 52h733q51 -1 51 -52v-84q0 -51 -51 -51h-580v-467h481q51 0 52 -51v-76q0 -51 -52 -51h-481v-506q0 -51 -51 -51h-102q-51 0 -52 51z" />
<glyph unicode="G" horiz-adv-x="1429" d="M129 674q0 336 166.5 535.5t488.5 199.5q217 0 347.5 -81t130.5 -232q0 -63 -31 -133q-18 -35 -62 -35h-61q-51 0 -51 51q-4 121 -21 197q-108 36 -258 36h-8q-170 0 -283 -69q-151 -155 -151 -471q0 -227 116.5 -360.5t360.5 -133.5q143 0 266 41v303h-241q-51 0 -52 51 v64q0 51 52 51h393q51 0 51 -51v-483q0 -43 -33 -62q-178 -112 -439 -112h-5q-328 0 -502 189t-174 505z" />
<glyph unicode="H" horiz-adv-x="1566" d="M229 51v1286q0 51 52 52h102q51 -1 51 -52v-555h701v555q0 51 51 52h100q51 0 51 -52v-1286q0 -51 -51 -51h-100q-51 0 -51 51v545h-701v-545q0 -51 -51 -51h-102q-51 0 -52 51z" />
<glyph unicode="I" horiz-adv-x="663" d="M229 51v1286q0 51 52 52h102q51 -1 51 -52v-1286q0 -51 -51 -51h-102q-51 0 -52 51z" />
<glyph unicode="J" horiz-adv-x="677" d="M-119 -264l15 80q9 44 49 44q5 0 10 -1q97 -17 164 -17q46 0 78 8q49 68 49 203v1284q0 51 51 52h98q51 -1 51 -52v-1329q0 -164 -104 -255t-264 -91q-74 0 -156 14q-43 8 -43 45q0 7 2 15z" />
<glyph unicode="K" horiz-adv-x="1413" d="M229 51v1286q0 51 52 52h102q51 0 51 -52v-592h234l428 617q23 31 61 31l113 -2q39 0 39 -35q0 -18 -13 -33l-462 -659l264 -359q57 -80 108 -121q25 -4 99 -8q51 0 51 -51v-62q0 -43 -33 -59q-43 -24 -99 -24h-5q-80 0 -132.5 35.5t-109.5 113.5l-313 428h-230v-506 q0 -51 -51 -51h-102q-51 0 -52 51z" />
<glyph unicode="L" horiz-adv-x="1150" d="M229 51v1286q0 51 52 52h102q51 -1 51 -52v-1153h615q51 0 51 -51v-82q0 -51 -51 -51h-768q-51 0 -52 51z" />
<glyph unicode="M" horiz-adv-x="1873" d="M162 55l170 1286q6 47 53 52l119 8h8q40 0 53 -39l379 -967l369 955q14 41 55 43l125 8h4q45 0 51 -45l164 -1301q1 -5 1 -10q0 -45 -50 -45h-102q-47 0 -54 47l-125 957l-346 -881q-14 -41 -59 -41h-80q-45 0 -59 39l-357 887l-116 -961q-6 -47 -56 -47h-98 q-50 0 -50 45q0 5 1 10z" />
<glyph unicode="N" horiz-adv-x="1544" d="M229 51v1288q0 49 50 54l108 8h8q35 0 56 -31l669 -991v958q0 51 51 52h91q51 0 51 -52v-1286q0 -51 -51 -51h-103q-41 0 -61 33l-674 991v-973q0 -51 -51 -51h-92q-51 0 -52 51z" />
<glyph unicode="O" horiz-adv-x="1513" d="M129 709q0 322 164 511t463 189t463.5 -192.5t164.5 -516.5q0 -336 -163.5 -528t-464.5 -192t-464 196.5t-163 532.5zM338 698q0 -236 105.5 -378t330.5 -142q154 0 273 72q129 154 129 440q0 233 -106 377.5t-329 144.5q-164 0 -274 -73q-129 -168 -129 -441z" />
<glyph unicode="P" horiz-adv-x="1302" d="M229 51v1284q0 49 47 56q161 18 304 18q295 0 444.5 -130t149.5 -364q0 -240 -150 -368.5t-416 -128.5q-92 0 -174 10v-377q0 -51 -51 -51h-102q-51 0 -52 51zM434 623q111 -12 195 -13q178 0 274 70q63 90 64 231q0 308 -381 308q-66 0 -152 -11v-585z" />
<glyph unicode="Q" horiz-adv-x="1521" d="M129 709q0 324 165 512t462 188t462.5 -190.5t165.5 -518.5q0 -219 -73.5 -381.5t-210.5 -248.5q225 -154 346 -205h135q49 0 55 -47l9 -62q1 -6 1 -11q0 -34 -34 -50q-66 -33 -144 -33q-145 0 -307 115l-287 211q-49 -8 -112 -8q-301 0 -467 195.5t-166 533.5zM338 698 q0 -254 116.5 -388t348.5 -134q76 0 153 17q219 156 220 497q0 244 -113 383t-322 139q-166 0 -274 -73q-129 -170 -129 -441z" />
<glyph unicode="R" horiz-adv-x="1366" d="M229 51v1288q0 49 50 54q154 16 294 16q264 0 405.5 -112.5t141.5 -317.5q0 -246 -231 -395l164 -281q43 -78 108 -119q25 -4 99 -8q51 0 51 -51v-62q0 -43 -33 -59q-51 -24 -110 -24h-5q-152 0 -237 149l-224 379h-268v-457q0 -51 -51 -51h-102q-51 0 -52 51zM434 684 h316q68 37 114.5 109.5t46.5 164.5q0 267 -317 267q-88 0 -160 -8v-533z" />
<glyph unicode="S" horiz-adv-x="1216" d="M154 174l36 68q17 27 42 27q13 0 28 -7q182 -84 334 -84q133 0 210 45t77 129q0 80 -75 134.5t-181.5 91t-214 80.5t-182 133.5t-74.5 220.5q0 178 139.5 287.5t372.5 109.5q199 0 335 -61q39 -16 39 -66q1 -24 1 -47q0 -114 -17 -203q-8 -45 -55 -45h-62q-49 0 -53 51 q0 96 -12 154q-86 20 -170 20q-145 0 -227.5 -51t-82.5 -145q0 -72 54.5 -125t134.5 -81t175 -64.5t175 -75.5t134.5 -118t54.5 -187q0 -178 -139.5 -281.5t-350.5 -103.5q-250 0 -434 124q-21 16 -21 38q0 15 9 32z" />
<glyph unicode="T" horiz-adv-x="1212" d="M47 1253v84q0 51 51 52h1018q51 -1 51 -52v-84q0 -51 -51 -51h-407v-1151q0 -51 -52 -51h-100q-51 0 -51 51v1151h-408q-51 0 -51 51z" />
<glyph unicode="U" horiz-adv-x="1517" d="M207 530v807q0 51 51 52h100q52 -1 52 -52v-762q0 -209 89 -303t267 -94q174 0 258 96.5t84 300.5v762q0 51 51 52h101q51 0 51 -52v-807q0 -274 -153.5 -412t-401.5 -138q-246 0 -397.5 139t-151.5 411z" />
<glyph unicode="V" horiz-adv-x="1308" d="M49 1331q-5 14 -5 25q0 32 44 35l115 6h7q39 0 54 -39l400 -1041l397 1041q15 39 54 39h7l99 -4q44 -3 44 -36q0 -11 -5 -26l-488 -1290q-16 -41 -57 -41h-123q-41 0 -57 41z" />
<glyph unicode="W" horiz-adv-x="1900" d="M82 1333q-2 9 -2 17q0 36 45 41l100 6h7q41 0 53 -43l256 -1010l290 922q12 41 56 43l121 6h7q41 0 52 -41l293 -946l260 1026q11 43 52 43h7l97 -6q45 -3 45 -40q0 -8 -2 -18l-336 -1290q-12 -43 -58 -43h-125q-45 0 -57 43l-299 965l-299 -965q-12 -43 -57 -43h-117 q-45 0 -57 43z" />
<glyph unicode="X" horiz-adv-x="1245" d="M64 1373.5q8 17.5 38 19.5l125 4q43 0 64 -31l350 -518l322 516q18 33 55 33h8l111 -4q29 -2 39 -20.5t-7 -43.5l-413 -651l418 -617q16 -27 5.5 -44t-40.5 -17h-127q-41 0 -62 33l-342 504l-319 -504q-20 -33 -62 -33h-116q-31 0 -40.5 17.5t7.5 43.5l416 646l-422 622 q-16 27 -8 44.5z" />
<glyph unicode="Y" horiz-adv-x="1230" d="M41 1373.5q10 17.5 39 19.5l117 4h8q35 0 53 -33l369 -614l360 614q19 33 58 33h4l102 -4q29 -2 39 -19.5t-4 -44.5l-469 -790v-488q0 -51 -51 -51h-99q-51 0 -51 51v488l-471 790q-14 27 -4 44.5z" />
<glyph unicode="Z" horiz-adv-x="1222" d="M123 1292q0 29 2 46.5t15.5 34t39.5 16.5h883q45 0 59 -39l33 -80q6 -15 6 -29q0 -21 -14 -41l-760 -1012h731q51 0 51 -51v-86q0 -51 -51 -51h-889q-41 0 -57 41l-33 86q-5 13 -5 25q0 22 16 45l755 1003h-579q-8 -63 -13 -164q-2 -49 -51 -49h-61q-45 0 -56 43 q-22 94 -22 248v14z" />
<glyph unicode="[" horiz-adv-x="747" d="M229 -317v1757q0 51 52 51h395q51 0 51 -51v-64q0 -51 -51 -51h-250v-1528h250q51 0 51 -51v-63q0 -52 -51 -52h-395q-51 0 -52 52z" />
<glyph unicode="\" horiz-adv-x="935" d="M49 1430q-18 51 39 61l98 14q48 6 62 -37l639 -1777q8 -27 -2.5 -43.5t-38.5 -16.5h-107q-41 0 -57 41z" />
<glyph unicode="]" horiz-adv-x="747" d="M20 -254q0 51 52 51h250v1528h-250q-51 0 -52 51v64q0 51 52 51h395q51 0 51 -51v-1757q0 -52 -51 -52h-395q-51 0 -52 52v63z" />
<glyph unicode="_" horiz-adv-x="1134" d="M61 -72q0 51 52 52h909q51 -1 51 -52v-65q0 -51 -51 -51h-909q-51 0 -52 51v65z" />
<glyph unicode="`" d="M324 1374v21q0 35 34 53q57 27 140 35q32 6 63 -17l281 -190q41 -29 18 -70l-6 -10q-23 -41 -68 -25l-421 154q-41 16 -41 49z" />
<glyph unicode="a" horiz-adv-x="1144" d="M109 258q0 158 149.5 242t431.5 84h51v51q0 119 -53 171t-176 52q-90 0 -145 -27q-8 -47 -11 -83q-4 -51 -51 -52h-72q-45 0 -59 35q-10 31 -10 60q0 109 110.5 179t274.5 70q182 0 284.5 -89t102.5 -267v-383q0 -82 14 -123q27 -4 86 -8q51 0 51 -51v-51q1 -44 -32 -60 q-55 -28 -124 -28h-5q-133 0 -170 118q-140 -118 -327 -118h-3q-143 0 -230 74.5t-87 203.5zM309 293q0 -133 176 -133q121 0 256 65v228q-20 2 -55 2q-233 0 -350 -68q-27 -47 -27 -94z" />
<glyph unicode="b" horiz-adv-x="1214" d="M174 109v1327q0 47 47 53l92 14q8 1 15 1q41 0 41 -48v-522q139 106 307 106q197 0 313.5 -135t116.5 -373q0 -260 -134 -406t-397 -146q-201 0 -362 69q-39 14 -39 60zM369 203q90 -39 227 -39q154 0 223 55q86 113 86 299q0 162 -76 251t-211 89q-121 0 -249 -67v-588z " />
<glyph unicode="c" horiz-adv-x="1054" d="M109 510q0 244 127 387t356 143q162 0 264 -73.5t102 -190.5q0 -45 -16 -84q-14 -37 -59 -37h-66q-49 0 -53 52q-4 88 -14 124q-63 27 -158 27q-121 0 -201 -49q-80 -100 -80 -289q0 -356 312 -356q125 0 239 49q15 7 28 7q27 0 42 -32l18 -38q7 -15 7 -29q0 -24 -23 -41 q-139 -100 -342 -100q-229 0 -356 142t-127 388z" />
<glyph unicode="d" horiz-adv-x="1253" d="M109 489q0 260 128 405.5t355 145.5q156 0 258 -67v463q0 47 47 53l92 14q8 1 15 1q40 0 40 -48v-1155q0 -80 13 -123q29 -4 88 -8q51 0 51 -51v-51q0 -44 -33 -60q-55 -28 -124 -28h-5q-131 0 -170 112q-118 -112 -314 -112h-3q-195 0 -316.5 137t-121.5 372zM311 500 q0 -162 78 -249t213 -87q117 0 248 61v594q-111 39 -238 39q-143 0 -217 -57q-84 -115 -84 -301z" />
<glyph unicode="e" horiz-adv-x="1093" d="M109 504q0 246 126.5 391t356.5 145q182 0 287.5 -103t105.5 -284q0 -74 -16 -141q-10 -43 -58 -43l-598 -14q25 -291 310 -291q125 0 239 49q15 7 28 7q27 0 42 -32l18 -38q7 -15 7 -29q0 -24 -23 -41q-139 -100 -340 -100q-229 0 -357 141t-128 383zM315 586l471 16 q6 31 7 57q0 199 -207 199q-115 0 -195 -49q-63 -80 -76 -223z" />
<glyph unicode="f" horiz-adv-x="782" d="M31 879v41q0 45 47 55l133 24q-8 147 -8 179q0 158 105.5 245.5t264.5 87.5q70 0 148 -14q42 -7 42 -48q0 -5 -1 -11l-12 -82q-5 -44 -49 -44q-5 0 -11 1q-117 21 -195 21q-20 0 -38 -1q-55 -51 -56 -178q0 -70 7 -156h266q51 0 51 -51v-69q0 -51 -51 -52h-266v-776 q0 -51 -52 -51h-92q-51 0 -51 51v776h-131q-51 0 -51 52z" />
<glyph unicode="g" horiz-adv-x="1042" d="M74 -248q0 45 14 84q13 33 53 33h9l61 -6q45 -2 49 -51q4 -70 10 -101q94 -24 235 -24h11q184 0 264 37q41 45 41 110q0 123 -207 123h-176q-127 0 -192.5 54.5t-65.5 144.5q0 117 109 209q-172 96 -172 313q0 158 106.5 260t292.5 102q125 0 221 -45l27 78l-10 101 q-1 5 -1 10q0 38 44 47l71 14q10 2 18 2q30 0 46 -22q31 -43 31 -101q0 -123 -134 -192q100 -96 101 -260q0 -154 -107.5 -257.5t-296.5 -103.5q-68 0 -123 13q-43 -55 -43 -123q0 -35 9 -58q104 -8 288 -8q170 0 265.5 -71.5t95.5 -198.5q0 -162 -128 -257t-386 -95 q-213 0 -321.5 67.5t-108.5 171.5zM311 676q0 -205 221 -205q92 0 156 37q47 68 47 168q0 205 -219 205q-86 0 -156 -37q-49 -68 -49 -168z" />
<glyph unicode="h" horiz-adv-x="1265" d="M174 51v1385q0 47 47 53l92 14q8 1 15 1q41 0 41 -48v-514q147 98 317 98t270.5 -93t100.5 -261v-385q0 -82 14 -123q27 -4 86 -8q51 0 51 -51v-51q0 -43 -32 -60q-55 -28 -124 -28h-5q-86 0 -135.5 54t-49.5 159v409q0 135 -60.5 195.5t-187.5 60.5q-119 0 -245 -55 v-752q0 -51 -52 -51h-92q-51 0 -51 51z" />
<glyph unicode="i" horiz-adv-x="581" d="M145 1329q0 33 13 70q8 39 53 45l94 14q10 2 18 2q30 0 46 -20q37 -47 37 -113q0 -76 -41 -119q-39 -16 -93 -16q-127 0 -127 137zM178 193v776q0 51 51 51h93q51 0 51 -51v-668q0 -82 14 -123q27 -4 86 -8q51 0 51 -51v-51q0 -43 -32 -60q-55 -28 -125 -28h-5 q-88 0 -136 54t-48 159z" />
<glyph unicode="j" horiz-adv-x="577" d="M76 -362q74 121 117 235v1096q0 51 51 51h92q51 0 51 -51v-598q0 -98 5 -253t5 -206q0 -205 -198 -371q-17 -16 -36 -16q-17 0 -36 14l-39 29q-22 17 -22 39q0 14 10 31zM158 1325q0 29 10 74q8 39 53 45l101 14q9 2 18 2q29 0 43 -20q39 -49 39 -117q0 -74 -43 -121 q-45 -16 -92 -16q-129 0 -129 139z" />
<glyph unicode="k" horiz-adv-x="1142" d="M174 51v1385q0 47 47 53l92 14q8 1 15 1q40 0 41 -48v-852h219q127 131 211 221v144q0 47 47 55l84 14q7 1 14 1q35 0 49 -27q23 -49 23 -101q0 -61 -29 -108t-106 -133l-146 -152l131 -227q37 -72 76 -113q37 -4 119 -8q51 0 51 -51v-51q0 -44 -33 -60q-49 -28 -108 -28 h-4q-145 0 -232 149l-174 303h-192v-381q0 -51 -52 -51h-92q-51 0 -51 51z" />
<glyph unicode="l" horiz-adv-x="577" d="M174 193v1243q0 47 47 53l92 14q8 1 15 1q41 0 41 -48v-1155q0 -72 14 -123q27 -4 88 -8q51 0 51 -51v-49q0 -45 -35 -62q-64 -28 -125 -28h-4q-88 0 -136 54t-48 159z" />
<glyph unicode="m" horiz-adv-x="1925" d="M131 893q-14 19 -14 35q0 20 20 37l64 51q20 16 39 16q14 0 28 -8q55 -35 86 -109q141 125 332 125q205 0 307 -131q164 131 355 131q170 0 269 -92t99 -262v-385q0 -72 15 -123q27 -4 88 -8q51 0 51 -51v-49q0 -45 -35 -62q-64 -28 -125 -28h-4q-86 0 -135 54t-49 159 v417q0 131 -56.5 189.5t-171.5 58.5q-106 0 -245 -61q8 -57 8 -109v-637q0 -51 -51 -51h-93q-51 0 -51 51v572q0 125 -54 180t-177 55q-113 0 -252 -61q8 -57 8 -109v-637q0 -51 -51 -51h-92q-51 0 -51 51v596q0 158 -62 246z" />
<glyph unicode="n" horiz-adv-x="1284" d="M131 893q-14 19 -14 35q0 20 20 37l64 51q20 16 39 16q14 0 28 -8q59 -39 86 -109q150 125 346 125q172 0 273.5 -92t101.5 -262v-385q0 -72 15 -123q27 -4 86 -8q51 0 51 -51v-51q0 -43 -33 -60q-55 -28 -124 -28h-5q-88 0 -136 54t-48 159v409q0 135 -59.5 195.5 t-188.5 60.5q-115 0 -254 -61q8 -61 8 -117v-629q0 -51 -51 -51h-92q-51 0 -51 51v596q0 158 -62 246z" />
<glyph unicode="o" horiz-adv-x="1196" d="M109 522q0 238 126.5 378t360 140t362.5 -143t129 -383q0 -248 -128 -391t-363 -143q-233 0 -360 146t-127 396zM311 512q0 -160 71 -254t224 -94q115 0 199 47q80 98 80 297q0 160 -69.5 255t-223.5 95q-119 0 -201 -49q-80 -104 -80 -297z" />
<glyph unicode="p" horiz-adv-x="1236" d="M131 893q-14 19 -14 35q0 20 20 37l64 51q20 16 39 16q14 0 28 -8q57 -37 86 -106q149 123 341 123q1 0 1 -1q193 0 312.5 -138t119.5 -374q0 -260 -123.5 -404t-351.5 -144q-162 0 -266 49v-445q0 -51 -51 -51h-92q-51 0 -51 51v1063q0 158 -62 246zM381 797 q6 -45 6 -117v-485q109 -31 231 -31q147 0 226 53q82 104 82 301q0 164 -77 252t-218 88q-119 0 -250 -61z" />
<glyph unicode="q" horiz-adv-x="1216" d="M109 485q0 262 134 408.5t396 146.5q199 0 365 -67q39 -14 38 -60v-1329q0 -51 -51 -51h-92q-51 0 -51 51v498q-127 -102 -305 -102q-199 0 -316.5 135t-117.5 370zM311 504q0 -162 76 -251t215 -89q117 0 246 67v586q-90 41 -227 41q-141 0 -224 -55q-86 -111 -86 -299z " />
<glyph unicode="r" horiz-adv-x="817" d="M131 893q-14 19 -14 35q0 20 20 37l64 51q35 29 55 14q82 -49 111 -158q111 90 179 129t136 39q43 0 80 -18q25 -14 25 -43q0 -10 -3 -21l-18 -92q-8 -45 -55 -45h-131q-115 -45 -193 -94v-43v-633q0 -51 -51 -51h-92q-51 0 -51 51v596q0 158 -62 246z" />
<glyph unicode="s" horiz-adv-x="987" d="M117 141l26 58q13 32 39 32q13 0 29 -8q139 -63 281 -63q188 0 188 112q0 51 -57.5 85t-140.5 58.5t-166 56.5t-140 97.5t-57 161.5q0 139 112.5 224t300.5 85q178 0 295 -61q37 -23 37 -80q0 -63 -14 -158q-8 -45 -57 -45h-52q-49 0 -53 52q-4 61 -12 92q-58 22 -146 22 h-8q-205 0 -205 -133q0 -53 57.5 -90t140.5 -61.5t166 -55t140.5 -94t57.5 -158.5q0 -135 -113 -212.5t-283 -77.5q-201 0 -350 94q-24 15 -24 38q0 13 8 29z" />
<glyph unicode="t" horiz-adv-x="872" d="M31 879v41q0 45 47 55l137 24l23 209q6 47 51 54l65 10q8 2 16 2q40 0 40 -47v-228h315q51 0 51 -51v-69q0 -51 -51 -52h-315v-436q0 -127 46 -177t132 -50q80 0 147 41q16 9 29 9q25 0 41 -30l20 -37q8 -15 8 -28q0 -22 -20 -41q-109 -98 -268 -98q-152 0 -241 89 t-89 275v483h-133q-51 0 -51 52z" />
<glyph unicode="u" horiz-adv-x="1259" d="M174 334v635q0 51 51 51h92q52 0 52 -51v-555q0 -137 56 -193.5t179 -56.5q133 0 252 57v748q0 51 51 51h92q51 0 52 -51v-668q0 -82 14 -123q27 -4 86 -8q51 0 51 -51v-51q0 -43 -33 -60q-55 -28 -122 -28h-5q-135 0 -172 114q-142 -114 -326 -114h-3q-170 0 -268.5 92 t-98.5 262z" />
<glyph unicode="v" horiz-adv-x="1058" d="M47 948q-4 13 -4 23q0 31 41 39l100 14q6 1 11 1q36 0 51 -38l295 -780l114 231q88 186 131 307v23q0 104 -16 197q-1 5 -1 10q0 40 44 49l84 14q7 1 14 1q35 0 52 -27q32 -51 32 -117q0 -162 -180 -512l-182 -346q-18 -37 -60 -37h-127q-41 0 -57 41z" />
<glyph unicode="w" horiz-adv-x="1611" d="M45 948q-4 13 -4 23q0 34 41 39l100 14q5 1 10 1q37 0 52 -40l256 -770l100 223q78 172 125 307v23q0 104 -16 197q-1 5 -1 10q0 40 44 49l84 14q7 1 14 1q35 0 51 -27q33 -53 33 -121q0 -33 -10 -84l209 -590l88 221q78 190 118 307v23q0 104 -16 197q-1 5 -1 10 q0 40 44 49l84 14q7 1 14 1q35 0 52 -27q32 -51 32 -117q0 -137 -168 -512l-155 -344q-18 -39 -60 -39h-125q-41 0 -57 41l-164 471q-47 -102 -59 -129l-168 -346q-18 -37 -60 -37h-124q-43 0 -60 41z" />
<glyph unicode="x" horiz-adv-x="1038" d="M70 988.5q8 17.5 36 21.5l113 14q7 1 13 1q34 0 53 -28l284 -389l166 230v131q0 49 47 55l90 14q7 1 13 1q38 0 51 -31q16 -43 16 -86q0 -100 -104 -230l-182 -217l297 -414q18 -27 9 -44t-40 -17h-127q-37 0 -62 31l-229 309l-223 -309q-23 -31 -62 -31h-114 q-33 0 -42.5 19.5t11.5 43.5l324 422l-330 461q-16 25 -8 42.5z" />
<glyph unicode="y" horiz-adv-x="1048" d="M35 948q-4 14 -4 24q0 33 41 38l104 14q6 1 11 1q38 0 51 -38l288 -782l86 176q125 262 164 364v20q0 92 -16 200q-1 5 -1 10q0 40 44 49l84 14q7 1 14 1q34 0 51 -27q33 -53 33 -121q0 -147 -180 -508l-291 -561q-61 -123 -137 -185.5t-223 -109.5q-11 -4 -21 -4 q-30 0 -47 31l-20 38q-9 16 -9 30q0 23 25 40q123 80 211 162q37 55 98 178z" />
<glyph unicode="z" horiz-adv-x="1013" d="M115 926q0 33 2 50t15 30.5t40 13.5h664q45 0 59 -39l29 -70q5 -15 5 -28q0 -22 -14 -41l-462 -590l165 -49q123 -35 168 -39q23 8 84 43q16 9 30 9q22 0 40 -23l18 -23q16 -20 16 -40q0 -15 -9 -30q-73 -120 -201 -120h-2q-59 0 -225 59l-195 72l-86 -109 q-19 -22 -40 -22q-16 0 -32 12l-53 39q-23 18 -23 38q0 16 13 33l586 750h-406q-8 -35 -12 -107q-2 -49 -53 -49h-48q-49 0 -55 45q-18 84 -18 185z" />
<glyph unicode="{" horiz-adv-x="757" d="M92 524v76q0 43 45 55q190 59 191 310q0 37 -5.5 119.5t-5.5 119.5q0 158 69 232.5t187 74.5q66 0 123 -20q41 -12 41 -57v-45q0 -51 -51 -52q-29 -2 -139 -10q-31 -72 -31 -174q0 -25 2 -92.5t2 -120.5q0 -299 -241 -379q242 -80 241 -379q0 -53 -2 -119.5t-2 -91.5 q0 -104 31 -176q111 -8 139 -10q51 0 51 -51v-45q0 -46 -41 -58q-57 -20 -123 -20q-119 0 -187.5 74.5t-68.5 232.5q0 37 5.5 120t5.5 120q0 252 -191 311q-45 12 -45 55z" />
<glyph unicode="|" horiz-adv-x="653" d="M229 -317v1753q0 47 47 53l93 14q55 10 55 -47v-1773q0 -51 -51 -52h-92q-51 0 -52 52z" />
<glyph unicode="}" horiz-adv-x="757" d="M20 -266q0 51 52 51q33 2 137 10q31 66 31 176q0 25 -2 91.5t-2 119.5q0 299 241 379q-242 80 -241 379q0 53 2 120.5t2 92.5q0 109 -31 174q-104 8 -137 10q-51 0 -52 52v45q0 45 39 59q66 18 125 18q119 0 187.5 -74.5t68.5 -232.5q0 -37 -6 -120t-6 -119 q0 -254 193 -310q45 -12 45 -57v-72q0 -45 -45 -57q-193 -55 -193 -311q0 -37 6 -120t6 -120q0 -158 -68.5 -232.5t-187.5 -74.5q-59 0 -125 18q-39 14 -39 60v45z" />
<glyph unicode="&#xa1;" horiz-adv-x="614" d="M168 893q0 41 16 86q10 37 56 43l106 14q39 7 64 -20q37 -53 36 -121q0 -80 -43 -127q-43 -18 -110 -18q-57 4 -91 39.5t-34 103.5zM213 -317v843q0 51 51 52h92q52 -1 52 -52v-843q0 -51 -52 -52h-92q-51 0 -51 52z" />
<glyph unicode="&#xa2;" horiz-adv-x="1044" d="M109 516q0 205 94 340t270 172v105q0 49 47 55l92 14q55 10 56 -47v-117q137 -14 237 -69q41 -20 23 -68l-21 -51q-20 -47 -67 -29q-115 37 -222 37q-135 0 -229 -49q-78 -102 -78 -289q0 -164 73 -260t226 -96q137 0 252 49q47 23 70 -25l18 -38q20 -43 -16 -70 q-109 -78 -266 -96v-107q0 -51 -52 -51h-92q-51 0 -51 51v115q-176 35 -270 173t-94 351z" />
<glyph unicode="&#xa3;" horiz-adv-x="1222" d="M129 655v41q0 47 45 56l94 20q-53 152 -53 244q0 172 125 282.5t360 110.5q184 0 324 -72q37 -23 23 -67l-25 -68q-16 -47 -66 -31q-133 41 -245 41q-287 0 -287 -217q0 -74 51 -215h402q51 0 51 -51v-74q0 -51 -51 -51h-355q10 -61 10 -119q0 -109 -30 -202l235 -66 q133 -33 185 -35q25 10 92 51q45 25 71 -14l35 -49q24 -37 6 -70q-72 -121 -208 -120q-82 0 -242 53l-252 84q-37 -61 -86 -117q-31 -37 -72 -8l-82 55q-45 29 -12 70q152 203 152 391q0 55 -9 96h-135q-51 0 -51 51z" />
<glyph unicode="&#xa8;" d="M248 1329q0 29 10 70q10 39 55 45l95 14q43 7 63 -18q37 -47 37 -113q0 -76 -41 -119q-39 -16 -92 -16q-127 0 -127 137zM698 1329q0 33 13 70q8 39 53 45l94 14q44 7 64 -18q37 -47 36 -113q0 -74 -38 -119q-39 -16 -93 -16q-129 0 -129 137z" />
<glyph unicode="&#xa9;" horiz-adv-x="1646" d="M109 696q0 297 208.5 505t505.5 208t506 -208t209 -505t-209 -506.5t-506 -209.5t-505.5 209.5t-208.5 506.5zM211 696q0 -258 179 -439t433 -181q252 0 431.5 181t179.5 439t-179.5 438.5t-431.5 180.5q-254 0 -433 -180.5t-179 -438.5zM461 700q0 186 98.5 296 t278.5 110q125 0 205.5 -56.5t80.5 -144.5q0 -33 -10 -59q-14 -37 -59 -37h-39q-47 0 -51 51q-4 55 -13 82q-51 18 -112 19q-90 0 -152 -37q-59 -76 -59 -217q0 -270 235 -271q80 0 170 35q45 18 68 -27l6 -14q20 -45 -16 -70q-106 -68 -252 -67q-178 0 -278.5 108.5 t-100.5 298.5z" />
<glyph unicode="&#xaa;" horiz-adv-x="905" d="M94 809q0 123 115 189.5t334 66.5h37v39q0 84 -36 124t-114 40q-86 0 -166 -43q-45 -23 -71 14l-15 18q-33 39 8 72q113 80 265 80q135 0 211.5 -67.5t76.5 -204.5v-293q0 -55 11 -92q33 -4 53 -4q51 -4 51 -54v-18q0 -45 -35 -60q-45 -20 -94 -20q-102 0 -133 90 q-109 -90 -252 -90q-111 0 -178.5 57.5t-67.5 155.5zM260 840q0 -103 131 -103q90 0 189 51v173h-39q-178 0 -265 -52q-16 -33 -16 -69z" />
<glyph unicode="&#xab;" horiz-adv-x="1050" d="M92 485v54q0 37 19 63l204 303q20 33 62 33h82q29 0 40 -17.5t-3 -43.5l-199 -365l192 -352q14 -25 5 -42.5t-37 -21.5l-72 -12q-41 -6 -66 27l-208 311q-18 27 -19 63zM573 485v54q0 37 19 63l205 303q20 33 61 33h82q29 0 40 -17.5t-3 -43.5l-199 -365l193 -352 q14 -25 5 -42.5t-38 -21.5l-72 -12q-40 -6 -65 27l-209 311q-18 27 -19 63z" />
<glyph unicode="&#xad;" horiz-adv-x="759" d="M61 582v65q0 51 52 51h534q51 0 51 -51v-65q0 -51 -51 -52h-534q-51 0 -52 52z" />
<glyph unicode="&#xae;" horiz-adv-x="1646" d="M109 696q0 297 208.5 505t505.5 208t506 -208t209 -505t-209 -506.5t-506 -209.5t-505.5 209.5t-208.5 506.5zM211 696q0 -258 179 -439t433 -181q252 0 431.5 181t179.5 439t-179.5 438.5t-431.5 180.5q-254 0 -433 -180.5t-179 -438.5zM522 365v679q0 49 49 54 q100 8 183 8q170 0 263 -66.5t93 -183.5q0 -133 -125 -221l47 -96q31 -57 60 -84q29 -4 51 -4q51 -4 51 -54v-32q0 -46 -33 -60q-31 -12 -71 -12q-109 0 -168 110l-80 162h-160v-200q0 -51 -51 -52h-58q-51 0 -51 52zM684 705h180q78 45 78 133q0 123 -170 123q-35 0 -88 -5 v-251z" />
<glyph unicode="&#xb0;" horiz-adv-x="827" d="M109 1106q0 127 89 215t216 88t216 -88t89 -215t-89 -216t-216 -89t-216 89t-89 216zM258 1106q0 -70 45 -117t113 -47q63 0 108 47t45 117q0 68 -45 115t-108 47q-68 0 -113 -46t-45 -116z" />
<glyph unicode="&#xb2;" horiz-adv-x="772" d="M96 971q-10 35 21 61l100 98q18 18 58 55.5t58.5 54.5t48.5 48t43 49.5t29.5 43t22.5 45t6 40.5q0 49 -34.5 75t-86.5 26q-70 0 -143 -43q-41 -25 -72 8l-18 18q-41 41 0 72q100 86 254 86q133 0 199.5 -64.5t66.5 -154.5q0 -66 -40 -135.5t-86 -118.5t-128 -127 q-6 -6 -10 -9t-10 -9.5t-10 -10.5l-31 -28h293q51 0 51 -52v-34q0 -51 -51 -52h-467q-47 0 -58 37z" />
<glyph unicode="&#xb3;" horiz-adv-x="747" d="M104 1014l19 28q23 39 67 21q72 -29 150 -29q150 0 149 99q0 51 -45 77.5t-118 26.5q-37 0 -37 43v45q0 43 33 43q70 0 108.5 33t38.5 76q0 39 -33 64.5t-90 25.5q-66 0 -125 -33q-43 -23 -71 8l-19 21q-39 39 2 71q96 74 234 74q125 0 195.5 -56.5t70.5 -146.5 q0 -131 -127 -196q147 -51 147 -191q0 -106 -85 -165.5t-214 -59.5t-235 51q-45 27 -15 70z" />
<glyph unicode="&#xb4;" d="M346 1206q-20 43 19 70l280 190q31 23 74 17q78 -10 131 -35q33 -16 33 -51v-23q0 -33 -41 -49l-422 -154q-47 -16 -68 25z" />
<glyph unicode="&#xb7;" horiz-adv-x="536" d="M129 670q0 41 16 86q10 39 56 45l106 14q39 7 64 -20q37 -53 37 -121q0 -84 -43 -129q-49 -18 -111 -19q-57 4 -91 40t-34 104z" />
<glyph unicode="&#xb8;" d="M397 -414l6 33q10 51 60 41q94 -16 188 -16q23 25 23 59q0 84 -125 84q-43 0 -43 51v174h149v-127q74 0 121 -47t47 -119q0 -84 -70.5 -145t-205.5 -61q-63 0 -113 12q-47 10 -37 61z" />
<glyph unicode="&#xb9;" horiz-adv-x="473" d="M0 1583v19q0 45 47 55l174 31h72q51 -1 51 -52v-671q0 -51 -51 -52h-57q-51 0 -52 52v567h-133q-51 0 -51 51z" />
<glyph unicode="&#xba;" horiz-adv-x="937" d="M94 1008q0 184 99.5 292.5t275.5 108.5t275.5 -109.5t99.5 -293.5q0 -188 -100.5 -299t-274.5 -111q-176 0 -275.5 112.5t-99.5 299.5zM260 1006q0 -266 213 -267q88 0 150 37q57 82 57 228q0 121 -52 192.5t-165 71.5q-84 0 -146 -37q-57 -78 -57 -225z" />
<glyph unicode="&#xbb;" horiz-adv-x="1050" d="M70.5 103.5q-11.5 17.5 3.5 43.5l198 365l-192 352q-14 25 -5 42.5t38 21.5l71 12q41 6 66 -27l209 -311q18 -27 18 -63v-54q0 -37 -18 -63l-205 -303q-20 -33 -61 -33h-82q-29 0 -40.5 17.5zM552 103.5q-11 17.5 3 43.5l199 365l-193 352q-14 25 -5 42.5t38 21.5l72 12 q40 6 65 -27l209 -311q18 -27 18 -63v-54q0 -37 -18 -63l-205 -303q-20 -33 -61 -33h-82q-29 0 -40 17.5z" />
<glyph unicode="&#xbf;" horiz-adv-x="1048" d="M129 -70q0 76 29.5 142.5t62.5 104.5t96 97q57 57 78 80t45.5 72t24.5 100.5t51 51.5h92q51 0 51 -54q0 -94 -32.5 -171t-70.5 -117.5t-120 -114.5q-39 -35 -56.5 -52.5t-34.5 -51t-17 -70.5q0 -154 252 -154q84 0 149 21q12 115 10 209h162q39 -57 39 -136 q0 -131 -110.5 -203.5t-286.5 -72.5q-188 0 -301 81t-113 238zM420 893q0 41 16 86q10 37 56 43l106 14q39 7 64 -20q37 -53 36 -121q0 -80 -43 -127q-43 -18 -108 -18q-59 4 -93 39.5t-34 103.5z" />
<glyph unicode="&#xc0;" horiz-adv-x="1370" d="M49 59l502 1291q14 39 55 41l152 10q45 4 61 -37l502 -1305q10 -27 -1 -43t-40 -16h-119q-45 0 -59 41l-141 367h-564l-141 -367q-14 -41 -59 -41h-107q-29 0 -40 16.5t-1 42.5zM412 1743v20q0 35 34 54q57 27 140 34q32 7 63 -16l281 -190q41 -29 18 -70l-6 -10 q-23 -41 -68 -25l-421 154q-41 16 -41 49zM469 594h420l-211 543z" />
<glyph unicode="&#xc1;" horiz-adv-x="1370" d="M49 59l502 1291q14 39 55 41l152 10q45 4 61 -37l502 -1305q10 -27 -1 -43t-40 -16h-119q-45 0 -59 41l-141 367h-564l-141 -367q-14 -41 -59 -41h-107q-29 0 -40 16.5t-1 42.5zM442 1575q-20 43 19 70l280 190q31 22 74 16q78 -10 131 -34q33 -16 33 -52v-22 q0 -33 -41 -49l-422 -154q-47 -16 -67 25zM469 594h420l-211 543z" />
<glyph unicode="&#xc2;" horiz-adv-x="1370" d="M49 59l502 1291q14 39 55 41l152 10q45 4 61 -37l502 -1305q10 -27 -1 -43t-40 -16h-119q-45 0 -59 41l-141 367h-564l-141 -367q-14 -41 -59 -41h-107q-29 0 -40 16.5t-1 42.5zM352 1577q-27 43 13 72l237 182q33 23 64 22h53q30 1 63 -22l236 -182q37 -31 12 -72l-4 -6 q-25 -43 -68 -21l-266 125l-266 -125q-45 -18 -70 21zM469 594h420l-211 543z" />
<glyph unicode="&#xc3;" horiz-adv-x="1370" d="M49 59l502 1291q14 39 55 41l152 10q45 4 61 -37l502 -1305q10 -27 -1 -43t-40 -16h-119q-45 0 -59 41l-141 367h-564l-141 -367q-14 -41 -59 -41h-107q-29 0 -40 16.5t-1 42.5zM319 1663q113 182 222 182q70 0 135 -39l174 -90l131 99q37 27 72 -3l8 -6q37 -31 12 -71 q-117 -182 -223 -183q-68 0 -135 39l-174 90l-129 -98q-39 -29 -72 2l-8 6q-37 31 -13 72zM469 594h420l-211 543z" />
<glyph unicode="&#xc6;" horiz-adv-x="1961" d="M57 16.5q-10 16.5 4 44.5l746 1293q20 35 61 35h879q51 0 51 -52v-84q0 -51 -51 -51h-602v-416h504q51 0 51 -51v-76q0 -51 -51 -51h-504v-420h637q51 0 51 -51v-86q0 -51 -51 -51h-789q-51 0 -51 51v377h-453l-227 -393q-20 -35 -61 -35h-103q-31 0 -41 16.5zM594 610 h348v604z" />
<glyph unicode="&#xc7;" horiz-adv-x="1341" d="M129 692q0 326 162 521.5t463 195.5q209 0 330.5 -84t121.5 -229q0 -63 -30 -133q-16 -35 -62 -35h-61q-51 0 -52 51q-4 129 -22 199q-94 35 -229 34q-168 0 -279 -71q-57 -70 -95 -191t-38 -254q0 -240 108.5 -379t344.5 -139q152 0 313 74q45 23 67 -23l33 -63 q25 -45 -16 -70q-147 -100 -359 -114v-97q74 0 121 -47t47 -119q0 -84 -70.5 -145t-205.5 -61q-63 0 -113 12q-47 10 -37 61l7 33q10 51 59 41q94 -16 188 -16q23 25 23 59q0 84 -125 84q-43 0 -43 51v146q-264 27 -407.5 212t-143.5 496z" />
<glyph unicode="&#xc8;" horiz-adv-x="1251" d="M229 51v1286q0 51 52 52h755q51 -1 51 -52v-84q0 -51 -51 -51h-602v-416h504q51 0 51 -51v-76q0 -51 -51 -51h-504v-420h635q51 0 51 -51v-86q0 -51 -51 -51h-788q-51 0 -52 51zM416 1743v20q0 35 35 54q57 27 139 34q32 7 63 -16l281 -190q41 -29 18 -70l-6 -10 q-23 -41 -67 -25l-422 154q-41 16 -41 49z" />
<glyph unicode="&#xc9;" horiz-adv-x="1251" d="M229 51v1286q0 51 52 52h755q51 -1 51 -52v-84q0 -51 -51 -51h-602v-416h504q51 0 51 -51v-76q0 -51 -51 -51h-504v-420h635q51 0 51 -51v-86q0 -51 -51 -51h-788q-51 0 -52 51zM449 1575q-20 43 18 70l281 190q30 22 73 16q78 -10 131 -34q33 -16 33 -52v-22 q0 -33 -41 -49l-422 -154q-47 -16 -67 25z" />
<glyph unicode="&#xca;" horiz-adv-x="1251" d="M229 51v1286q0 51 52 52h755q51 -1 51 -52v-84q0 -51 -51 -51h-602v-416h504q51 0 51 -51v-76q0 -51 -51 -51h-504v-420h635q51 0 51 -51v-86q0 -51 -51 -51h-788q-51 0 -52 51zM342 1577q-27 43 12 72l238 182q33 23 63 22h54q30 1 63 -22l236 -182q37 -31 12 -72l-4 -6 q-25 -43 -68 -21l-266 125l-266 -125q-45 -18 -70 21z" />
<glyph unicode="&#xcb;" horiz-adv-x="1251" d="M229 51v1286q0 51 52 52h755q51 -1 51 -52v-84q0 -51 -51 -51h-602v-416h504q51 0 51 -51v-76q0 -51 -51 -51h-504v-420h635q51 0 51 -51v-86q0 -51 -51 -51h-788q-51 0 -52 51zM328 1698q0 29 10 69q10 39 55 45l94 15q44 6 64 -19q37 -45 37 -112q0 -76 -41 -119 q-39 -16 -92 -16q-127 0 -127 137zM778 1698q0 33 13 69q8 39 53 45l94 15q43 6 63 -19q37 -45 37 -112q0 -74 -39 -119q-39 -16 -92 -16q-129 0 -129 137z" />
<glyph unicode="&#xcd;" horiz-adv-x="663" d="M154 1571q-29 41 6 71l205 189q28 28 63 22q45 -2 88 -22q35 -16 35 -51v-27q0 -31 -37 -53l-283 -154q-41 -23 -69 15zM229 51v1286q0 51 52 52h102q51 -1 51 -52v-1286q0 -51 -51 -51h-102q-51 0 -52 51z" />
<glyph unicode="&#xcf;" horiz-adv-x="663" d="M31 1698q0 31 10 67q12 41 53 47l84 15q44 6 64 -19q35 -47 34 -112q0 -74 -38 -119q-35 -16 -86 -16q-121 0 -121 137zM229 51v1286q0 51 52 52h102q51 -1 51 -52v-1286q0 -51 -51 -51h-102q-51 0 -52 51zM387 1698q0 29 10 69q8 39 54 45l84 15q43 6 63 -19 q35 -47 35 -112q0 -70 -39 -119q-39 -16 -86 -16q-121 0 -121 137z" />
<glyph unicode="&#xd1;" horiz-adv-x="1544" d="M229 51v1288q0 49 50 54l108 8q41 4 64 -31l669 -991v958q0 51 51 52h91q51 0 51 -52v-1286q0 -51 -51 -51h-103q-41 0 -61 33l-674 991v-973q0 -51 -51 -51h-92q-51 0 -52 51zM442 1663q113 182 222 182q70 0 135 -39l174 -90l131 99q37 27 72 -3l8 -6q37 -31 12 -71 q-117 -182 -223 -183q-68 0 -135 39l-174 90l-129 -98q-39 -29 -72 2l-8 6q-37 31 -13 72z" />
<glyph unicode="&#xd3;" horiz-adv-x="1513" d="M129 709q0 322 164 511t463 189t463.5 -192.5t164.5 -516.5q0 -336 -163.5 -528t-464.5 -192t-464 196.5t-163 532.5zM338 698q0 -236 105.5 -378t330.5 -142q154 0 273 72q129 154 129 440q0 233 -106 377.5t-329 144.5q-164 0 -274 -73q-129 -168 -129 -441zM516 1575 q-20 43 19 70l280 190q31 22 74 16q78 -10 131 -34q33 -16 33 -52v-22q0 -33 -41 -49l-422 -154q-47 -16 -68 25z" />
<glyph unicode="&#xd4;" horiz-adv-x="1513" d="M129 709q0 322 164 511t463 189t463.5 -192.5t164.5 -516.5q0 -336 -163.5 -528t-464.5 -192t-464 196.5t-163 532.5zM338 698q0 -236 105.5 -378t330.5 -142q154 0 273 72q129 154 129 440q0 233 -106 377.5t-329 144.5q-164 0 -274 -73q-129 -168 -129 -441zM426 1577 q-27 43 12 72l238 182q33 23 63 22h54q30 1 63 -22l236 -182q37 -31 12 -72l-4 -6q-25 -43 -68 -21l-266 125l-266 -125q-45 -18 -70 21z" />
<glyph unicode="&#xd5;" horiz-adv-x="1513" d="M129 709q0 322 164 511t463 189t463.5 -192.5t164.5 -516.5q0 -336 -163.5 -528t-464.5 -192t-464 196.5t-163 532.5zM338 698q0 -236 105.5 -378t330.5 -142q154 0 273 72q129 154 129 440q0 233 -106 377.5t-329 144.5q-164 0 -274 -73q-129 -168 -129 -441zM391 1663 q112 182 221 182q70 0 136 -39l174 -90l131 99q37 27 71 -3l9 -6q37 -31 12 -71q-117 -182 -223 -183q-68 0 -136 39l-174 90l-129 -98q-39 -29 -71 2l-9 6q-37 31 -12 72z" />
<glyph unicode="&#xd6;" horiz-adv-x="1511" d="M129 709q0 322 164 511t463 189t463.5 -192.5t164.5 -516.5q0 -336 -163.5 -528t-464.5 -192t-464 196.5t-163 532.5zM338 698q0 -236 105.5 -378t330.5 -142q154 0 273 72q129 154 129 440q0 233 -106 377.5t-329 144.5q-164 0 -274 -73q-129 -168 -129 -441zM410 1698 q0 29 10 69q10 39 55 45l94 15q44 6 64 -19q37 -45 37 -112q0 -76 -41 -119q-39 -16 -92 -16q-127 0 -127 137zM860 1698q0 33 12 69q8 39 54 45l94 15q43 6 63 -19q37 -45 37 -112q0 -74 -39 -119q-39 -16 -92 -16q-129 0 -129 137z" />
<glyph unicode="&#xd7;" horiz-adv-x="1050" d="M115 365q-37 33 2 71l286 271l-286 268q-37 37 -2 72l47 47q37 37 74 0l290 -273l291 273q37 37 74 0l47 -47q35 -35 -2 -72l-287 -268l287 -271q37 -37 2 -71l-49 -48q-37 -35 -72 0l-291 273l-290 -273q-35 -35 -72 0z" />
<glyph unicode="&#xda;" horiz-adv-x="1517" d="M207 530v807q0 51 51 52h100q52 -1 52 -52v-762q0 -209 89 -303t267 -94q174 0 258 96.5t84 300.5v762q0 51 51 52h101q51 0 51 -52v-807q0 -274 -153.5 -412t-401.5 -138q-246 0 -397.5 139t-151.5 411zM532 1575q-20 43 19 70l280 190q31 22 74 16q78 -10 131 -34 q33 -16 33 -52v-22q0 -33 -41 -49l-422 -154q-47 -16 -67 25z" />
<glyph unicode="&#xdc;" horiz-adv-x="1517" d="M207 530v807q0 51 51 52h100q52 -1 52 -52v-762q0 -209 89 -303t267 -94q174 0 258 96.5t84 300.5v762q0 51 51 52h101q51 0 51 -52v-807q0 -274 -153.5 -412t-401.5 -138q-246 0 -397.5 139t-151.5 411zM424 1698q0 29 10 69q10 39 55 45l95 15q43 6 63 -19 q37 -45 37 -112q0 -76 -41 -119q-39 -16 -92 -16q-127 0 -127 137zM874 1698q0 33 13 69q8 39 53 45l94 15q44 6 64 -19q37 -45 37 -112q0 -74 -39 -119q-39 -16 -92 -16q-129 0 -130 137z" />
<glyph unicode="&#xe0;" horiz-adv-x="1144" d="M109 258q0 158 149.5 242t431.5 84h51v51q0 119 -53 171t-176 52q-90 0 -145 -27q-8 -47 -11 -83q-4 -51 -51 -52h-72q-45 0 -59 35q-10 31 -10 60q0 109 110.5 179t274.5 70q182 0 284.5 -89t102.5 -267v-383q0 -82 14 -123q27 -4 86 -8q51 0 51 -51v-51q1 -44 -32 -60 q-57 -29 -129 -28q-133 0 -170 118q-141 -119 -330 -118q-143 0 -230 74.5t-87 203.5zM295 1374v21q0 35 35 53q57 27 139 35q32 6 63 -17l281 -190q41 -29 18 -70l-6 -10q-23 -41 -67 -25l-422 154q-41 16 -41 49zM309 293q0 -133 176 -133q121 0 256 65v228q-20 2 -55 2 q-233 0 -350 -68q-27 -47 -27 -94z" />
<glyph unicode="&#xe1;" horiz-adv-x="1144" d="M109 258q0 158 149.5 242t431.5 84h51v51q0 119 -53 171t-176 52q-90 0 -145 -27q-8 -47 -11 -83q-4 -51 -51 -52h-72q-45 0 -59 35q-10 31 -10 60q0 109 110.5 179t274.5 70q182 0 284.5 -89t102.5 -267v-383q0 -82 14 -123q27 -4 86 -8q51 0 51 -51v-51q1 -44 -32 -60 q-57 -29 -129 -28q-133 0 -170 118q-141 -119 -330 -118q-143 0 -230 74.5t-87 203.5zM309 293q0 -133 176 -133q121 0 256 65v228q-20 2 -55 2q-233 0 -350 -68q-27 -47 -27 -94zM326 1206q-20 43 18 70l281 190q30 23 73 17q78 -10 131 -35q33 -16 33 -51v-23 q0 -33 -41 -49l-422 -154q-47 -16 -67 25z" />
<glyph unicode="&#xe2;" horiz-adv-x="1144" d="M109 258q0 158 149.5 242t431.5 84h51v51q0 119 -53 171t-176 52q-90 0 -145 -27q-8 -47 -11 -83q-4 -51 -51 -52h-72q-45 0 -59 35q-10 31 -10 60q0 109 110.5 179t274.5 70q182 0 284.5 -89t102.5 -267v-383q0 -82 14 -123q27 -4 86 -8q51 0 51 -51v-51q1 -44 -32 -60 q-57 -29 -129 -28q-133 0 -170 118q-141 -119 -330 -118q-143 0 -230 74.5t-87 203.5zM236 1208q-27 43 12 72l237 182q33 23 64 23h53q31 0 64 -23l235 -182q37 -31 12 -72l-4 -6q-25 -43 -67 -20l-267 125l-266 -125q-45 -18 -69 20zM309 293q0 -133 176 -133 q121 0 256 65v228q-20 2 -55 2q-233 0 -350 -68q-27 -47 -27 -94z" />
<glyph unicode="&#xe3;" horiz-adv-x="1144" d="M109 258q0 158 149.5 242t431.5 84h51v51q0 119 -53 171t-176 52q-90 0 -145 -27q-8 -47 -11 -83q-4 -51 -51 -52h-72q-45 0 -59 35q-10 31 -10 60q0 109 110.5 179t274.5 70q182 0 284.5 -89t102.5 -267v-383q0 -82 14 -123q27 -4 86 -8q51 0 51 -51v-51q1 -44 -32 -60 q-57 -29 -129 -28q-133 0 -170 118q-141 -119 -330 -118q-143 0 -230 74.5t-87 203.5zM203 1294q112 183 221 183q70 0 135 -39l174 -90l131 98q37 27 72 -2l8 -6q37 -31 12 -72q-117 -182 -223 -182q-68 0 -135 39l-174 90l-129 -99q-39 -29 -72 3l-8 6q-37 31 -12 71z M309 293q0 -133 176 -133q121 0 256 65v228q-20 2 -55 2q-233 0 -350 -68q-27 -47 -27 -94z" />
<glyph unicode="&#xe6;" horiz-adv-x="1720" d="M109 258q0 158 149.5 242t431.5 84h51v51q0 119 -53 171t-174 52q-88 0 -156 -20q-8 -45 -10 -90q-4 -51 -51 -52h-64q-45 0 -59 33q-12 31 -12 62q0 109 112.5 179t276.5 70q236 0 321 -147q123 147 347 147q182 0 287.5 -103t105.5 -284q0 -70 -17 -141 q-12 -43 -57 -43l-598 -14q16 -291 309 -291q125 0 240 49q47 23 70 -25l18 -38q20 -43 -16 -70q-143 -102 -342 -100q-287 4 -396 206q-143 -209 -397 -206q-139 0 -228 75.5t-89 202.5zM309 293q0 -66 48.5 -101.5t123.5 -35.5q90 0 162 42t113 117q-9 58 -13 138h-59 q-233 0 -348 -66q-27 -41 -27 -94zM940 584l473 18q4 20 4 57q0 199 -207 199q-115 0 -194 -49q-63 -86 -76 -225z" />
<glyph unicode="&#xe7;" horiz-adv-x="1054" d="M109 510q0 244 126.5 387t356.5 143q162 0 264 -73.5t102 -190.5q0 -45 -16 -84q-14 -37 -59 -37h-66q-49 0 -53 52q-4 88 -14 124q-63 27 -158 27q-121 0 -201 -49q-80 -100 -80 -289q0 -356 312 -356q125 0 239 49q47 23 70 -25l18 -38q20 -43 -16 -70 q-109 -78 -270 -96v-99q74 0 120.5 -47t46.5 -119q0 -84 -70.5 -145t-205.5 -61q-63 0 -113 12q-47 10 -36 61l6 33q10 51 59 41q94 -16 188 -16q23 25 23 59q0 84 -125 84q-43 0 -43 51v146q-195 25 -300 164t-105 362z" />
<glyph unicode="&#xe8;" horiz-adv-x="1093" d="M109 504q0 246 126.5 391t356.5 145q182 0 287.5 -103t105.5 -284q0 -74 -16 -141q-10 -43 -58 -43l-598 -14q25 -291 310 -291q125 0 239 49q47 23 70 -25l18 -38q20 -43 -16 -70q-139 -100 -340 -100q-229 0 -357 141t-128 383zM297 1374v21q0 35 35 53q57 27 139 35 q33 6 64 -17l280 -190q41 -29 19 -70l-7 -10q-23 -41 -67 -25l-422 154q-41 16 -41 49zM315 586l471 16q6 31 7 57q0 199 -207 199q-115 0 -195 -49q-63 -80 -76 -223z" />
<glyph unicode="&#xe9;" horiz-adv-x="1093" d="M109 504q0 246 126.5 391t356.5 145q182 0 287.5 -103t105.5 -284q0 -74 -16 -141q-10 -43 -58 -43l-598 -14q25 -291 310 -291q125 0 239 49q47 23 70 -25l18 -38q20 -43 -16 -70q-139 -100 -340 -100q-229 0 -357 141t-128 383zM315 586l471 16q6 31 7 57 q0 199 -207 199q-115 0 -195 -49q-63 -80 -76 -223zM330 1206q-20 43 18 70l281 190q30 23 73 17q78 -10 132 -35q33 -16 32 -51v-23q0 -33 -41 -49l-422 -154q-47 -16 -67 25z" />
<glyph unicode="&#xea;" horiz-adv-x="1093" d="M109 504q0 246 126.5 391t356.5 145q182 0 287.5 -103t105.5 -284q0 -74 -16 -141q-10 -43 -58 -43l-598 -14q25 -291 310 -291q125 0 239 49q47 23 70 -25l18 -38q20 -43 -16 -70q-139 -100 -340 -100q-229 0 -357 141t-128 383zM242 1208q-27 43 12 72l238 182 q33 23 63 23h53q31 0 64 -23l235 -182q37 -31 13 -72l-5 -6q-25 -43 -67 -20l-266 125l-267 -125q-45 -18 -69 20zM315 586l471 16q6 31 7 57q0 199 -207 199q-115 0 -195 -49q-63 -80 -76 -223z" />
<glyph unicode="&#xeb;" horiz-adv-x="1093" d="M109 504q0 246 126.5 391t356.5 145q182 0 287.5 -103t105.5 -284q0 -74 -16 -141q-10 -43 -58 -43l-598 -14q25 -291 310 -291q125 0 239 49q47 23 70 -25l18 -38q20 -43 -16 -70q-139 -100 -340 -100q-229 0 -357 141t-128 383zM225 1329q0 29 11 70q10 39 55 45l94 14 q44 7 64 -18q37 -47 36 -113q0 -76 -41 -119q-39 -16 -92 -16q-127 0 -127 137zM315 586l471 16q6 31 7 57q0 199 -207 199q-115 0 -195 -49q-63 -80 -76 -223zM676 1329q0 33 12 70q8 39 53 45l95 14q43 7 63 -18q37 -47 37 -113q0 -74 -39 -119q-39 -16 -92 -16 q-129 0 -129 137z" />
<glyph unicode="&#xed;" horiz-adv-x="585" d="M109 1202q-29 41 6 72l204 188q29 29 64 23q45 -2 88 -23q35 -16 35 -51v-27q0 -33 -37 -53l-283 -153q-41 -23 -69 14zM182 193v776q0 51 51 51h93q51 0 51 -51v-668q0 -82 14 -123q25 -4 86 -8q51 0 51 -51v-51q0 -43 -32 -60q-57 -29 -129 -28q-88 0 -136.5 54 t-48.5 159z" />
<glyph unicode="&#xef;" horiz-adv-x="585" d="M-14 1329q0 31 10 68q12 41 53 47l84 14q44 7 64 -18q35 -47 34 -113q0 -74 -38 -119q-35 -16 -87 -16q-121 0 -120 137zM182 193v776q0 51 51 51h93q51 0 51 -51v-668q0 -82 14 -123q25 -4 86 -8q51 0 51 -51v-51q0 -43 -32 -60q-57 -29 -129 -28q-88 0 -136.5 54 t-48.5 159zM342 1329q0 29 10 70q8 39 54 45l83 14q44 7 64 -18q35 -47 35 -113q0 -70 -39 -119q-39 -16 -86 -16q-121 0 -121 137z" />
<glyph unicode="&#xf1;" horiz-adv-x="1284" d="M131 893q-31 41 6 72l64 51q34 28 67 8q59 -39 86 -109q150 125 346 125q172 0 273.5 -92t101.5 -262v-385q0 -72 15 -123q27 -4 86 -8q51 0 51 -51v-51q0 -43 -33 -60q-57 -29 -129 -28q-88 0 -136 54t-48 159v409q0 135 -59.5 195.5t-188.5 60.5q-115 0 -254 -61 q8 -61 8 -117v-629q0 -51 -51 -51h-92q-51 0 -51 51v596q0 158 -62 246zM287 1294q112 183 221 183q70 0 135 -39l174 -90l131 98q37 27 72 -2l8 -6q37 -31 12 -72q-117 -182 -223 -182q-68 0 -135 39l-174 90l-129 -99q-39 -29 -72 3l-8 6q-37 31 -12 71z" />
<glyph unicode="&#xf3;" horiz-adv-x="1196" d="M109 522q0 238 126.5 378t360 140t362.5 -143t129 -383q0 -248 -128 -391t-363 -143q-233 0 -360 146t-127 396zM311 512q0 -160 71 -254t224 -94q115 0 199 47q80 98 80 297q0 160 -69.5 255t-223.5 95q-119 0 -201 -49q-80 -104 -80 -297zM354 1206q-20 43 19 70 l280 190q31 23 74 17q78 -10 131 -35q33 -16 33 -51v-23q0 -33 -41 -49l-422 -154q-47 -16 -68 25z" />
<glyph unicode="&#xf4;" horiz-adv-x="1196" d="M109 522q0 238 126.5 378t360 140t362.5 -143t129 -383q0 -248 -128 -391t-363 -143q-233 0 -360 146t-127 396zM264 1208q-27 43 12 72l238 182q33 23 64 23h53q30 0 63 -23l236 -182q37 -31 12 -72l-4 -6q-25 -43 -68 -20l-266 125l-266 -125q-45 -18 -70 20zM311 512 q0 -160 71 -254t224 -94q115 0 199 47q80 98 80 297q0 160 -69.5 255t-223.5 95q-119 0 -201 -49q-80 -104 -80 -297z" />
<glyph unicode="&#xf5;" horiz-adv-x="1196" d="M109 522q0 238 126.5 378t360 140t362.5 -143t129 -383q0 -248 -128 -391t-363 -143q-233 0 -360 146t-127 396zM231 1294q113 183 222 183q70 0 135 -39l174 -90l131 98q37 27 72 -2l8 -6q37 -31 12 -72q-117 -182 -223 -182q-68 0 -135 39l-174 90l-129 -99 q-39 -29 -72 3l-8 6q-37 31 -13 71zM311 512q0 -160 71 -254t224 -94q115 0 199 47q80 98 80 297q0 160 -69.5 255t-223.5 95q-119 0 -201 -49q-80 -104 -80 -297z" />
<glyph unicode="&#xf6;" horiz-adv-x="1196" d="M109 522q0 238 126.5 378t360 140t362.5 -143t129 -383q0 -248 -128 -391t-363 -143q-233 0 -360 146t-127 396zM250 1329q0 29 10 70q10 39 55 45l95 14q43 7 63 -18q37 -47 37 -113q0 -76 -41 -119q-39 -16 -92 -16q-127 0 -127 137zM311 512q0 -160 71 -254t224 -94 q115 0 199 47q80 98 80 297q0 160 -69.5 255t-223.5 95q-119 0 -201 -49q-80 -104 -80 -297zM700 1329q0 33 13 70q8 39 53 45l94 14q44 7 64 -18q37 -47 37 -113q0 -74 -39 -119q-39 -16 -93 -16q-129 0 -129 137z" />
<glyph unicode="&#xf7;" horiz-adv-x="1089" d="M61 674v63q0 51 52 51h864q51 0 51 -51v-63q0 -51 -51 -51h-864q-51 0 -52 51zM406 283q0 45 14 86q14 37 55 43l109 14q43 7 61 -20q39 -49 39 -121q0 -80 -43 -127q-43 -18 -111 -19q-57 4 -90.5 40t-33.5 104zM406 1112q0 47 14 88q14 37 55 43l109 14q41 7 61 -20 q39 -51 39 -121q0 -84 -43 -129q-49 -18 -111 -18q-57 4 -90.5 39.5t-33.5 103.5z" />
<glyph unicode="&#xfa;" horiz-adv-x="1259" d="M174 334v635q0 51 51 51h92q52 0 52 -51v-555q0 -137 56 -193.5t179 -56.5q133 0 252 57v748q0 51 51 51h92q51 0 52 -51v-668q0 -82 14 -123q27 -4 86 -8q51 0 51 -51v-51q0 -43 -33 -60q-57 -29 -127 -28q-135 0 -172 114q-143 -115 -329 -114q-170 0 -268.5 92 t-98.5 262zM379 1206q-20 43 18 70l281 190q31 23 74 17q78 -10 131 -35q33 -16 32 -51v-23q0 -33 -41 -49l-421 -154q-47 -16 -68 25z" />
<glyph unicode="&#xfc;" horiz-adv-x="1259" d="M174 334v635q0 51 51 51h92q52 0 52 -51v-555q0 -137 56 -193.5t179 -56.5q133 0 252 57v748q0 51 51 51h92q51 0 52 -51v-668q0 -82 14 -123q27 -4 86 -8q51 0 51 -51v-51q0 -43 -33 -60q-57 -29 -127 -28q-135 0 -172 114q-143 -115 -329 -114q-170 0 -268.5 92 t-98.5 262zM285 1329q0 29 10 70q10 39 55 45l94 14q44 7 64 -18q37 -47 37 -113q0 -76 -41 -119q-39 -16 -92 -16q-127 0 -127 137zM735 1329q0 33 13 70q8 39 53 45l94 14q43 7 63 -18q37 -45 37 -113q0 -74 -39 -119q-39 -16 -92 -16q-129 0 -129 137z" />
<glyph unicode="&#x152;" horiz-adv-x="2068" d="M129 694q0 332 167 523.5t488 191.5q133 0 277 -20h794q51 0 52 -52v-84q0 -51 -52 -51h-604v-416h506q51 0 51 -51v-76q0 -51 -51 -51h-506v-420h637q51 0 51 -51v-86q0 -51 -51 -51h-827q-123 -20 -287 -20q-317 0 -481 191t-164 523zM338 680q0 -227 107.5 -364.5 t340.5 -137.5q143 0 263 23v987q-111 25 -258 24q-213 0 -324 -73q-129 -170 -129 -459z" />
<glyph unicode="&#x153;" horiz-adv-x="1869" d="M109 522q0 238 127 378t360 140q262 0 389 -178q123 178 381 178q184 0 289.5 -103t105.5 -284q0 -70 -16 -141q-12 -43 -57 -43l-598 -14q25 -291 309 -291q125 0 239 49q47 23 70 -25l18 -38q20 -43 -16 -70q-139 -100 -340 -100q-266 0 -393 188q-123 -188 -381 -188 q-233 0 -360 146t-127 396zM311 512q0 -160 71 -254t224 -94q115 0 199 47q80 98 80 297q0 160 -69.5 255t-223.5 95q-119 0 -201 -49q-80 -104 -80 -297zM1092 586l471 16q4 41 4 57q0 199 -205 199q-113 0 -197 -49q-63 -86 -73 -223z" />
<glyph unicode="&#x2c6;" d="M264 1208q-27 43 12 72l238 182q33 23 64 23h53q30 0 63 -23l236 -182q37 -31 12 -72l-4 -6q-25 -43 -68 -20l-266 125l-266 -125q-45 -18 -70 20z" />
<glyph unicode="&#x2dc;" d="M236 1294q112 183 221 183q70 0 135 -39l174 -90l131 98q37 27 72 -2l8 -6q37 -31 12 -72q-117 -182 -223 -182q-68 0 -135 39l-174 90l-129 -99q-39 -29 -72 3l-8 6q-37 31 -12 71z" />
<glyph unicode="&#x2000;" horiz-adv-x="927" />
<glyph unicode="&#x2001;" horiz-adv-x="1854" />
<glyph unicode="&#x2002;" horiz-adv-x="927" />
<glyph unicode="&#x2003;" horiz-adv-x="1854" />
<glyph unicode="&#x2004;" horiz-adv-x="618" />
<glyph unicode="&#x2005;" horiz-adv-x="463" />
<glyph unicode="&#x2006;" horiz-adv-x="309" />
<glyph unicode="&#x2007;" horiz-adv-x="309" />
<glyph unicode="&#x2008;" horiz-adv-x="231" />
<glyph unicode="&#x2009;" horiz-adv-x="370" />
<glyph unicode="&#x200a;" horiz-adv-x="103" />
<glyph unicode="&#x2010;" horiz-adv-x="759" d="M61 582v65q0 51 52 51h534q51 0 51 -51v-65q0 -51 -51 -52h-534q-51 0 -52 52z" />
<glyph unicode="&#x2011;" horiz-adv-x="759" d="M61 582v65q0 51 52 51h534q51 0 51 -51v-65q0 -51 -51 -52h-534q-51 0 -52 52z" />
<glyph unicode="&#x2012;" horiz-adv-x="759" d="M61 582v65q0 51 52 51h534q51 0 51 -51v-65q0 -51 -51 -52h-534q-51 0 -52 52z" />
<glyph unicode="&#x2013;" horiz-adv-x="1134" d="M61 582v65q0 51 52 51h909q51 0 51 -51v-65q0 -51 -51 -52h-909q-51 0 -52 52z" />
<glyph unicode="&#x2014;" horiz-adv-x="1835" d="M61 582v65q0 51 52 51h1609q52 0 52 -51v-65q0 -51 -52 -52h-1609q-51 0 -52 52z" />
<glyph unicode="&#x2018;" horiz-adv-x="516" d="M129 1092q0 82 54.5 177t142.5 163q37 29 71 -7l17 -14q33 -31 8 -72q-78 -139 -51 -323q6 -51 -41 -60l-105 -16q-41 -6 -57 14q-39 53 -39 138z" />
<glyph unicode="&#x2019;" horiz-adv-x="514" d="M92 1055q76 133 51 321q-6 51 41 60l105 16q43 6 55 -14q41 -51 41 -138q0 -80 -54.5 -175t-142.5 -164q-37 -29 -71 6l-17 16q-29 29 -8 72z" />
<glyph unicode="&#x201c;" horiz-adv-x="919" d="M129 1092q0 82 54.5 177t142.5 163q37 29 71 -7l17 -14q33 -31 8 -72q-78 -139 -51 -323q6 -51 -41 -60l-105 -16q-41 -6 -57 14q-39 53 -39 138zM535 1092q0 82 53 177t141 163q37 29 72 -7l16 -14q33 -31 8 -72q-78 -139 -49 -323q6 -51 -41 -60l-106 -16 q-42 -6 -56 14q-39 57 -38 138z" />
<glyph unicode="&#x201d;" horiz-adv-x="917" d="M92 1055q76 133 51 321q-6 51 41 60l105 16q43 6 55 -14q41 -51 41 -138q0 -80 -54.5 -175t-142.5 -164q-37 -29 -71 6l-17 16q-29 29 -8 72zM498 1055q76 133 51 321q-6 51 41 60l104 16q44 6 56 -14q39 -53 38 -138q0 -82 -53 -177t-141 -162q-35 -27 -72 6l-16 16 q-33 31 -8 72z" />
<glyph unicode="&#x2022;" horiz-adv-x="931" d="M66 712.5q0 55.5 36.5 88.5t85.5 33q63 0 127 -46.5t64 -75t-63.5 -74.5t-127.5 -46q-49 0 -85.5 32.5t-36.5 88zM344 434q0 63 46 127t75 64t75 -63.5t46 -127.5q0 -49 -33 -85t-88 -36t-88 36t-33 85zM344 991q0 49 33 85t88 36t88 -36t33 -85q0 -63 -46 -126.5 t-75 -63.5t-75 63.5t-46 126.5zM553 713q0 29 63.5 75t126.5 46q49 0 86 -33t37 -88q0 -53 -36.5 -87t-86.5 -34q-63 0 -126.5 47t-63.5 74z" />
<glyph unicode="&#x2026;" horiz-adv-x="1495" d="M129 121q0 39 14 86q12 39 56 45l108 14q42 7 62 -20q39 -51 39 -121q0 -76 -43 -129q-43 -16 -111 -16q-57 4 -91 39.5t-34 101.5zM610 121q0 43 13 86q12 39 55 45l108 14q42 7 62 -20q39 -51 39 -121q0 -80 -43 -129q-43 -16 -111 -16q-123 6 -123 141zM1090 121 q0 47 14 88q10 37 55 43l107 14q38 7 63 -20q37 -53 37 -121q0 -80 -43 -129q-47 -16 -111 -16q-57 4 -89.5 39.5t-32.5 101.5z" />
<glyph unicode="&#x202f;" horiz-adv-x="370" />
<glyph unicode="&#x2039;" horiz-adv-x="569" d="M92 485v54q0 35 19 63l190 285q23 31 57 37l99 14q31 4 42 -12t-3 -45l-199 -369l199 -365q14 -27 2.5 -44t-39.5 -17h-84q-41 0 -62 33l-202 303q-18 29 -19 63z" />
<glyph unicode="&#x203a;" horiz-adv-x="569" d="M70.5 103.5q-11.5 17.5 3.5 43.5l198 365l-192 352q-14 25 -5 42.5t38 21.5l71 12q41 6 66 -27l209 -311q18 -27 18 -63v-54q0 -37 -18 -63l-205 -303q-20 -33 -61 -33h-82q-29 0 -40.5 17.5z" />
<glyph unicode="&#x205f;" horiz-adv-x="463" />
<glyph unicode="&#x20ac;" horiz-adv-x="1357" d="M88 496v53q0 51 51 51h115q-4 61 -4 96q0 47 2 70h-113q-51 0 -51 51v55q0 51 51 52h133q51 227 201 356t383 129q215 0 369 -100q39 -29 16 -70l-31 -61q-20 -45 -67 -23q-139 57 -283 57q-164 0 -268 -69q-68 -74 -105 -219h443q51 0 51 -52v-55q0 -51 -51 -51h-467 q-2 -25 -2 -74q0 -35 4 -92h465q51 0 51 -51v-53q0 -51 -51 -52h-434q90 -266 378 -266q141 0 285 72q47 25 70 -21l33 -65q22 -41 -15 -70q-168 -115 -397 -114q-223 0 -370.5 121.5t-200.5 342.5h-140q-51 0 -51 52z" />
<glyph unicode="&#x2122;" horiz-adv-x="1492" d="M29 1298v39q0 51 51 52h471q51 -1 51 -52v-39q0 -51 -51 -51h-160v-434q0 -51 -51 -51h-49q-51 0 -51 51v434h-160q-51 0 -51 51zM674 817l71 526q6 47 52 50l65 6q47 4 64 -37l145 -342l135 330q16 41 58 43l73 6q49 2 56 -45l71 -537q6 -55 -49 -55h-51q-47 0 -53 47 l-43 321l-123 -292q-14 -39 -60 -39h-38q-45 0 -60 39l-121 290l-43 -319q-6 -47 -53 -47h-49q-53 0 -47 55z" />
<glyph unicode="&#x25fc;" horiz-adv-x="1034" d="M0 0v1034h1034v-1034h-1034z" />
<glyph unicode="&#xfb01;" horiz-adv-x="1193" d="M31 879v41q0 45 47 55l133 24q-8 143 -8 168q0 168 119.5 256t330.5 88q160 0 308 -36q47 -12 36 -64l-16 -82q-10 -51 -61 -39q-274 57 -441 47q-78 -59 -78 -198q0 -53 7 -140h380l142 15q53 6 53 -47v-666q0 -72 14 -123q27 -4 88 -8q51 0 52 -51v-49q0 -45 -35 -62 q-61 -29 -127 -28q-88 0 -137.5 54t-49.5 159v634h-380v-776q0 -51 -52 -51h-92q-51 0 -51 51v776h-131q-51 0 -51 52z" />
<glyph unicode="&#xfb02;" horiz-adv-x="1218" d="M31 879v41q0 45 47 55l133 24q-8 143 -8 168q0 168 119.5 256t330.5 88q117 0 224 -20l77 12q55 10 56 -47v-1155q0 -82 14 -123q27 -4 86 -8q51 0 51 -51v-51q0 -44 -33 -60q-57 -29 -129 -28q-88 0 -136 54t-48 159v1118q-205 33 -336 26q-78 -59 -78 -198 q0 -53 7 -140h196q51 0 51 -51v-69q0 -51 -51 -52h-196v-776q0 -51 -52 -51h-92q-51 0 -51 51v776h-131q-51 0 -51 52z" />
<glyph unicode="&#xfb03;" horiz-adv-x="1769" d="M31 879v41q0 45 47 55l133 24q-8 143 -8 168q0 168 119.5 256t330.5 88q166 0 324 -43q100 43 252 43q160 0 307 -36q45 -12 37 -62l-17 -84q-10 -51 -61 -39q-274 57 -440 47q-78 -57 -78 -198q0 -53 6 -140h381l141 15q53 6 54 -47v-666q0 -72 14 -123q27 -4 88 -8 q51 0 51 -51v-49q0 -45 -35 -62q-61 -29 -129 -28q-88 0 -136 54t-48 159v634h-381v-776q0 -51 -51 -51h-92q-51 0 -52 51v776h-380v-776q0 -51 -52 -51h-92q-51 0 -51 51v776h-131q-51 0 -51 52zM401 1139q0 -53 7 -140h380q-2 27 -4 62t-4 59.5t-2 46.5q0 80 29 144 q-186 35 -328 26q-78 -59 -78 -198z" />
<glyph unicode="&#xfb04;" horiz-adv-x="1796" d="M31 879v41q0 45 47 55l133 24q-8 143 -8 168q0 168 119.5 256t330.5 88q166 0 324 -43q100 43 252 43q119 0 223 -20l78 12q55 10 55 -47v-1155q0 -82 14 -123q27 -4 89 -8q51 0 51 -51v-49q0 -46 -35 -62q-66 -29 -129 -28q-88 0 -136 54t-48 159v1118q-205 33 -336 26 q-78 -57 -78 -198q0 -53 6 -140h197q51 0 51 -51v-69q0 -51 -51 -52h-197v-776q0 -51 -51 -51h-92q-51 0 -52 51v776h-380v-776q0 -51 -52 -51h-92q-51 0 -51 51v776h-131q-51 0 -51 52zM401 1139q0 -53 7 -140h380q-2 27 -4 62t-4 59.5t-2 46.5q0 80 29 144 q-186 35 -328 26q-78 -59 -78 -198z" />
</font>
</defs>
</svg>
