<svg width="11" height="11" viewBox="0 0 11 11" fill="none" xmlns="http://www.w3.org/2000/svg">
<g clip-path="url(#clip0_11_67)">
<path d="M9.4434 11H9.33962C7.67924 10.7925 6.12264 10.2736 4.77358 9.33962C3.5283 8.50943 2.38679 7.4717 1.66038 6.22641C0.726415 4.87736 0.207547 3.21698 0 1.66038C0 1.24528 0.103774 0.830189 0.311321 0.518868C0.622642 0.207547 0.933962 0 1.34906 0H1.45283H2.90566C3.63208 0 4.25472 0.518868 4.35849 1.24528C4.46226 1.66038 4.56604 2.17925 4.66981 2.59434C4.98113 3.11321 4.87736 3.73585 4.46226 4.15094L4.15094 4.56604C4.66981 5.5 5.5 6.22641 6.43396 6.84906L6.74528 6.53774C7.16038 6.12264 7.78302 6.01887 8.30189 6.22641C8.71698 6.43396 9.13208 6.53774 9.54717 6.53774C10.3774 6.53774 11 7.26415 11 7.99057V9.4434C11 9.85849 10.8962 10.1698 10.5849 10.4811C10.2736 10.7925 9.85849 11 9.4434 11ZM3.00943 1.03774H1.45283C1.34906 1.03774 1.24528 1.03774 1.14151 1.14151C1.03774 1.24528 1.03774 1.45283 1.03774 1.5566C1.14151 3.00943 1.66038 4.46226 2.49057 5.70755C3.21698 6.84906 4.15094 7.78302 5.29245 8.50943C6.53774 9.33962 7.99057 9.85849 9.4434 9.96226C9.65094 9.96226 9.75472 9.96226 9.85849 9.85849C9.96226 9.75472 9.96226 9.65094 9.96226 9.54717V7.99057C9.96226 7.78302 9.75472 7.4717 9.54717 7.4717C9.0283 7.36792 8.50943 7.26415 7.99057 7.0566C7.78302 6.95283 7.57547 7.0566 7.4717 7.16038L6.84906 7.78302C6.64151 7.99057 6.43396 7.99057 6.22641 7.88679C4.87736 7.16038 3.83962 6.01887 3.00943 4.66981C2.90566 4.56604 3.00943 4.25472 3.11321 4.15094L3.73585 3.5283C3.9434 3.32075 3.9434 3.11321 3.83962 2.90566C3.63208 2.38679 3.5283 1.86792 3.42453 1.34906C3.42453 1.14151 3.21698 1.03774 3.00943 1.03774Z" fill="#009CDE"/>
</g>
<defs>
<clipPath id="clip0_11_67">
<rect width="11" height="11" fill="white"/>
</clipPath>
</defs>
</svg>
