<?xml version="1.0" encoding="utf-8"?>
<!-- Generator: Adobe Illustrator 25.4.1, SVG Export Plug-In . SVG Version: 6.00 Build 0)  -->
<svg version="1.1" id="Capa_1" xmlns="http://www.w3.org/2000/svg" xmlns:xlink="http://www.w3.org/1999/xlink" x="0px" y="0px"
	 viewBox="0 0 24 24" style="enable-background:new 0 0 24 24;" xml:space="preserve">
<style type="text/css">
	.st0{fill-rule:evenodd;clip-rule:evenodd;fill:#FFFFFF;}
	.st1{fill:#009CDE;}
</style>
<path class="st0" d="M12,24C5.4,24,0,18.6,0,12S5.4,0,12,0s12,5.4,12,12S18.6,24,12,24z"/>
<path class="st1" d="M16.8,12.4c0,0.1-0.1,0.2-0.2,0.3l-3.9,3.9c-0.4,0.4-1,0.4-1.4,0s-0.4-1,0-1.4l2.2-2.2H8.1c-0.5,0-1-0.4-1-1
	c0-0.5,0.4-1,1-1h5.4l-2.2-2.2c-0.4-0.4-0.4-1,0-1.4c0.2-0.2,0.4-0.3,0.7-0.3c0.2,0,0.5,0.1,0.7,0.3l3.9,3.9
	c0.1,0.1,0.2,0.2,0.2,0.3C16.9,11.9,16.9,12.1,16.8,12.4z"/>
</svg>
