<?xml version="1.0" encoding="utf-8"?>
<!-- Generator: Adobe Illustrator 25.4.1, SVG Export Plug-In . SVG Version: 6.00 Build 0)  -->
<svg version="1.1" id="Capa_1" xmlns="http://www.w3.org/2000/svg" xmlns:xlink="http://www.w3.org/1999/xlink" x="0px" y="0px"
	 viewBox="0 0 16 16" style="enable-background:new 0 0 16 16;" xml:space="preserve">
<style type="text/css">
	.st0{fill:#FFFFFF;}
</style>
<path class="st0" d="M8,1.5c3.6,0,6.5,2.9,6.5,6.5s-2.9,6.5-6.5,6.5S1.5,11.6,1.5,8S4.4,1.5,8,1.5 M8,0C3.6,0,0,3.6,0,8s3.6,8,8,8
	s8-3.6,8-8S12.4,0,8,0L8,0z"/>
<path class="st0" d="M6.9,10.6c-0.2,0-0.3-0.1-0.4-0.2c-0.2-0.2-0.2-0.6,0.1-0.8L8.3,8L6.5,6.4C6.3,6.2,6.3,5.8,6.5,5.6
	C6.7,5.4,7,5.4,7.3,5.6l2.2,2C9.6,7.7,9.7,7.8,9.7,8c0,0.2-0.1,0.3-0.2,0.4l-2.2,2C7.2,10.5,7,10.6,6.9,10.6z"/>
</svg>
