<svg width="103" height="103" viewBox="0 0 103 103" fill="none" xmlns="http://www.w3.org/2000/svg">
<path d="M51.5 103C79.9427 103 103 79.9427 103 51.5C103 23.0573 79.9427 0 51.5 0C23.0573 0 0 23.0573 0 51.5C0 79.9427 23.0573 103 51.5 103Z" fill="#74A187"/>
<path d="M70.8245 64.061V77.5882C70.8245 77.6848 70.8245 77.7814 70.8245 77.878V78.651L55.5581 92.8546C55.3649 93.0478 55.2682 93.2411 55.2682 93.531V94.0141H45.4127V93.4343C45.4127 93.1445 45.3161 92.9512 45.1228 92.758L30.2429 78.5544V48.4081V27.2477H36.1369C36.4268 27.2477 36.62 27.151 36.8133 26.9578L37.7795 25.8949C37.9728 25.7017 37.9728 25.5084 37.9728 25.3152V21.1604H62.8048V25.2186C62.8048 25.4118 62.9015 25.7017 62.9981 25.7983L63.4812 26.2814C63.6744 26.4747 63.9643 26.6679 64.3508 26.5713C64.6407 26.4747 64.9305 26.2814 65.0272 25.9916L65.4136 25.122C65.8001 25.122 66.09 24.8321 66.1866 24.4456L67.1529 20.7739H68.409L67.5394 23.9625C67.4427 24.2523 67.5394 24.5422 67.7326 24.7355C67.7326 24.8321 67.8292 24.8321 67.8292 24.8321V25.8949C67.8292 26.3781 68.2157 26.7645 68.6988 26.7645H70.7279V37.5863C70.7279 37.8762 70.8245 38.0694 71.0178 38.2627C71.211 38.4559 71.4043 38.5525 71.6941 38.5525H73.0469V38.7458C73.0469 39.2289 73.4334 39.6154 73.9165 39.6154H76.6219V41.5478H73.9165C73.4334 41.5478 73.0469 41.9343 73.0469 42.4175V42.6107H71.6941C71.4043 42.6107 71.211 42.7073 71.0178 42.9006C70.8245 43.0938 70.7279 43.2871 70.7279 43.5769V55.6548" stroke="#0D224C" stroke-width="2.8076" stroke-miterlimit="10" stroke-linecap="round" stroke-linejoin="round"/>
<path d="M30.5327 78.7477H55.3648" stroke="#0D224C" stroke-width="2.8076" stroke-miterlimit="10" stroke-linecap="round" stroke-linejoin="round"/>
<path d="M30.5327 48.0216H69.5684" stroke="#0D224C" stroke-width="2.8076" stroke-miterlimit="10" stroke-linecap="round" stroke-linejoin="round"/>
<path d="M60.486 17.8752H40.002V21.0638H60.486V17.8752Z" fill="#0D224C" stroke="#0D224C" stroke-width="2.8076" stroke-miterlimit="10" stroke-linecap="round" stroke-linejoin="round"/>
<path d="M56.9109 59.0366H43.287C42.2242 59.0366 41.3546 58.167 41.2579 57.0075L40.0985 33.045C40.0018 31.7889 40.9681 30.8227 42.1275 30.8227H58.3602C59.5197 30.8227 60.3893 31.8855 60.3893 33.1416L58.9399 57.1041C58.8433 58.167 57.9737 59.0366 56.9109 59.0366Z" fill="white" stroke="#0D224C" stroke-width="2.8076" stroke-miterlimit="10" stroke-linecap="round" stroke-linejoin="round"/>
<path d="M63.9643 65.5103L61.3555 63.0947" stroke="#0D224C" stroke-width="2.8076" stroke-miterlimit="10" stroke-linecap="round" stroke-linejoin="round"/>
<path d="M36.8132 65.6069L39.2288 62.9015" stroke="#0D224C" stroke-width="2.8076" stroke-miterlimit="10" stroke-linecap="round" stroke-linejoin="round"/>
<path d="M50.0507 68.1191L49.9541 64.4474" stroke="#0D224C" stroke-width="2.8076" stroke-miterlimit="10" stroke-linecap="round" stroke-linejoin="round"/>
</svg>
