<svg width="103" height="103" viewBox="0 0 103 103" fill="none" xmlns="http://www.w3.org/2000/svg">
<path d="M51.5 103C79.9427 103 103 79.9427 103 51.5C103 23.0573 79.9427 0 51.5 0C23.0573 0 0 23.0573 0 51.5C0 79.9427 23.0573 103 51.5 103Z" fill="#74A187"/>
<path d="M64.1578 34.8809C59.7131 28.9869 50.6305 17.9719 46.2825 13.6238C41.1615 30.1464 24.3491 48.7946 24.3491 63.288C24.3491 69.8584 26.7647 75.849 30.7262 80.3903C35.5574 85.8978 42.6108 89.4728 50.5339 89.4728C58.3604 89.4728 65.3172 86.091 70.1484 80.6801C74.2065 76.0422 76.7187 69.955 76.7187 63.288C76.7187 56.1379 73.0471 48.0216 68.0227 40.1951" fill="white"/>
<path d="M64.1578 34.8809C59.7131 28.9869 50.6305 17.9719 46.2825 13.6238C41.1615 30.1464 24.3491 48.7946 24.3491 63.288C24.3491 69.8584 26.7647 75.849 30.7262 80.3903C35.5574 85.8978 42.6108 89.4728 50.5339 89.4728C58.3604 89.4728 65.3172 86.091 70.1484 80.6801C74.2065 76.0422 76.7187 69.955 76.7187 63.288C76.7187 56.1379 73.0471 48.0216 68.0227 40.1951" stroke="#0D224C" stroke-width="2.8076" stroke-miterlimit="10" stroke-linecap="round" stroke-linejoin="round"/>
<path d="M50.4372 89.4728C42.5142 89.4728 35.4607 85.9944 30.6296 80.3903C26.668 75.7524 24.2524 69.8584 24.2524 63.288C24.2524 48.7946 41.1614 30.1464 46.1858 13.6238L51.4035 19.3246" fill="#74A187"/>
<path d="M50.4372 89.4728C42.5142 89.4728 35.4607 85.9944 30.6296 80.3903C26.668 75.7524 24.2524 69.8584 24.2524 63.288C24.2524 48.7946 41.1614 30.1464 46.1858 13.6238L51.4035 19.3246" stroke="#0D224C" stroke-width="2.8076" stroke-miterlimit="10" stroke-linecap="round" stroke-linejoin="round"/>
<path d="M58.9399 82.1295C63.5778 79.9071 66.9596 76.1388 68.7955 71.7908C71.0178 66.4766 71.1144 60.2927 68.409 54.7852" fill="white"/>
<path d="M58.9399 82.1295C63.5778 79.9071 66.9596 76.1388 68.7955 71.7908C71.0178 66.4766 71.1144 60.2927 68.409 54.7852" stroke="#0D224C" stroke-width="2.8076" stroke-miterlimit="10" stroke-linecap="round" stroke-linejoin="round"/>
<path d="M41.6444 75.2692C42.4174 75.4625 42.8039 76.1388 42.6107 76.9118C42.4174 77.5882 41.7411 78.0713 40.9681 77.9747C40.1951 77.7814 39.8086 77.1051 39.9052 76.3321C40.1951 75.5591 40.9681 75.1726 41.6444 75.2692Z" fill="#74A187" stroke="#0D224C" stroke-width="1.1278" stroke-miterlimit="10" stroke-linecap="round" stroke-linejoin="round"/>
<path d="M13.8171 68.3124C14.9766 68.6022 15.6529 69.7617 15.4597 70.9212C15.1698 72.0807 14.0104 72.757 12.8509 72.5638C11.6914 72.2739 11.015 71.1144 11.2083 69.955C11.4982 68.6989 12.6576 68.0225 13.8171 68.3124Z" fill="#74A187" stroke="#0D224C" stroke-width="1.1278" stroke-miterlimit="10" stroke-linecap="round" stroke-linejoin="round"/>
<path d="M15.653 25.7983C17.199 26.1848 18.1652 27.7308 17.7787 29.2767C17.3922 30.8227 15.8462 31.7889 14.3003 31.4024C12.7543 31.0159 11.7881 29.47 12.1746 27.924C12.5611 26.378 14.107 25.4118 15.653 25.7983Z" fill="#74A187" stroke="#0D224C" stroke-width="1.8797" stroke-miterlimit="10" stroke-linecap="round" stroke-linejoin="round"/>
<path d="M51.5 2.9953V5.21763" stroke="#0D224C" stroke-width="2.8774" stroke-linecap="round" stroke-linejoin="round"/>
<path d="M51.5 9.66229V96.1398" stroke="#0D224C" stroke-width="2.8774" stroke-linecap="round" stroke-linejoin="round" stroke-dasharray="4.59 4.59"/>
<path d="M51.5 98.3621V100.584" stroke="#0D224C" stroke-width="2.8774" stroke-linecap="round" stroke-linejoin="round"/>
<path d="M82.0329 26.1848L85.9944 28.3105L82.0329 30.5328L79.8106 34.4944L77.6849 30.5328L73.6267 28.3105L77.6849 26.1848L79.8106 22.1266L82.0329 26.1848Z" fill="white" stroke="#0D224C" stroke-width="1.8797" stroke-miterlimit="10" stroke-linecap="round" stroke-linejoin="round"/>
<path d="M91.985 64.7373L95.9466 66.9597L91.985 69.182L89.7627 73.1435L87.5404 69.182L83.5789 66.9597L87.5404 64.7373L89.7627 60.7758L91.985 64.7373Z" fill="white" stroke="#0D224C" stroke-width="1.8797" stroke-miterlimit="10" stroke-linecap="round" stroke-linejoin="round"/>
<path d="M20.0974 45.1229C22.513 44.3499 25.2184 44.7364 27.5373 45.7992C31.8854 47.6351 35.2672 51.5 36.6199 55.9446C37.1996 57.7805 37.3929 59.8095 36.7165 61.6454C36.0402 63.4812 34.3976 65.0272 32.4651 65.0272C29.5664 65.1238 27.5373 62.3217 24.9285 61.2589C23.3826 60.6792 21.6434 60.5825 20.0974 60.0994C17.0055 59.0366 14.6865 55.848 14.6865 52.5628C14.5899 49.3743 16.9088 46.1857 20.0974 45.1229Z" fill="#74A187" stroke="#0D224C" stroke-width="2.8076" stroke-miterlimit="10" stroke-linecap="round" stroke-linejoin="round"/>
<path d="M25.2185 43.5769C25.7982 42.7073 26.7645 42.1276 27.151 40.6782" stroke="#0D224C" stroke-width="1.8797" stroke-miterlimit="10" stroke-linecap="round" stroke-linejoin="round"/>
<path d="M17.1021 44.833C17.1021 44.2533 17.5852 43.287 16.8123 41.9343" stroke="#0D224C" stroke-width="1.8797" stroke-miterlimit="10" stroke-linecap="round" stroke-linejoin="round"/>
<path d="M15.6528 50.727C14.1069 49.8574 11.7879 48.1182 11.1116 48.2148" stroke="#0D224C" stroke-width="1.8797" stroke-miterlimit="10" stroke-linecap="round" stroke-linejoin="round"/>
<path d="M15.0732 56.1379C14.0104 56.621 12.6576 57.0075 11.6914 57.8771" stroke="#0D224C" stroke-width="1.8797" stroke-miterlimit="10" stroke-linecap="round" stroke-linejoin="round"/>
<path d="M18.5515 59.3264C18.2616 60.5825 17.392 61.1623 16.8123 62.0319" stroke="#0D224C" stroke-width="1.8797" stroke-miterlimit="10"/>
<path d="M18.5515 59.3264C18.2616 60.5825 17.392 61.1623 16.8123 62.0319" stroke="#0D224C" stroke-width="1.8797" stroke-miterlimit="10" stroke-linecap="round" stroke-linejoin="round"/>
<path d="M25.0252 63.1913C24.6388 64.9306 23.4793 65.6069 22.7063 66.6698" stroke="#0D224C" stroke-width="1.8797" stroke-miterlimit="10" stroke-linecap="round" stroke-linejoin="round"/>
<path d="M23.1894 48.5047C24.9286 49.181 25.7982 51.1135 25.1218 52.9493C24.4455 54.6886 22.513 55.5582 20.6772 54.8818C18.938 54.2054 18.0684 52.1764 18.7447 50.4371C19.5177 48.6979 21.4502 47.8283 23.1894 48.5047Z" fill="#74A187" stroke="#0D224C" stroke-width="1.8797" stroke-miterlimit="10" stroke-linecap="round" stroke-linejoin="round"/>
<path d="M32.3686 58.2636C33.4315 58.6501 33.9146 59.8095 33.5281 60.7758C33.1416 61.742 31.9821 62.3217 31.0159 61.9352C30.0497 61.5488 29.4699 60.3893 29.8564 59.4231C30.2429 58.3602 31.4024 57.8771 32.3686 58.2636Z" fill="#74A187" stroke="#0D224C" stroke-width="1.8797" stroke-miterlimit="10" stroke-linecap="round" stroke-linejoin="round"/>
<path d="M31.8855 48.0216C32.7551 47.2486 33.7213 46.5722 34.5909 45.9925" stroke="#0D224C" stroke-width="1.8797" stroke-miterlimit="10"/>
<path d="M31.8855 48.0216C32.7551 47.2486 33.7213 46.5722 34.5909 45.9925" stroke="#0D224C" stroke-width="1.8797" stroke-miterlimit="10" stroke-linecap="round" stroke-linejoin="round"/>
<path d="M35.2672 53.046C35.074 52.7561 38.8422 51.5 38.8422 51.5" stroke="#0D224C" stroke-width="1.8797" stroke-miterlimit="10"/>
<path d="M35.2672 53.046C35.074 52.7561 38.8422 51.5 38.8422 51.5" stroke="#0D224C" stroke-width="1.8797" stroke-miterlimit="10" stroke-linecap="round" stroke-linejoin="round"/>
<path d="M35.2673 61.8386C35.8471 61.9352 37.5863 63.1913 39.0356 64.2542" stroke="#0D224C" stroke-width="1.8797" stroke-miterlimit="10" stroke-linecap="round" stroke-linejoin="round"/>
<path d="M30.6294 66.4765C30.8226 68.2157 29.7598 68.6022 29.3733 69.5685" stroke="#0D224C" stroke-width="1.8797" stroke-miterlimit="10" stroke-linecap="round" stroke-linejoin="round"/>
<path d="M35.7505 57.0075C36.5235 56.621 38.4559 57.2974 39.712 57.4906" stroke="#0D224C" stroke-width="1.8797" stroke-miterlimit="10" stroke-linecap="round" stroke-linejoin="round"/>
</svg>
