<svg width="70" height="70" viewBox="0 0 70 70" fill="none" xmlns="http://www.w3.org/2000/svg">
<path d="M35 70C54.33 70 70 54.33 70 35C70 15.67 54.33 0 35 0C15.67 0 0 15.67 0 35C0 54.33 15.67 70 35 70Z" fill="#74A187"/>
<path d="M48.1335 43.5366V52.7298C48.1335 52.7955 48.1335 52.8611 48.1335 52.9268V53.4521L37.7582 63.105C37.6269 63.2364 37.5612 63.3677 37.5612 63.5647V63.893H30.8633V63.499C30.8633 63.302 30.7976 63.1707 30.6663 63.0394L20.5537 53.3865V32.8987V18.5178H24.5593C24.7563 18.5178 24.8877 18.4521 25.019 18.3208L25.6757 17.5985C25.807 17.4671 25.807 17.3358 25.807 17.2045V14.3808H42.6832V17.1388C42.6832 17.2702 42.7488 17.4672 42.8145 17.5328L43.1428 17.8611C43.2742 17.9925 43.4712 18.1238 43.7338 18.0581C43.9308 17.9925 44.1278 17.8611 44.1935 17.6641L44.4561 17.0732C44.7188 17.0732 44.9158 16.8762 44.9815 16.6135L45.6381 14.1182H46.4918L45.9008 16.2852C45.8351 16.4822 45.9008 16.6792 46.0321 16.8105C46.0321 16.8762 46.0978 16.8762 46.0978 16.8762V17.5985C46.0978 17.9268 46.3605 18.1895 46.6888 18.1895H48.0678V25.5441C48.0678 25.7411 48.1334 25.8724 48.2648 26.0037C48.3961 26.1351 48.5274 26.2007 48.7244 26.2007H49.6438V26.3321C49.6438 26.6604 49.9064 26.9231 50.2348 26.9231H52.0734V28.2364H50.2348C49.9064 28.2364 49.6438 28.499 49.6438 28.8274V28.9587H48.7244C48.5274 28.9587 48.3961 29.0244 48.2648 29.1557C48.1334 29.287 48.0678 29.4184 48.0678 29.6154V37.8236" stroke="#0D224C" stroke-width="2.8076" stroke-miterlimit="10" stroke-linecap="round" stroke-linejoin="round"/>
<path d="M20.7505 53.5178H37.6267" stroke="#0D224C" stroke-width="2.8076" stroke-miterlimit="10" stroke-linecap="round" stroke-linejoin="round"/>
<path d="M20.7505 32.636H47.2796" stroke="#0D224C" stroke-width="2.8076" stroke-miterlimit="10" stroke-linecap="round" stroke-linejoin="round"/>
<path d="M41.1067 12.1482H27.1855V14.3152H41.1067V12.1482Z" fill="#0D224C" stroke="#0D224C" stroke-width="2.8076" stroke-miterlimit="10" stroke-linecap="round" stroke-linejoin="round"/>
<path d="M38.6775 40.1219H29.4186C28.6963 40.1219 28.1053 39.5309 28.0396 38.7429L27.2516 22.4577C27.1859 21.6041 27.8426 20.9474 28.6306 20.9474H39.6625C40.4505 20.9474 41.0415 21.6698 41.0415 22.5234L40.0565 38.8086C39.9908 39.5309 39.3998 40.1219 38.6775 40.1219Z" fill="white" stroke="#0D224C" stroke-width="2.8076" stroke-miterlimit="10" stroke-linecap="round" stroke-linejoin="round"/>
<path d="M43.4707 44.5216L41.6978 42.8799" stroke="#0D224C" stroke-width="2.8076" stroke-miterlimit="10" stroke-linecap="round" stroke-linejoin="round"/>
<path d="M25.019 44.5872L26.6607 42.7486" stroke="#0D224C" stroke-width="2.8076" stroke-miterlimit="10" stroke-linecap="round" stroke-linejoin="round"/>
<path d="M34.0154 46.2946L33.9497 43.7993" stroke="#0D224C" stroke-width="2.8076" stroke-miterlimit="10" stroke-linecap="round" stroke-linejoin="round"/>
</svg>
