<svg width="70" height="70" viewBox="0 0 70 70" fill="none" xmlns="http://www.w3.org/2000/svg">
<path d="M35 70C54.33 70 70 54.33 70 35C70 15.67 54.33 0 35 0C15.67 0 0 15.67 0 35C0 54.33 15.67 70 35 70Z" fill="#74A187"/>
<path d="M43.6028 23.7054C40.5821 19.6998 34.4095 12.2139 31.4545 9.25891C27.9742 20.4878 16.5483 33.1614 16.5483 43.0113C16.5483 47.4766 18.19 51.5478 20.8823 54.6341C24.1656 58.3771 28.9592 60.8068 34.3438 60.8068C39.6628 60.8068 44.3907 58.5084 47.674 54.8311C50.432 51.6792 52.1393 47.5422 52.1393 43.0113C52.1393 38.152 49.644 32.636 46.2294 27.3171" fill="white"/>
<path d="M43.6028 23.7054C40.5821 19.6998 34.4095 12.2139 31.4545 9.25891C27.9742 20.4878 16.5483 33.1614 16.5483 43.0113C16.5483 47.4765 18.19 51.5478 20.8823 54.6341C24.1656 58.3771 28.9592 60.8068 34.3438 60.8068C39.6628 60.8068 44.3907 58.5084 47.674 54.8311C50.432 51.6792 52.1393 47.5422 52.1393 43.0113C52.1393 38.152 49.644 32.636 46.2294 27.3171" stroke="#0D224C" stroke-width="2.8076" stroke-miterlimit="10" stroke-linecap="round" stroke-linejoin="round"/>
<path d="M34.2779 60.8068C28.8933 60.8068 24.0997 58.4428 20.8164 54.6341C18.1241 51.4822 16.4824 47.4766 16.4824 43.0113C16.4824 33.1614 27.974 20.4878 31.3886 9.25891L34.9346 13.1332" fill="#74A187"/>
<path d="M34.2779 60.8068C28.8933 60.8068 24.0997 58.4428 20.8164 54.6341C18.1241 51.4822 16.4824 47.4765 16.4824 43.0113C16.4824 33.1614 27.974 20.4878 31.3886 9.25891L34.9346 13.1332" stroke="#0D224C" stroke-width="2.8076" stroke-miterlimit="10" stroke-linecap="round" stroke-linejoin="round"/>
<path d="M40.0566 55.8161C43.2086 54.3058 45.5069 51.7448 46.7546 48.7899C48.2649 45.1782 48.3306 40.9756 46.4919 37.2327" fill="white"/>
<path d="M40.0566 55.8161C43.2086 54.3058 45.5069 51.7448 46.7546 48.7899C48.2649 45.1782 48.3306 40.9756 46.4919 37.2327" stroke="#0D224C" stroke-width="2.8076" stroke-miterlimit="10" stroke-linecap="round" stroke-linejoin="round"/>
<path d="M28.3023 51.1539C28.8276 51.2852 29.0902 51.7448 28.9589 52.2702C28.8276 52.7298 28.3679 53.0582 27.8426 52.9925C27.3173 52.8612 27.0546 52.4015 27.1203 51.8762C27.3173 51.3508 27.8426 51.0882 28.3023 51.1539Z" fill="#74A187" stroke="#0D224C" stroke-width="1.1278" stroke-miterlimit="10" stroke-linecap="round" stroke-linejoin="round"/>
<path d="M9.38997 46.4259C10.178 46.6229 10.6376 47.4109 10.5063 48.1989C10.3093 48.9869 9.5213 49.4465 8.73331 49.3152C7.94532 49.1182 7.48566 48.3302 7.61699 47.5422C7.81399 46.6886 8.60198 46.2289 9.38997 46.4259Z" fill="#74A187" stroke="#0D224C" stroke-width="1.1278" stroke-miterlimit="10" stroke-linecap="round" stroke-linejoin="round"/>
<path d="M10.6377 17.5328C11.6884 17.7955 12.345 18.8461 12.0824 19.8968C11.8197 20.9475 10.769 21.6041 9.71839 21.3414C8.66774 21.0788 8.01108 20.0281 8.27374 18.9775C8.5364 17.9268 9.58706 17.2702 10.6377 17.5328Z" fill="#74A187" stroke="#0D224C" stroke-width="1.8797" stroke-miterlimit="10" stroke-linecap="round" stroke-linejoin="round"/>
<path d="M35 2.03564V3.54596" stroke="#0D224C" stroke-width="2.8774" stroke-linecap="round" stroke-linejoin="round"/>
<path d="M35 6.56662V65.3377" stroke="#0D224C" stroke-width="2.8774" stroke-linecap="round" stroke-linejoin="round" stroke-dasharray="4.59 4.59"/>
<path d="M35 66.848V68.3583" stroke="#0D224C" stroke-width="2.8774" stroke-linecap="round" stroke-linejoin="round"/>
<path d="M55.7501 17.7955L58.4424 19.2402L55.7501 20.7505L54.2397 23.4428L52.7951 20.7505L50.0371 19.2402L52.7951 17.7955L54.2397 15.0375L55.7501 17.7955Z" fill="white" stroke="#0D224C" stroke-width="1.8797" stroke-miterlimit="10" stroke-linecap="round" stroke-linejoin="round"/>
<path d="M62.5142 43.9963L65.2065 45.5066L62.5142 47.0169L61.0039 49.7092L59.4936 47.0169L56.8013 45.5066L59.4936 43.9963L61.0039 41.304L62.5142 43.9963Z" fill="white" stroke="#0D224C" stroke-width="1.8797" stroke-miterlimit="10" stroke-linecap="round" stroke-linejoin="round"/>
<path d="M13.6588 30.666C15.3004 30.1407 17.1391 30.4034 18.7151 31.1257C21.67 32.3733 23.9683 35 24.8877 38.0206C25.2817 39.2683 25.413 40.6473 24.9533 41.8949C24.4937 43.1426 23.3773 44.1932 22.064 44.1932C20.094 44.2589 18.7151 42.3546 16.9421 41.6323C15.8914 41.2383 14.7094 41.1726 13.6588 40.8443C11.5575 40.1219 9.98147 37.955 9.98147 35.7223C9.9158 33.5553 11.4918 31.3884 13.6588 30.666Z" fill="#74A187" stroke="#0D224C" stroke-width="2.8076" stroke-miterlimit="10" stroke-linecap="round" stroke-linejoin="round"/>
<path d="M17.1387 29.6154C17.5327 29.0244 18.1893 28.6304 18.452 27.6454" stroke="#0D224C" stroke-width="1.8797" stroke-miterlimit="10" stroke-linecap="round" stroke-linejoin="round"/>
<path d="M11.6233 30.469C11.6233 30.075 11.9516 29.4184 11.4263 28.4991" stroke="#0D224C" stroke-width="1.8797" stroke-miterlimit="10" stroke-linecap="round" stroke-linejoin="round"/>
<path d="M10.6381 34.4747C9.58741 33.8837 8.01142 32.7017 7.55176 32.7673" stroke="#0D224C" stroke-width="1.8797" stroke-miterlimit="10" stroke-linecap="round" stroke-linejoin="round"/>
<path d="M10.2441 38.1519C9.52179 38.4803 8.60246 38.7429 7.9458 39.3339" stroke="#0D224C" stroke-width="1.8797" stroke-miterlimit="10" stroke-linecap="round" stroke-linejoin="round"/>
<path d="M12.6083 40.3189C12.4113 41.1726 11.8203 41.5666 11.4263 42.1576" stroke="#0D224C" stroke-width="1.8797" stroke-miterlimit="10"/>
<path d="M12.6083 40.3189C12.4113 41.1726 11.8203 41.5666 11.4263 42.1576" stroke="#0D224C" stroke-width="1.8797" stroke-miterlimit="10" stroke-linecap="round" stroke-linejoin="round"/>
<path d="M17.0076 42.9456C16.745 44.1276 15.957 44.5872 15.4316 45.3096" stroke="#0D224C" stroke-width="1.8797" stroke-miterlimit="10" stroke-linecap="round" stroke-linejoin="round"/>
<path d="M15.7602 32.9644C16.9421 33.424 17.5331 34.7373 17.0735 35.985C16.6138 37.167 15.3005 37.758 14.0528 37.2983C12.8708 36.8387 12.2799 35.4597 12.7395 34.2777C13.2648 33.0957 14.5782 32.5047 15.7602 32.9644Z" fill="#74A187" stroke="#0D224C" stroke-width="1.8797" stroke-miterlimit="10" stroke-linecap="round" stroke-linejoin="round"/>
<path d="M21.9981 39.5966C22.7204 39.8593 23.0487 40.6473 22.7861 41.3039C22.5234 41.9606 21.7354 42.3546 21.0788 42.0919C20.4221 41.8293 20.0281 41.0413 20.2908 40.3846C20.5534 39.6623 21.3414 39.3339 21.9981 39.5966Z" fill="#74A187" stroke="#0D224C" stroke-width="1.8797" stroke-miterlimit="10" stroke-linecap="round" stroke-linejoin="round"/>
<path d="M21.6699 32.636C22.2609 32.1107 22.9176 31.651 23.5086 31.257" stroke="#0D224C" stroke-width="1.8797" stroke-miterlimit="10"/>
<path d="M21.6699 32.636C22.2609 32.1107 22.9176 31.651 23.5086 31.257" stroke="#0D224C" stroke-width="1.8797" stroke-miterlimit="10" stroke-linecap="round" stroke-linejoin="round"/>
<path d="M23.9683 36.0507C23.8369 35.8537 26.3979 35 26.3979 35" stroke="#0D224C" stroke-width="1.8797" stroke-miterlimit="10"/>
<path d="M23.9683 36.0507C23.8369 35.8537 26.3979 35 26.3979 35" stroke="#0D224C" stroke-width="1.8797" stroke-miterlimit="10" stroke-linecap="round" stroke-linejoin="round"/>
<path d="M23.9683 42.0263C24.3623 42.0919 25.5442 42.9456 26.5292 43.6679" stroke="#0D224C" stroke-width="1.8797" stroke-miterlimit="10" stroke-linecap="round" stroke-linejoin="round"/>
<path d="M20.8161 45.1782C20.9474 46.3602 20.2251 46.6229 19.9624 47.2795" stroke="#0D224C" stroke-width="1.8797" stroke-miterlimit="10" stroke-linecap="round" stroke-linejoin="round"/>
<path d="M24.2964 38.7429C24.8217 38.4803 26.135 38.9399 26.9887 39.0713" stroke="#0D224C" stroke-width="1.8797" stroke-miterlimit="10" stroke-linecap="round" stroke-linejoin="round"/>
</svg>
