<svg width="70" height="70" viewBox="0 0 70 70" fill="none" xmlns="http://www.w3.org/2000/svg">
<g clip-path="url(#clip0_176_172)">
<path d="M35.0313 70.0626C54.3785 70.0626 70.0626 54.3785 70.0626 35.0313C70.0626 15.684 54.3785 0 35.0313 0C15.684 0 0 15.684 0 35.0313C0 54.3785 15.684 70.0626 35.0313 70.0626Z" fill="#6E9F87"/>
<path d="M44.2273 24.647L40.1611 24.084V29.5889H48.1683C48.1683 27.0867 46.4793 24.9598 44.2273 24.647Z" fill="white" stroke="#001F4E" stroke-width="2.9491" stroke-miterlimit="10" stroke-linecap="round" stroke-linejoin="round"/>
<path d="M52.1719 51.4835H55.9878C58.5526 51.4835 60.6795 47.7927 60.6795 43.2886C60.6795 38.7846 58.5526 35.0938 55.9878 35.0938H52.1719" stroke="#001F4E" stroke-width="2.9491" stroke-miterlimit="10" stroke-linecap="round" stroke-linejoin="round"/>
<path d="M16.5776 52.4218H49.482C52.3596 52.4218 54.7367 48.2931 54.7367 43.2886C54.7367 38.2842 52.4221 34.1555 49.482 34.1555H16.5776" stroke="#001F4E" stroke-width="2.9491" stroke-miterlimit="10" stroke-linecap="round" stroke-linejoin="round"/>
<path d="M26.0859 33.4674C29.1512 33.4674 31.6534 37.8463 31.6534 43.2886C31.6534 48.731 27.7749 53.1099 26.0859 53.1099C36.1574 55.7373 43.539 53.6104 43.539 43.2886C43.539 37.9088 41.0368 33.4674 37.9715 33.4674H26.0859Z" fill="white" stroke="#001F4E" stroke-width="2.9491" stroke-miterlimit="10" stroke-linecap="round" stroke-linejoin="round"/>
<path d="M39.9109 23.3333H28.1504L26.4614 31.9035H41.5374L39.9109 23.3333Z" fill="white" stroke="#001F4E" stroke-width="2.9491" stroke-miterlimit="10" stroke-linecap="round" stroke-linejoin="round"/>
<path d="M39.0976 35.7194H28.9636C28.2129 35.7194 27.6499 35.1564 27.6499 34.4057V33.8427C27.6499 33.092 28.2129 32.529 28.9636 32.529H39.0976C39.8483 32.529 40.4113 33.092 40.4113 33.8427V34.4057C40.4113 35.0938 39.8483 35.7194 39.0976 35.7194Z" fill="white" stroke="#001F4E" stroke-width="2.9491" stroke-miterlimit="10" stroke-linecap="round" stroke-linejoin="round"/>
<path d="M16.5774 52.4218C19.4795 52.4218 21.8321 48.3327 21.8321 43.2886C21.8321 38.2445 19.4795 34.1555 16.5774 34.1555C13.6754 34.1555 11.3228 38.2445 11.3228 43.2886C11.3228 48.3327 13.6754 52.4218 16.5774 52.4218Z" stroke="#001F4E" stroke-width="2.9491" stroke-miterlimit="10" stroke-linecap="round" stroke-linejoin="round"/>
<path d="M15.8892 36.0322C17.7658 36.0322 19.2672 39.2851 19.2672 43.2261C19.2672 47.1671 17.7658 50.42 15.8892 50.42" stroke="#001F4E" stroke-width="2.1008" stroke-miterlimit="10" stroke-linecap="round" stroke-linejoin="round"/>
<path d="M23.6461 24.647L27.7122 24.084V29.5889H19.7051C19.7051 27.0867 21.3941 24.9598 23.6461 24.647Z" fill="white" stroke="#001F4E" stroke-width="2.9491" stroke-miterlimit="10" stroke-linecap="round" stroke-linejoin="round"/>
<path d="M19.2671 15.076L22.2698 17.7659" stroke="#001F4E" stroke-width="2.9491" stroke-miterlimit="10" stroke-linecap="round" stroke-linejoin="round"/>
<path d="M49.5444 14.8883L46.8545 17.891" stroke="#001F4E" stroke-width="2.9491" stroke-miterlimit="10" stroke-linecap="round" stroke-linejoin="round"/>
<path d="M10.8848 24.9598H14.8883" stroke="#001F4E" stroke-width="2.9491" stroke-miterlimit="10" stroke-linecap="round" stroke-linejoin="round"/>
<path d="M54.7363 24.9598H58.8025" stroke="#001F4E" stroke-width="2.9491" stroke-miterlimit="10" stroke-linecap="round" stroke-linejoin="round"/>
<path d="M34.8438 12.1984L34.9063 16.202" stroke="#001F4E" stroke-width="2.9491" stroke-miterlimit="10" stroke-linecap="round" stroke-linejoin="round"/>
</g>
<defs>
<clipPath id="clip0_176_172">
<rect width="70" height="70" fill="white"/>
</clipPath>
</defs>
</svg>
